<?xml version="1.0" encoding="utf-8"?>
<svg version="1.1" id="Camada_1" xmlns="http://www.w3.org/2000/svg" xmlns:xlink="http://www.w3.org/1999/xlink" x="0px" y="0px"
	 viewBox="-19 49.7 360.7 103.3" style="enable-background:new -19 49.7 360.7 103.3;" xml:space="preserve">
<style type="text/css">
	.st0{display:none;}
	.st1{display:inline;fill:#FFDD67;}
	.st2{display:inline;fill:#EBA352;}
	.st3{fill:#EBA352;stroke:#EBA352;stroke-miterlimit:10;}
	.st4{fill:#FFDD67;}
</style>
<g class="st0">
	<path class="st1" d="M113.3-28.6l-14.2,10c0,0-7-19.9-12.5-32.4C84.3-56,77.5-57.8,74.3-65c-5.5-12.5,1-23.3,7.6-15.5
		c7.6,9,18.7,15.6,21,20.8C106.6-51.1,113.3-28.6,113.3-28.6z"/>
	<path class="st1" d="M124.6-20.4c1,6.8,0.1,17.5-5.8,30c0,0-12.3-14.7-13.7-21.4c0,0-3.5-25.6-7-42c-1.4-6.7-9.2-10.6-11.2-20
		c-3.5-16.3,7-27.7,12.9-16.7c6.9,12.7,18.6,23.4,20,30.1C122.2-49.2,123.1-30.4,124.6-20.4z"/>
	<path class="st2" d="M106.4-33.3c0,0-1.1-9.7-4.6-26c-1.4-6.7-9.2-10.6-11.2-20c-1.2-5.6-0.8-10.7,0.6-14.4
		c-3.7,2.8-6.7,10.5-4.6,19.9c2,9.4,9.8,13.3,11.3,20c1,4.8,1.9,9.6,2.7,14.4l-10.8-4C89.7-43.4,106.4-33.3,106.4-33.3z"/>
	<path class="st1" d="M119.4-22.9c-14.3-13-30.1-20.8-40.4-25.9c-15.3-7.5-11.2,2.8-37.3,9.6c-3.4,0.9-7.5,3.4-4.4,9.9
		c3,6.3,27.6,1.5,31.4-2.2c0,0,10.3,12.6,20.6,12.3c0,0-1.8,8.3,0.7,12.4c0,0-14.6,7.6-20.8,14.2L51.9-4.2
		c-1.3-17.9-4.5-23.2-13.3-22.4c-8.2,0.8-7.3,8.5-7.1,14.8c0.3,11.4-2.7,13.3,0.1,17.8c10.7,17.3,24.1,28.1,49,28.1
		c9.3,0,15.3-0.2,21-3.1C111.2,26.3,135.1-8.7,119.4-22.9z"/>
	<path class="st2" d="M122.2-19.6c5.3,16.4-13.7,43.2-22.1,47.3c-5.7,2.8-11.7,3.1-21,3.1C54.4,30.9,41,20.3,30.4,3.3
		c0.3,0.9,0.6,1.8,1.1,2.7c10.7,17.3,24.1,28.1,49,28.1c9.3,0,15.3-0.2,21-3.1C110.5,26.6,131.7-3.8,122.2-19.6z"/>
	<path class="st2" d="M48.9-3.7c0,0,16.1,10.3,20,10.9l-17-11.5c0.7-18.1-4.6-23.9-13.3-22.4c-0.6,0.1-1.3,0.3-1.9,0.4
		C45.4-27.1,49.6-21.3,48.9-3.7z"/>
	<path class="st2" d="M68.8-31.5c0,0,10.3,12.6,20.6,12.3v-2.3c-10.3,0.3-20.6-12.3-20.6-12.3c-3.8,3.8-28.4,8.5-31.4,2.2
		c-0.5-0.9-0.8-1.9-1-3c-0.3,1.4-0.1,3.1,1,5.3C40.4-23,65-27.8,68.8-31.5z"/>
</g>
<g>
	<g>
		<path class="st3" d="M17.7,64.8v0.4c0,1.1-0.9,2.1-2.7,3.1c-3.9,3.2-5.8,7.3-5.8,12.5c0,3.7,3.4,9.5,10.3,17.2
			c2.2,2.9,4.1,8.6,5.6,17l0.7,4.5v0.4l-1.1,5.8c0,2.1-0.4,3.7-1.1,5.1c0,3.2-0.8,5.6-2.5,7.2c-1.3,1.7-2.1,3.2-2.5,4.5
			c-1.9,0.6-3.3,1.5-4.2,2.5c-0.8,0.6-1.5,0.9-2,0.9h-1.6c-1.7,2-4.1,2.9-7.2,2.9H2.5c-2.5,0-5.5-1.6-8.9-4.9
			c-3.6-4.4-5.4-9-5.4-13.8v-0.9c1.2-3.3,3.2-4.9,6-4.9h1.6c2,0,3.3,2,3.8,6c1.3,4.8,2.5,7.2,3.6,7.2c2.4-3.4,3.6-5.6,3.6-6.9v-8.7
			c-0.4-6.8-1.2-11.1-2.2-13c-0.7-1.2-1.2-3-1.6-5.1c-1.8-1.8-4.1-6-6.9-12.5c-1.1-2.6-1.8-7-2.2-13c0-3.9,1.5-7.2,4.5-10.1
			c1-1.7,1.7-2.9,2.2-3.6c0.8-1,3.9-1.8,9.2-2.7C15,61.9,17.7,62.8,17.7,64.8z"/>
		<path class="st3" d="M44.7,65c0.6-0.3,1.6-0.4,2.8-0.4c3.9,0.4,7.4,0.7,10.8,0.8c2.2,1.2,3.2,2.6,3.2,4.4c-2,4-5.9,5.9-11.7,5.9
			h-2.6l-1.1,0.2v-0.2l-0.4,0.2c-0.3-0.2-0.6-0.2-0.8-0.2c-0.4,1.1-0.7,2.2-0.7,3.1v0.4c0,1.1,0.1,2.6,0.2,4.4l-1.1,3
			c0.2,2.1,0.5,3.1,0.8,3.1s1.4-0.1,3.2-0.2c5.6,1.3,8.4,2.2,8.4,2.7c0.9,0.8,1.3,1.6,1.3,2.6c-1,2.2-2.7,3.4-5.4,3.4
			c-0.4,0-2.6,0.7-6.5,2.1h-0.8l0.2,0.4c0,0.4-0.1,0.6-0.2,0.6c0.2,1.7,0.2,2.9,0.2,3.6v3.2c0,1-0.2,3.1-0.4,6.5
			c0.2,1.1,0.4,2.1,0.9,3l-0.2,2.5v2.1c0,5.3,0.3,8.9,0.8,11c-0.2,1.5-0.2,2.6-0.2,3.4v0.4c0,0.8,0.5,1.3,1.5,1.3
			c2.6,0,5.3-0.2,8.1-0.4c3.5,0,5.2,0.8,5.2,2.5c-1.5,4.2-6.4,6.2-14.8,6c-6.6,0.5-11.2-0.1-14-1.9c-1.6-7.4-2.5-14.8-2.5-22
			c0-2.2,0.2-5,0.4-8.2c-0.3-1-0.6-3.3-0.9-6.9l0.4-4.9c-0.2-0.3-0.3-2.7-0.4-7.2l1.1-13.7c-0.3-0.9-0.4-1.5-0.4-1.9v-0.8
			c0-0.7,0.1-1.3,0.2-2.1c-0.2-1-0.3-1.6-0.4-1.9c0.2-1.2,0.2-2.2,0.2-3v-4.4c0-1.2,1.6-2.4,4.8-3.6c1.6,0,2.4-0.1,2.4-0.2
			C40.7,64.1,43.4,64.6,44.7,65z"/>
		<path class="st3" d="M98,77.1c2.1,5,3.1,10.4,3.1,16.1c0.2,0,0.2,0.4,0.2,1.1c0,0.3-0.3,1.8-0.9,4.7c0.7,3.6,1.1,7.8,1.1,12.5v0.4
			c0,3.2-0.4,7.3-1.3,12.5c0,3.1-1.3,6.6-3.8,10.5c-0.7,3.3-1.8,4.9-3.6,4.9c-0.7,2-2.3,2.9-4.7,2.9c-1,0-2.8-0.3-5.6-0.9
			c-2.8,0.6-4.6,0.9-5.6,0.9H76c-3.9,0-6.6-2.7-8.3-8.1c-1.6-3-3-7.6-4.2-13.6c0-1.1-0.1-1.6-0.2-1.8l0.4-4.2
			c-0.2-2.4-0.2-4.6-0.2-6.5v-0.9c0-6.8,0.4-10.3,1.1-10.5c-0.2-0.3-0.2-0.5-0.2-0.7c0-1.3,0.7-4.5,2-9.6c0-2,1.5-7.2,4.5-15.7
			c1.4-1.7,2.7-2.6,4-2.9c3.5-1.3,7.2-2,11-2C92,66.4,96,70,98,77.1z M83.5,77.8c-0.6,2.2-1.3,6.3-2,12.3v3.8c0,0.5-0.2,1-0.7,1.6
			v0.9c0,3.9-0.2,6.4-0.4,7.4c0.2,1,0.2,1.8,0.2,2.5v2.2c0,5.3,0.8,12.2,2.5,20.8h0.2c1.3-1.8,2.4-5.5,3.4-11.2
			c0.6-4.4,0.9-8.9,0.9-13.4c0-2.3-0.3-6.1-0.9-11.4v-1.1c0-0.6,0.1-1.5,0.2-2.5c-1.2-4.8-2.2-8.8-3.1-11.9
			C83.8,77.9,83.5,77.9,83.5,77.8z"/>
		<path class="st3" d="M130.2,59.2c4.8,0.7,8.7,1.3,11.6,1.6c1.5,1.7,2.2,3,2.2,3.8c0,3-1.7,5-5.1,6.3c-2,0.6-3.8,0.9-5.6,0.9H127
			c-0.2,0.8-0.2,1.4-0.2,1.8c1.1,4.5,1.6,7.2,1.6,8.1c-0.2,1.2-0.4,2.1-0.7,2.7c0.6,1.1,1.1,2.2,1.3,3.4l-0.4,3.4l0.9,10.1
			c-0.3,1.5-0.4,2.5-0.4,2.9c0.4,2.5,0.7,4.1,0.7,4.7c-0.3,2.2-0.4,3.9-0.4,4.9v0.9c0.3,5.9,0.4,9,0.4,9.4l-0.2,2
			c0.7,2.3,1.1,4.5,1.1,6.5v0.4c-0.4,3.3-0.7,5.3-0.7,6c0.9,3.9,1.3,6.3,1.3,7.2c0,2-3.5,3.3-10.5,4c-2.7,0-4.4-0.6-5.1-1.8
			c-2-3-2.9-10.7-2.9-23c-0.2,0-0.2-0.6-0.2-1.8c0.1-1.8,0.3-2.7,0.4-2.7l-0.2-2.2v-4.2c0-2.9-0.2-5.3-0.7-7.4l0.4-3.8
			c-0.7-5.4-1.3-16.2-1.8-32.2c-1.3-0.3-4.4-0.7-9.2-1.3c-0.9-0.7-1.3-1.4-1.3-2.2c0.3-3.6,2.1-5.5,5.4-5.6c6-1.1,11.4-1.7,16.3-2
			c0-0.2,0.2-0.2,0.7-0.2c0.3,0,0.6,0.1,0.9,0.2c1.3-0.2,2.3-0.2,3.1-0.2h2.2L130.2,59.2z"/>
		<path class="st3" d="M176.6,77.1c2.1,5,3.1,10.4,3.1,16.1c0.2,0,0.2,0.4,0.2,1.1c0,0.3-0.3,1.8-0.9,4.7c0.7,3.6,1.1,7.8,1.1,12.5
			v0.4c0,3.2-0.4,7.3-1.3,12.5c0,3.1-1.3,6.6-3.8,10.5c-0.7,3.3-1.8,4.9-3.6,4.9c-0.7,2-2.3,2.9-4.7,2.9c-1,0-2.8-0.3-5.6-0.9
			c-2.8,0.6-4.6,0.9-5.6,0.9h-0.9c-3.9,0-6.6-2.7-8.3-8.1c-1.6-3-3-7.6-4.3-13.6c0-1.1-0.1-1.6-0.2-1.8l0.4-4.2
			c-0.2-2.4-0.2-4.6-0.2-6.5v-0.9c0-6.8,0.4-10.3,1.1-10.5c-0.2-0.3-0.2-0.5-0.2-0.7c0-1.3,0.7-4.5,2-9.6c0-2,1.5-7.2,4.5-15.7
			c1.4-1.7,2.7-2.6,4-2.9c3.5-1.3,7.2-2,11-2C170.6,66.4,174.6,70,176.6,77.1z M162.1,77.8c-0.6,2.2-1.3,6.3-2,12.3v3.8
			c0,0.5-0.2,1-0.7,1.6v0.9c0,3.9-0.2,6.4-0.4,7.4c0.2,1,0.2,1.8,0.2,2.5v2.2c0,5.3,0.8,12.2,2.5,20.8h0.2c1.3-1.8,2.4-5.5,3.4-11.2
			c0.6-4.4,0.9-8.9,0.9-13.4c0-2.3-0.3-6.1-0.9-11.4v-1.1c0-0.6,0.1-1.5,0.2-2.5c-1.2-4.8-2.2-8.8-3.1-11.9
			C162.4,77.9,162.1,77.9,162.1,77.8z"/>
		<path class="st3" d="M212.2,71.3c0,0.2,1.4,2,4.3,5.1c0.4,2,1.6,5.8,3.4,11.4c-0.2,1-0.4,1.8-0.9,2.7c0.7,4,1.1,6.4,1.1,7.2v2
			c0,1-0.1,2.5-0.2,4.5h0.2c-1.1,7.7-2.7,13-4.9,16.1c-0.4,1.6-2.1,3.6-4.9,6c-0.6,2.2-2.9,3.4-6.7,3.4c-0.4,2.1-1,6.7-1.6,13.6
			c-0.2,0-0.3,0.4-0.4,1.3l0.2,1.6c0,1.7-3.1,3-9.4,4h-1.3c-3.1,0-4.7-0.7-4.7-2c-0.9-1.7-1.6-5.3-2-10.7c0-0.5,0.4-3.1,1.3-7.8
			c0-0.8-0.1-2.1-0.2-3.8c0.2-2.9,0.2-5.2,0.2-7.2c-0.6-4-0.9-8.2-0.9-12.7c0-0.3,0.1-0.6,0.2-0.9c-0.2-0.8-0.2-1.5-0.2-2V100
			c0-0.6,0.1-0.9,0.2-0.9l-0.2-1.6v-7.6c0-2,0.2-7.8,0.4-17.7c0.2,0,0.2-0.1,0.2-0.2h-0.2l0.2-0.4v-2.5c0-1.6,2.7-3.1,8.1-4.5
			c3-0.2,4.6-0.2,4.9-0.2C202.6,64.4,207.2,66.7,212.2,71.3z M201.9,76v0.2c0.7,2.6,1.2,4.5,1.3,5.6l-0.2,2c0.2,1.8,0.2,3.1,0.2,4
			l-0.2,0.9c0.3,1.4,0.8,4.8,1.6,10.1l-1.3,5.8c0,1.3,0.4,4.4,1.1,9.4v0.2c0,1.3-0.2,3.4-0.7,6.3c0.7,0,2.3-4.3,4.7-13
			c0.4,0,0.6-1.7,0.7-5.1c-0.4-7.8-1.2-13-2.2-15.4c-1.5-4.1-3.1-7.7-4.7-11C202.2,76,201.9,76,201.9,76z"/>
		<path class="st3" d="M253,71.3c0,0.2,1.4,2,4.2,5.1c0.4,2,1.6,5.8,3.4,11.4c-0.2,1-0.4,1.8-0.9,2.7c0.7,4,1.1,6.4,1.1,7.2v2
			c0,1-0.1,2.5-0.2,4.5h0.2c-1.1,7.7-2.7,13-4.9,16.1c-0.4,1.6-2.1,3.6-4.9,6c-0.6,2.2-2.9,3.4-6.7,3.4c-0.4,2.1-1,6.7-1.6,13.6
			c-0.2,0-0.3,0.4-0.4,1.3l0.2,1.6c0,1.7-3.1,3-9.4,4h-1.3c-3.1,0-4.7-0.7-4.7-2c-0.9-1.7-1.6-5.3-2-10.7c0-0.5,0.4-3.1,1.3-7.8
			c0-0.8-0.1-2.1-0.2-3.8c0.2-2.9,0.2-5.2,0.2-7.2c-0.6-4-0.9-8.2-0.9-12.7c0-0.3,0.1-0.6,0.2-0.9c-0.2-0.8-0.2-1.5-0.2-2V100
			c0-0.6,0.1-0.9,0.2-0.9l-0.2-1.6v-7.6c0-2,0.2-7.8,0.4-17.7c0.2,0,0.2-0.1,0.2-0.2h-0.2l0.2-0.4v-2.5c0-1.6,2.7-3.1,8.1-4.5
			c3-0.2,4.6-0.2,4.9-0.2C243.4,64.4,248,66.7,253,71.3z M242.7,76v0.2c0.7,2.6,1.2,4.5,1.3,5.6l-0.2,2c0.2,1.8,0.2,3.1,0.2,4
			l-0.2,0.9c0.3,1.4,0.8,4.8,1.6,10.1l-1.4,5.9c0,1.3,0.4,4.4,1.1,9.4v0.2c0,1.3-0.2,3.4-0.7,6.3c0.7,0,2.3-4.3,4.7-13
			c0.4,0,0.6-1.7,0.7-5.1c-0.4-7.8-1.2-13-2.2-15.4c-1.5-4.1-3.1-7.7-4.7-11L242.7,76L242.7,76z"/>
		<path class="st3" d="M281.2,65c0.6-0.3,1.6-0.4,2.8-0.4c3.9,0.4,7.4,0.7,10.8,0.8c2.2,1.2,3.2,2.6,3.2,4.4c-2,4-5.9,5.9-11.7,5.9
			h-2.6l-1.1,0.2v-0.2l-0.4,0.2c-0.3-0.2-0.6-0.2-0.8-0.2c-0.4,1.1-0.7,2.2-0.7,3.1v0.4c0,1.1,0.1,2.6,0.2,4.4l-1.1,3
			c0.2,2.1,0.5,3.1,0.8,3.1s1.4-0.1,3.2-0.2c5.6,1.3,8.4,2.2,8.4,2.7c0.9,0.8,1.3,1.6,1.3,2.6c-1,2.2-2.7,3.4-5.4,3.4
			c-0.4,0-2.6,0.7-6.5,2.1H281l0.2,0.4c0,0.4-0.1,0.6-0.2,0.6c0.2,1.7,0.2,2.9,0.2,3.6v3.2c0,1-0.2,3.1-0.4,6.5
			c0.2,1.1,0.4,2.1,0.9,3l-0.2,2.5v2.1c0,5.3,0.3,8.9,0.8,11c-0.2,1.5-0.2,2.6-0.2,3.4v0.4c0,0.8,0.5,1.3,1.5,1.3
			c2.6,0,5.3-0.2,8.1-0.4c3.5,0,5.2,0.8,5.2,2.5c-1.5,4.2-6.4,6.2-14.8,6c-6.6,0.5-11.2-0.1-14-1.9c-1.6-7.4-2.5-14.8-2.5-22
			c0-2.2,0.2-5,0.4-8.2c-0.3-1-0.6-3.3-0.9-6.9l0.4-4.9c-0.2-0.3-0.3-2.7-0.4-7.2l1.1-13.7c-0.3-0.9-0.4-1.5-0.4-1.9v-0.8
			c0-0.7,0.1-1.3,0.2-2.1c-0.2-1-0.3-1.6-0.4-1.9c0.2-1.2,0.2-2.2,0.2-3v-4.4c0-1.2,1.6-2.4,4.8-3.6c1.6,0,2.4-0.1,2.4-0.2
			C277.2,64.1,280,64.6,281.2,65z"/>
		<path class="st3" d="M328.9,60.3c2.6,2.6,4.5,7.9,5.8,16.1c0.2,2.6,0.2,4.2,0.2,4.7c-1.2,11.6-2.2,17.4-3.1,17.4
			c0,0.6-1.1,2.3-3.4,5.4c-2.5,2.1-4.2,3.6-4.9,4.5l-0.2,0.4c3.9,4.4,6.3,8.4,7.2,11.9c0,1,1.1,3.5,3.4,7.6c0,0.6,1.4,5,4.3,13.2
			c0.3,1.2,0.4,2.5,0.4,3.8v0.7c0,2.1-0.7,3.3-2.2,3.8c-2.1,0.6-3.7,1-4.9,1.1c-3.3,0-5.6-2-6.9-6c-0.9-2.5-2.4-5.5-4.5-9.2
			c-0.8-3.6-1.8-6.4-2.9-8.3c-0.4-1.1-0.7-1.8-0.7-2.2h-0.2c0,0.6-0.2,2.2-0.4,4.7c0.1,1.8,0.2,2.7,0.4,2.7
			c-0.3,0.6-0.4,1.8-0.4,3.6v4.2c0,0.5-0.1,1.2-0.2,2c0.6,1.6,0.9,3.1,0.9,4.5c0,1.7-1.8,2.7-5.6,3.1c-3.4,0-5.3-0.7-5.8-2
			c-2.1-7-3.1-16.5-3.1-28.6l-1.1-13l0.4-4c-0.3-2-0.4-3.9-0.4-5.8v-2c0-1.9,0.1-4,0.2-6.3c-0.2-0.6-0.2-1.2-0.2-1.8l0.4-2.7
			c-0.3-2.1-0.4-4.4-0.4-6.9c0.8-6.5,1.8-10.8,3.1-13c0.4,0,1.1-1.1,1.8-3.4c3.3-3,6.7-4.5,10.1-4.5c0.1,0,1.1-0.1,2.9-0.2
			C323.8,55.8,327.2,57.3,328.9,60.3z M313.7,72.8c0,3,0.4,6.9,1.1,11.9v1.1c0,0.5-0.1,1.2-0.2,2c0.6,2,0.9,4.6,0.9,8.1l0.2,0.9
			c3.4-3,5.1-8.9,5.1-17.9c0-7.7-1.6-12.9-4.7-15.7h-0.2c-1.3,0-2,2.9-2.2,8.5L313.7,72.8L313.7,72.8z M315.9,124.5v0.4h0.2v-0.4
			H315.9z"/>
	</g>
	<g>
		<path class="st4" d="M13.7,60.7v0.4c0,1.1-0.9,2.1-2.7,3.1c-3.9,3.2-5.8,7.3-5.8,12.5c0,3.7,3.4,9.5,10.3,17.2
			c2.2,2.9,4.1,8.6,5.6,17l0.7,4.5v0.4l-1.1,5.8c0,2.1-0.4,3.7-1.1,5.1c0,3.2-0.8,5.6-2.5,7.2c-1.3,1.7-2.1,3.2-2.5,4.5
			c-1.9,0.6-3.3,1.5-4.2,2.5c-0.8,0.6-1.5,0.9-2,0.9H6.8c-1.7,2-4.1,2.9-7.2,2.9h-1.1c-2.5,0-5.5-1.6-8.9-4.9
			c-3.6-4.4-5.4-9-5.4-13.8v-0.9c1.2-3.3,3.2-4.9,6-4.9h1.6c2,0,3.3,2,3.8,6c1.3,4.8,2.5,7.2,3.6,7.2c2.4-3.4,3.6-5.6,3.6-6.9v-8.7
			c-0.4-6.8-1.2-11.1-2.2-13c-0.7-1.2-1.2-3-1.6-5.1c-1.8-1.8-4.1-6-6.9-12.5c-1.1-2.6-1.8-7-2.2-13c0-3.9,1.5-7.2,4.5-10.1
			c1-1.7,1.7-2.9,2.2-3.6c0.8-1,3.9-1.8,9.2-2.7C11,57.8,13.7,58.7,13.7,60.7z"/>
		<path class="st4" d="M40.7,60.9c0.6-0.3,1.6-0.4,2.8-0.4c3.9,0.4,7.4,0.7,10.8,0.8c2.2,1.2,3.2,2.6,3.2,4.4c-2,4-5.9,5.9-11.7,5.9
			h-2.6l-1.1,0.2v-0.2l-0.4,0.2c-0.3-0.2-0.6-0.2-0.8-0.2c-0.4,1.1-0.7,2.2-0.7,3.1v0.4c0,1.1,0.1,2.6,0.2,4.4l-1.1,3
			c0.2,2.1,0.5,3.1,0.8,3.1s1.4-0.1,3.2-0.2c5.6,1.3,8.4,2.2,8.4,2.7c0.9,0.8,1.3,1.6,1.3,2.6c-1,2.2-2.7,3.4-5.4,3.4
			c-0.4,0-2.6,0.7-6.5,2.1h-0.8l0.2,0.4c0,0.4-0.1,0.6-0.2,0.6c0.2,1.7,0.2,2.9,0.2,3.6v3.2c0,1-0.2,3.1-0.4,6.5
			c0.2,1.1,0.4,2.1,0.9,3l-0.2,2.5v2.1c0,5.3,0.3,8.9,0.8,11c-0.2,1.5-0.2,2.6-0.2,3.4v0.4c0,0.8,0.5,1.3,1.5,1.3
			c2.6,0,5.3-0.2,8.1-0.4c3.5,0,5.2,0.8,5.2,2.5c-1.5,4.2-6.4,6.2-14.8,6c-6.6,0.5-11.2-0.1-14-1.9c-1.6-7.4-2.5-14.8-2.5-22
			c0-2.2,0.2-5,0.4-8.2c-0.3-1-0.6-3.3-0.9-6.9l0.4-4.9c-0.2-0.3-0.3-2.7-0.4-7.2l1.1-13.7c-0.3-0.9-0.4-1.5-0.4-1.9v-0.8
			c0-0.7,0.1-1.3,0.2-2.1c-0.2-1-0.3-1.6-0.4-1.9c0.2-1.2,0.2-2.2,0.2-3v-4.4c0-1.2,1.6-2.4,4.8-3.6c1.6,0,2.4-0.1,2.4-0.2
			C36.7,60,39.4,60.5,40.7,60.9z"/>
		<path class="st4" d="M94,73c2.1,5,3.1,10.4,3.1,16.1c0.2,0,0.2,0.4,0.2,1.1c0,0.3-0.3,1.8-0.9,4.7c0.7,3.6,1.1,7.8,1.1,12.5v0.4
			c0,3.2-0.4,7.3-1.3,12.5c0,3.1-1.3,6.6-3.8,10.5c-0.7,3.3-1.8,4.9-3.6,4.9c-0.7,2-2.3,2.9-4.7,2.9c-1,0-2.8-0.3-5.6-0.9
			c-2.8,0.6-4.6,0.9-5.6,0.9H72c-3.9,0-6.6-2.7-8.3-8.1c-1.6-3-3-7.6-4.2-13.6c0-1.1-0.1-1.6-0.2-1.8l0.4-4.2
			c-0.2-2.4-0.2-4.6-0.2-6.5v-0.9c0-6.8,0.4-10.3,1.1-10.5c-0.2-0.3-0.2-0.5-0.2-0.7c0-1.3,0.7-4.5,2-9.6c0-2,1.5-7.2,4.5-15.7
			c1.4-1.7,2.7-2.6,4-2.9c3.5-1.3,7.2-2,11-2C88,62.3,92,65.9,94,73z M79.5,73.8c-0.6,2.2-1.3,6.3-2,12.3v3.8c0,0.5-0.2,1-0.7,1.6
			v0.9c0,3.9-0.2,6.4-0.4,7.4c0.2,1,0.2,1.8,0.2,2.5v2.2c0,5.3,0.8,12.2,2.5,20.8h0.2c1.3-1.8,2.4-5.5,3.4-11.2
			c0.6-4.4,0.9-8.9,0.9-13.4c0-2.3-0.3-6.1-0.9-11.4v-1.1c0-0.6,0.1-1.5,0.2-2.5c-1.2-4.8-2.2-8.8-3.1-11.9
			C79.8,73.8,79.5,73.8,79.5,73.8z"/>
		<path class="st4" d="M126.2,55.1c4.8,0.7,8.7,1.3,11.6,1.6c1.5,1.7,2.2,3,2.2,3.8c0,3-1.7,5-5.1,6.3c-2,0.6-3.8,0.9-5.6,0.9H123
			c-0.2,0.8-0.2,1.4-0.2,1.8c1.1,4.5,1.6,7.2,1.6,8.1c-0.2,1.2-0.4,2.1-0.7,2.7c0.6,1.1,1.1,2.2,1.3,3.4l-0.4,3.4l0.9,10.1
			c-0.3,1.5-0.4,2.5-0.4,2.9c0.4,2.5,0.7,4.1,0.7,4.7c-0.3,2.2-0.4,3.9-0.4,4.9v0.9c0.3,5.9,0.4,9,0.4,9.4l-0.2,2
			c0.7,2.3,1.1,4.5,1.1,6.5v0.4c-0.4,3.3-0.7,5.3-0.7,6c0.9,3.9,1.3,6.3,1.3,7.2c0,2-3.5,3.3-10.5,4c-2.7,0-4.4-0.6-5.1-1.8
			c-2-3-2.9-10.7-2.9-23c-0.2,0-0.2-0.6-0.2-1.8c0.1-1.8,0.3-2.7,0.4-2.7l-0.2-2.2v-4.2c0-2.9-0.2-5.3-0.7-7.4l0.4-3.8
			c-0.7-5.4-1.3-16.2-1.8-32.2c-1.3-0.3-4.4-0.7-9.2-1.3c-0.9-0.7-1.3-1.4-1.3-2.2c0.3-3.6,2.1-5.5,5.4-5.6c6-1.1,11.4-1.7,16.3-2
			c0-0.2,0.2-0.2,0.7-0.2c0.3,0,0.6,0.1,0.9,0.2c1.3-0.2,2.3-0.2,3.1-0.2h2.2L126.2,55.1z"/>
		<path class="st4" d="M172.6,73c2.1,5,3.1,10.4,3.1,16.1c0.2,0,0.2,0.4,0.2,1.1c0,0.3-0.3,1.8-0.9,4.7c0.7,3.6,1.1,7.8,1.1,12.5
			v0.4c0,3.2-0.4,7.3-1.3,12.5c0,3.1-1.3,6.6-3.8,10.5c-0.7,3.3-1.8,4.9-3.6,4.9c-0.7,2-2.3,2.9-4.7,2.9c-1,0-2.8-0.3-5.6-0.9
			c-2.8,0.6-4.6,0.9-5.6,0.9h-0.9c-3.9,0-6.6-2.7-8.3-8.1c-1.6-3-3-7.6-4.3-13.6c0-1.1-0.1-1.6-0.2-1.8l0.4-4.2
			c-0.2-2.4-0.2-4.6-0.2-6.5v-0.9c0-6.8,0.4-10.3,1.1-10.5c-0.2-0.3-0.2-0.5-0.2-0.7c0-1.3,0.7-4.5,2-9.6c0-2,1.5-7.2,4.5-15.7
			c1.4-1.7,2.7-2.6,4-2.9c3.5-1.3,7.2-2,11-2C166.6,62.3,170.6,65.9,172.6,73z M158.1,73.8c-0.6,2.2-1.3,6.3-2,12.3v3.8
			c0,0.5-0.2,1-0.7,1.6v0.9c0,3.9-0.2,6.4-0.4,7.4c0.2,1,0.2,1.8,0.2,2.5v2.2c0,5.3,0.8,12.2,2.5,20.8h0.2c1.3-1.8,2.4-5.5,3.4-11.2
			c0.6-4.4,0.9-8.9,0.9-13.4c0-2.3-0.3-6.1-0.9-11.4v-1.1c0-0.6,0.1-1.5,0.2-2.5c-1.2-4.8-2.2-8.8-3.1-11.9
			C158.4,73.8,158.1,73.8,158.1,73.8z"/>
		<path class="st4" d="M208.2,67.2c0,0.2,1.4,2,4.3,5.1c0.4,2,1.6,5.8,3.4,11.4c-0.2,1-0.4,1.8-0.9,2.7c0.7,4,1.1,6.4,1.1,7.2v2
			c0,1-0.1,2.5-0.2,4.5h0.2c-1.1,7.7-2.7,13-4.9,16.1c-0.4,1.6-2.1,3.6-4.9,6c-0.6,2.2-2.9,3.4-6.7,3.4c-0.4,2.1-1,6.7-1.6,13.6
			c-0.2,0-0.3,0.4-0.4,1.3l0.2,1.6c0,1.7-3.1,3-9.4,4h-1.3c-3.1,0-4.7-0.7-4.7-2c-0.9-1.7-1.6-5.3-2-10.7c0-0.5,0.4-3.1,1.3-7.8
			c0-0.8-0.1-2.1-0.2-3.8c0.2-2.9,0.2-5.2,0.2-7.2c-0.6-4-0.9-8.2-0.9-12.7c0-0.3,0.1-0.6,0.2-0.9c-0.2-0.8-0.2-1.5-0.2-2v-3.1
			c0-0.6,0.1-0.9,0.2-0.9l-0.2-1.6v-7.6c0-2,0.2-7.8,0.4-17.7c0.2,0,0.2-0.1,0.2-0.2h-0.2l0.2-0.4V65c0-1.6,2.7-3.1,8.1-4.5
			c3-0.2,4.6-0.2,4.9-0.2C198.6,60.3,203.2,62.6,208.2,67.2z M197.9,71.9v0.2c0.7,2.6,1.2,4.5,1.3,5.6l-0.2,2c0.2,1.8,0.2,3.1,0.2,4
			l-0.2,0.9c0.3,1.4,0.8,4.8,1.6,10.1l-1.3,5.8c0,1.3,0.4,4.4,1.1,9.4v0.2c0,1.3-0.2,3.4-0.7,6.3c0.7,0,2.3-4.3,4.7-13
			c0.4,0,0.6-1.7,0.7-5.1c-0.4-7.8-1.2-13-2.2-15.4c-1.5-4.1-3.1-7.7-4.7-11C198.2,71.9,197.9,71.9,197.9,71.9z"/>
		<path class="st4" d="M249,67.2c0,0.2,1.4,2,4.2,5.1c0.4,2,1.6,5.8,3.4,11.4c-0.2,1-0.4,1.8-0.9,2.7c0.7,4,1.1,6.4,1.1,7.2v2
			c0,1-0.1,2.5-0.2,4.5h0.2c-1.1,7.7-2.7,13-4.9,16.1c-0.4,1.6-2.1,3.6-4.9,6c-0.6,2.2-2.9,3.4-6.7,3.4c-0.4,2.1-1,6.7-1.6,13.6
			c-0.2,0-0.3,0.4-0.4,1.3l0.2,1.6c0,1.7-3.1,3-9.4,4h-1.3c-3.1,0-4.7-0.7-4.7-2c-0.9-1.7-1.6-5.3-2-10.7c0-0.5,0.4-3.1,1.3-7.8
			c0-0.8-0.1-2.1-0.2-3.8c0.2-2.9,0.2-5.2,0.2-7.2c-0.6-4-0.9-8.2-0.9-12.7c0-0.3,0.1-0.6,0.2-0.9c-0.2-0.8-0.2-1.5-0.2-2v-3.1
			c0-0.6,0.1-0.9,0.2-0.9l-0.2-1.6v-7.6c0-2,0.2-7.8,0.4-17.7c0.2,0,0.2-0.1,0.2-0.2h-0.2l0.2-0.4V65c0-1.6,2.7-3.1,8.1-4.5
			c3-0.2,4.6-0.2,4.9-0.2C239.4,60.3,244,62.6,249,67.2z M238.7,71.9v0.2c0.7,2.6,1.2,4.5,1.3,5.6l-0.2,2c0.2,1.8,0.2,3.1,0.2,4
			l-0.2,0.9c0.3,1.4,0.8,4.8,1.6,10.1l-1.4,5.9c0,1.3,0.4,4.4,1.1,9.4v0.2c0,1.3-0.2,3.4-0.7,6.3c0.7,0,2.3-4.3,4.7-13
			c0.4,0,0.6-1.7,0.7-5.1c-0.4-7.8-1.2-13-2.2-15.4c-1.5-4.1-3.1-7.7-4.7-11L238.7,71.9L238.7,71.9z"/>
		<path class="st4" d="M277.2,60.9c0.6-0.3,1.6-0.4,2.8-0.4c3.9,0.4,7.4,0.7,10.8,0.8c2.2,1.2,3.2,2.6,3.2,4.4
			c-2,4-5.9,5.9-11.7,5.9h-2.6l-1.1,0.2v-0.2l-0.4,0.2c-0.3-0.2-0.6-0.2-0.8-0.2c-0.4,1.1-0.7,2.2-0.7,3.1v0.4
			c0,1.1,0.1,2.6,0.2,4.4l-1.1,3c0.2,2.1,0.5,3.1,0.8,3.1s1.4-0.1,3.2-0.2c5.6,1.3,8.4,2.2,8.4,2.7c0.9,0.8,1.3,1.6,1.3,2.6
			c-1,2.2-2.7,3.4-5.4,3.4c-0.4,0-2.6,0.7-6.5,2.1H277l0.2,0.4c0,0.4-0.1,0.6-0.2,0.6c0.2,1.7,0.2,2.9,0.2,3.6v3.2
			c0,1-0.2,3.1-0.4,6.5c0.2,1.1,0.4,2.1,0.9,3l-0.2,2.5v2.1c0,5.3,0.3,8.9,0.8,11c-0.2,1.5-0.2,2.6-0.2,3.4v0.4
			c0,0.8,0.5,1.3,1.5,1.3c2.6,0,5.3-0.2,8.1-0.4c3.5,0,5.2,0.8,5.2,2.5c-1.5,4.2-6.4,6.2-14.8,6c-6.6,0.5-11.2-0.1-14-1.9
			c-1.6-7.4-2.5-14.8-2.5-22c0-2.2,0.2-5,0.4-8.2c-0.3-1-0.6-3.3-0.9-6.9l0.4-4.9c-0.2-0.3-0.3-2.7-0.4-7.2l1.1-13.7
			c-0.3-0.9-0.4-1.5-0.4-1.9v-0.8c0-0.7,0.1-1.3,0.2-2.1c-0.2-1-0.3-1.6-0.4-1.9c0.2-1.2,0.2-2.2,0.2-3v-4.4c0-1.2,1.6-2.4,4.8-3.6
			c1.6,0,2.4-0.1,2.4-0.2C273.2,60,276,60.5,277.2,60.9z"/>
		<path class="st4" d="M324.9,56.2c2.6,2.6,4.5,7.9,5.8,16.1c0.2,2.6,0.2,4.2,0.2,4.7c-1.2,11.6-2.2,17.4-3.1,17.4
			c0,0.6-1.1,2.3-3.4,5.4c-2.5,2.1-4.2,3.6-4.9,4.5l-0.2,0.4c3.9,4.4,6.3,8.4,7.2,11.9c0,1,1.1,3.5,3.4,7.6c0,0.6,1.4,5,4.3,13.2
			c0.3,1.2,0.4,2.5,0.4,3.8v0.7c0,2.1-0.7,3.3-2.2,3.8c-2.1,0.6-3.7,1-4.9,1.1c-3.3,0-5.6-2-6.9-6c-0.9-2.5-2.4-5.5-4.5-9.2
			c-0.8-3.6-1.8-6.4-2.9-8.3c-0.4-1.1-0.7-1.8-0.7-2.2h-0.2c0,0.6-0.2,2.2-0.4,4.7c0.1,1.8,0.2,2.7,0.4,2.7
			c-0.3,0.6-0.4,1.8-0.4,3.6v4.2c0,0.5-0.1,1.2-0.2,2c0.6,1.6,0.9,3.1,0.9,4.5c0,1.7-1.8,2.7-5.6,3.1c-3.4,0-5.3-0.7-5.8-2
			c-2.1-7-3.1-16.5-3.1-28.6l-1.1-13l0.4-4c-0.3-2-0.4-3.9-0.4-5.8v-2c0-1.9,0.1-4,0.2-6.3c-0.2-0.6-0.2-1.2-0.2-1.8l0.4-2.7
			c-0.3-2.1-0.4-4.4-0.4-6.9c0.8-6.5,1.8-10.8,3.1-13c0.4,0,1.1-1.1,1.8-3.4c3.3-3,6.7-4.5,10.1-4.5c0.1,0,1.1-0.1,2.9-0.2
			C319.8,51.7,323.2,53.2,324.9,56.2z M309.7,68.8c0,3,0.4,6.9,1.1,11.9v1.1c0,0.5-0.1,1.2-0.2,2c0.6,2,0.9,4.6,0.9,8.1l0.2,0.9
			c3.4-3,5.1-8.9,5.1-17.9c0-7.7-1.6-12.9-4.7-15.7h-0.2c-1.3,0-2,2.9-2.2,8.5L309.7,68.8L309.7,68.8z M311.9,120.4v0.4h0.2v-0.4
			H311.9z"/>
	</g>
</g>
</svg>
