<?xml version="1.0" encoding="utf-8"?>
<!-- Generator: Adobe Illustrator 19.1.0, SVG Export Plug-In . SVG Version: 6.00 Build 0)  -->
<svg version="1.1" id="Camada_1" xmlns="http://www.w3.org/2000/svg" xmlns:xlink="http://www.w3.org/1999/xlink" x="0px" y="0px"
	 viewBox="0 0 400 200" style="enable-background:new 0 0 400 200;" xml:space="preserve">
<style type="text/css">
	.st0{display:none;fill:#EBA352;}
	.st1{fill:#FFDD67;}
	.st2{fill:#EBA352;}
</style>
<rect x="135.3" y="48" class="st0" width="129.3" height="52.7"/>
<g>
	<path class="st1" d="M27,137.7l-3.5,2.5c0,0-1.8-5-3.1-8.1c-0.6-1.3-2.3-1.7-3.1-3.5c-1.4-3.1,0.2-5.8,1.9-3.9
		c1.9,2.2,4.7,3.9,5.2,5.2C25.3,132.1,27,137.7,27,137.7z"/>
	<path class="st1" d="M29.8,139.7c0.2,1.7,0,4.4-1.4,7.5c0,0-3.1-3.7-3.4-5.3c0,0-0.9-6.4-1.7-10.5c-0.4-1.7-2.3-2.6-2.8-5
		c-0.9-4.1,1.7-6.9,3.2-4.2c1.7,3.2,4.6,5.8,5,7.5C29.2,132.6,29.4,137.2,29.8,139.7z"/>
	<path class="st2" d="M25.2,136.5c0,0-0.3-2.4-1.2-6.5c-0.4-1.7-2.3-2.6-2.8-5c-0.3-1.4-0.2-2.7,0.1-3.6c-0.9,0.7-1.7,2.6-1.2,5
		c0.5,2.3,2.5,3.3,2.8,5c0.2,1.2,0.5,2.4,0.7,3.6l-2.7-1C21.1,134,25.2,136.5,25.2,136.5z"/>
	<path class="st1" d="M28.5,139.1c-3.6-3.2-7.5-5.2-10.1-6.5c-3.8-1.9-2.8,0.7-9.3,2.4c-0.9,0.2-1.9,0.8-1.1,2.5
		c0.8,1.6,6.9,0.4,7.8-0.6c0,0,2.6,3.1,5.1,3.1c0,0-0.4,2.1,0.2,3.1c0,0-3.6,1.9-5.2,3.5l-4.3-2.9c-0.3-4.5-1.1-5.8-3.3-5.6
		c-2,0.2-1.8,2.1-1.8,3.7c0.1,2.8-0.7,3.3,0,4.4c2.7,4.3,6,7,12.2,7c2.3,0,3.8-0.1,5.2-0.8C26.5,151.4,32.4,142.7,28.5,139.1z"/>
	<path class="st2" d="M29.2,139.9c1.3,4.1-3.4,10.8-5.5,11.8c-1.4,0.7-2.9,0.8-5.2,0.8c-6.2,0-9.5-2.6-12.1-6.9
		c0.1,0.2,0.2,0.5,0.3,0.7c2.7,4.3,6,7,12.2,7c2.3,0,3.8-0.1,5.2-0.8C26.3,151.5,31.6,143.9,29.2,139.9z"/>
	<path class="st2" d="M10.9,143.9c0,0,4,2.6,5,2.7l-4.2-2.9c0.2-4.5-1.2-5.9-3.3-5.6c-0.2,0-0.3,0.1-0.5,0.1
		C10,138.1,11.1,139.5,10.9,143.9z"/>
	<path class="st2" d="M15.9,137c0,0,2.6,3.1,5.1,3.1v-0.6c-2.6,0.1-5.1-3.1-5.1-3.1c-1,0.9-7.1,2.1-7.8,0.6
		c-0.1-0.2-0.2-0.5-0.2-0.7c-0.1,0.3,0,0.8,0.2,1.3C8.8,139.1,14.9,137.9,15.9,137z"/>
</g>
<g>
	<path class="st1" d="M74,174.4l-3.5,2.5c0,0-1.8-5-3.1-8.1c-0.6-1.3-2.3-1.7-3.1-3.5c-1.4-3.1,0.2-5.8,1.9-3.9
		c1.9,2.2,4.7,3.9,5.2,5.2C72.3,168.8,74,174.4,74,174.4z"/>
	<path class="st1" d="M76.8,176.5c0.2,1.7,0,4.4-1.4,7.5c0,0-3.1-3.7-3.4-5.3c0,0-0.9-6.4-1.7-10.5c-0.4-1.7-2.3-2.6-2.8-5
		c-0.9-4.1,1.7-6.9,3.2-4.2c1.7,3.2,4.6,5.8,5,7.5C76.2,169.3,76.4,174,76.8,176.5z"/>
	<path class="st2" d="M72.2,173.3c0,0-0.3-2.4-1.2-6.5c-0.4-1.7-2.3-2.6-2.8-5c-0.3-1.4-0.2-2.7,0.1-3.6c-0.9,0.7-1.7,2.6-1.2,5
		c0.5,2.3,2.5,3.3,2.8,5c0.2,1.2,0.5,2.4,0.7,3.6l-2.7-1C68.1,170.7,72.2,173.3,72.2,173.3z"/>
	<path class="st1" d="M75.5,175.8c-3.6-3.2-7.5-5.2-10.1-6.5c-3.8-1.9-2.8,0.7-9.3,2.4c-0.9,0.2-1.9,0.8-1.1,2.5
		c0.8,1.6,6.9,0.4,7.8-0.6c0,0,2.6,3.1,5.1,3.1c0,0-0.4,2.1,0.2,3.1c0,0-3.6,1.9-5.2,3.5l-4.3-2.9c-0.3-4.5-1.1-5.8-3.3-5.6
		c-2,0.2-1.8,2.1-1.8,3.7c0.1,2.8-0.7,3.3,0,4.4c2.7,4.3,6,7,12.2,7c2.3,0,3.8-0.1,5.2-0.8C73.5,188.1,79.4,179.4,75.5,175.8z"/>
	<path class="st2" d="M76.2,176.7c1.3,4.1-3.4,10.8-5.5,11.8c-1.4,0.7-2.9,0.8-5.2,0.8c-6.2,0-9.5-2.6-12.1-6.9
		c0.1,0.2,0.2,0.5,0.3,0.7c2.7,4.3,6,7,12.2,7c2.3,0,3.8-0.1,5.2-0.8C73.3,188.2,78.6,180.6,76.2,176.7z"/>
	<path class="st2" d="M57.9,180.7c0,0,4,2.6,5,2.7l-4.2-2.9c0.2-4.5-1.2-5.9-3.3-5.6c-0.2,0-0.3,0.1-0.5,0.1
		C57,174.8,58.1,176.3,57.9,180.7z"/>
	<path class="st2" d="M62.9,173.7c0,0,2.6,3.1,5.1,3.1v-0.6c-2.6,0.1-5.1-3.1-5.1-3.1c-1,0.9-7.1,2.1-7.8,0.6
		c-0.1-0.2-0.2-0.5-0.2-0.7c-0.1,0.3,0,0.8,0.2,1.3C55.8,175.8,61.9,174.6,62.9,173.7z"/>
</g>
<g>
	<path class="st1" d="M121.5,135.7l-3.5,2.5c0,0-1.8-5-3.1-8.1c-0.6-1.3-2.3-1.7-3.1-3.5c-1.4-3.1,0.2-5.8,1.9-3.9
		c1.9,2.2,4.7,3.9,5.2,5.2C119.8,130.1,121.5,135.7,121.5,135.7z"/>
	<path class="st1" d="M124.3,137.7c0.2,1.7,0,4.4-1.4,7.5c0,0-3.1-3.7-3.4-5.3c0,0-0.9-6.4-1.7-10.5c-0.4-1.7-2.3-2.6-2.8-5
		c-0.9-4.1,1.7-6.9,3.2-4.2c1.7,3.2,4.6,5.8,5,7.5C123.7,130.6,123.9,135.2,124.3,137.7z"/>
	<path class="st2" d="M119.7,134.5c0,0-0.3-2.4-1.2-6.5c-0.4-1.7-2.3-2.6-2.8-5c-0.3-1.4-0.2-2.7,0.1-3.6c-0.9,0.7-1.7,2.6-1.2,5
		c0.5,2.3,2.5,3.3,2.8,5c0.2,1.2,0.5,2.4,0.7,3.6l-2.7-1C115.6,132,119.7,134.5,119.7,134.5z"/>
	<path class="st1" d="M123,137.1c-3.6-3.2-7.5-5.2-10.1-6.5c-3.8-1.9-2.8,0.7-9.3,2.4c-0.9,0.2-1.9,0.8-1.1,2.5
		c0.8,1.6,6.9,0.4,7.8-0.6c0,0,2.6,3.1,5.1,3.1c0,0-0.4,2.1,0.2,3.1c0,0-3.6,1.9-5.2,3.5l-4.3-2.9c-0.3-4.5-1.1-5.8-3.3-5.6
		c-2,0.2-1.8,2.1-1.8,3.7c0.1,2.8-0.7,3.3,0,4.4c2.7,4.3,6,7,12.2,7c2.3,0,3.8-0.1,5.2-0.8C121,149.4,126.9,140.7,123,137.1z"/>
	<path class="st2" d="M123.7,137.9c1.3,4.1-3.4,10.8-5.5,11.8c-1.4,0.7-2.9,0.8-5.2,0.8c-6.2,0-9.5-2.6-12.1-6.9
		c0.1,0.2,0.2,0.5,0.3,0.7c2.7,4.3,6,7,12.2,7c2.3,0,3.8-0.1,5.2-0.8C120.8,149.5,126.1,141.9,123.7,137.9z"/>
	<path class="st2" d="M105.4,141.9c0,0,4,2.6,5,2.7l-4.2-2.9c0.2-4.5-1.2-5.9-3.3-5.6c-0.2,0-0.3,0.1-0.5,0.1
		C104.5,136.1,105.6,137.5,105.4,141.9z"/>
	<path class="st2" d="M110.4,135c0,0,2.6,3.1,5.1,3.1v-0.6c-2.6,0.1-5.1-3.1-5.1-3.1c-1,0.9-7.1,2.1-7.8,0.6
		c-0.1-0.2-0.2-0.5-0.2-0.7c-0.1,0.3,0,0.8,0.2,1.3C103.3,137.1,109.4,135.9,110.4,135z"/>
</g>
<g>
	<path class="st1" d="M166.2,179.7l-3.5,2.5c0,0-1.8-5-3.1-8.1c-0.6-1.3-2.3-1.7-3.1-3.5c-1.4-3.1,0.2-5.8,1.9-3.9
		c1.9,2.2,4.7,3.9,5.2,5.2C164.6,174.1,166.2,179.7,166.2,179.7z"/>
	<path class="st1" d="M169,181.7c0.2,1.7,0,4.4-1.4,7.5c0,0-3.1-3.7-3.4-5.3c0,0-0.9-6.4-1.7-10.5c-0.4-1.7-2.3-2.6-2.8-5
		c-0.9-4.1,1.7-6.9,3.2-4.2c1.7,3.2,4.6,5.8,5,7.5C168.4,174.6,168.7,179.2,169,181.7z"/>
	<path class="st2" d="M164.5,178.5c0,0-0.3-2.4-1.2-6.5c-0.4-1.7-2.3-2.6-2.8-5c-0.3-1.4-0.2-2.7,0.1-3.6c-0.9,0.7-1.7,2.6-1.2,5
		c0.5,2.3,2.5,3.3,2.8,5c0.2,1.2,0.5,2.4,0.7,3.6l-2.7-1C160.3,176,164.5,178.5,164.5,178.5z"/>
	<path class="st1" d="M167.7,181.1c-3.6-3.2-7.5-5.2-10.1-6.5c-3.8-1.9-2.8,0.7-9.3,2.4c-0.9,0.2-1.9,0.8-1.1,2.5
		c0.8,1.6,6.9,0.4,7.8-0.6c0,0,2.6,3.1,5.1,3.1c0,0-0.4,2.1,0.2,3.1c0,0-3.6,1.9-5.2,3.5l-4.3-2.9c-0.3-4.5-1.1-5.8-3.3-5.6
		c-2,0.2-1.8,2.1-1.8,3.7c0.1,2.8-0.7,3.3,0,4.4c2.7,4.3,6,7,12.2,7c2.3,0,3.8-0.1,5.2-0.8C165.7,193.4,171.7,184.7,167.7,181.1z"/>
	<path class="st2" d="M168.4,181.9c1.3,4.1-3.4,10.8-5.5,11.8c-1.4,0.7-2.9,0.8-5.2,0.8c-6.2,0-9.5-2.6-12.1-6.9
		c0.1,0.2,0.2,0.5,0.3,0.7c2.7,4.3,6,7,12.2,7c2.3,0,3.8-0.1,5.2-0.8C165.5,193.5,170.8,185.9,168.4,181.9z"/>
	<path class="st2" d="M150.2,185.9c0,0,4,2.6,5,2.7l-4.2-2.9c0.2-4.5-1.2-5.9-3.3-5.6c-0.2,0-0.3,0.1-0.5,0.1
		C149.3,180.1,150.3,181.5,150.2,185.9z"/>
	<path class="st2" d="M155.1,179c0,0,2.6,3.1,5.1,3.1v-0.6c-2.6,0.1-5.1-3.1-5.1-3.1c-1,0.9-7.1,2.1-7.8,0.6
		c-0.1-0.2-0.2-0.5-0.2-0.7c-0.1,0.3,0,0.8,0.2,1.3C148,181.1,154.2,179.9,155.1,179z"/>
</g>
<g>
	<path class="st1" d="M178.7,129.2l-3.5,2.5c0,0-1.8-5-3.1-8.1c-0.6-1.3-2.3-1.7-3.1-3.5c-1.4-3.1,0.2-5.8,1.9-3.9
		c1.9,2.2,4.7,3.9,5.2,5.2C177.1,123.6,178.7,129.2,178.7,129.2z"/>
	<path class="st1" d="M181.5,131.2c0.2,1.7,0,4.4-1.4,7.5c0,0-3.1-3.7-3.4-5.3c0,0-0.9-6.4-1.7-10.5c-0.4-1.7-2.3-2.6-2.8-5
		c-0.9-4.1,1.7-6.9,3.2-4.2c1.7,3.2,4.6,5.8,5,7.5C180.9,124.1,181.2,128.7,181.5,131.2z"/>
	<path class="st2" d="M177,128c0,0-0.3-2.4-1.2-6.5c-0.4-1.7-2.3-2.6-2.8-5c-0.3-1.4-0.2-2.7,0.1-3.6c-0.9,0.7-1.7,2.6-1.2,5
		c0.5,2.3,2.5,3.3,2.8,5c0.2,1.2,0.5,2.4,0.7,3.6l-2.7-1C172.8,125.5,177,128,177,128z"/>
	<path class="st1" d="M180.2,130.6c-3.6-3.2-7.5-5.2-10.1-6.5c-3.8-1.9-2.8,0.7-9.3,2.4c-0.9,0.2-1.9,0.8-1.1,2.5
		c0.8,1.6,6.9,0.4,7.8-0.6c0,0,2.6,3.1,5.1,3.1c0,0-0.4,2.1,0.2,3.1c0,0-3.6,1.9-5.2,3.5l-4.3-2.9c-0.3-4.5-1.1-5.8-3.3-5.6
		c-2,0.2-1.8,2.1-1.8,3.7c0.1,2.8-0.7,3.3,0,4.4c2.7,4.3,6,7,12.2,7c2.3,0,3.8-0.1,5.2-0.8C178.2,142.9,184.2,134.2,180.2,130.6z"/>
	<path class="st2" d="M180.9,131.4c1.3,4.1-3.4,10.8-5.5,11.8c-1.4,0.7-2.9,0.8-5.2,0.8c-6.2,0-9.5-2.6-12.1-6.9
		c0.1,0.2,0.2,0.5,0.3,0.7c2.7,4.3,6,7,12.2,7c2.3,0,3.8-0.1,5.2-0.8C178,143,183.3,135.4,180.9,131.4z"/>
	<path class="st2" d="M162.7,135.4c0,0,4,2.6,5,2.7l-4.2-2.9c0.2-4.5-1.2-5.9-3.3-5.6c-0.2,0-0.3,0.1-0.5,0.1
		C161.8,129.6,162.8,131,162.7,135.4z"/>
	<path class="st2" d="M167.6,128.5c0,0,2.6,3.1,5.1,3.1v-0.6c-2.6,0.1-5.1-3.1-5.1-3.1c-1,0.9-7.1,2.1-7.8,0.6
		c-0.1-0.2-0.2-0.5-0.2-0.7c-0.1,0.3,0,0.8,0.2,1.3C160.5,130.6,166.7,129.4,167.6,128.5z"/>
</g>
<g>
	<path class="st1" d="M214.6,156.3l-4.7,3.3c0,0-2.3-6.6-4.1-10.7c-0.7-1.7-3-2.3-4.1-4.7c-1.8-4.1,0.3-7.7,2.5-5.1
		c2.5,3,6.2,5.2,6.9,6.9C212.4,148.9,214.6,156.3,214.6,156.3z"/>
	<path class="st1" d="M218.4,159c0.3,2.2,0,5.8-1.9,9.9c0,0-4.1-4.9-4.5-7.1c0,0-1.2-8.5-2.3-13.9c-0.5-2.2-3-3.5-3.7-6.6
		c-1.2-5.4,2.3-9.2,4.3-5.5c2.3,4.2,6.1,7.7,6.6,10C217.6,149.5,217.9,155.7,218.4,159z"/>
	<path class="st2" d="M212.3,154.8c0,0-0.4-3.2-1.5-8.6c-0.5-2.2-3-3.5-3.7-6.6c-0.4-1.9-0.3-3.5,0.2-4.8c-1.2,0.9-2.2,3.5-1.5,6.6
		c0.7,3.1,3.3,4.4,3.7,6.6c0.3,1.6,0.6,3.2,0.9,4.7l-3.6-1.3C206.8,151.4,212.3,154.8,212.3,154.8z"/>
	<path class="st1" d="M216.6,158.2c-4.7-4.3-10-6.9-13.4-8.6c-5-2.5-3.7,0.9-12.3,3.2c-1.1,0.3-2.5,1.1-1.5,3.3
		c1,2.1,9.1,0.5,10.4-0.7c0,0,3.4,4.2,6.8,4.1c0,0-0.6,2.8,0.2,4.1c0,0-4.8,2.5-6.9,4.7l-5.7-3.8c-0.4-5.9-1.5-7.7-4.4-7.4
		c-2.7,0.3-2.4,2.8-2.4,4.9c0.1,3.8-0.9,4.4,0,5.9c3.5,5.7,8,9.3,16.2,9.3c3.1,0,5.1-0.1,6.9-1C213.9,174.5,221.8,162.9,216.6,158.2
		z"/>
	<path class="st2" d="M217.6,159.3c1.8,5.4-4.5,14.3-7.3,15.7c-1.9,0.9-3.9,1-6.9,1c-8.2,0-12.6-3.5-16.1-9.1
		c0.1,0.3,0.2,0.6,0.4,0.9c3.5,5.7,8,9.3,16.2,9.3c3.1,0,5.1-0.1,6.9-1C213.7,174.6,220.7,164.5,217.6,159.3z"/>
	<path class="st2" d="M193.3,164.6c0,0,5.3,3.4,6.6,3.6l-5.6-3.8c0.2-6-1.5-7.9-4.4-7.4c-0.2,0-0.4,0.1-0.6,0.1
		C192.2,156.8,193.6,158.7,193.3,164.6z"/>
	<path class="st2" d="M199.9,155.4c0,0,3.4,4.2,6.8,4.1v-0.8c-3.4,0.1-6.8-4.1-6.8-4.1c-1.3,1.2-9.4,2.8-10.4,0.7
		c-0.2-0.3-0.3-0.6-0.3-1c-0.1,0.5,0,1,0.3,1.8C190.5,158.2,198.6,156.6,199.9,155.4z"/>
</g>
<g>
	<path class="st1" d="M273.7,127.4l-3.5,2.5c0,0-1.8-5-3.1-8.1c-0.6-1.3-2.3-1.7-3.1-3.5c-1.4-3.1,0.2-5.8,1.9-3.9
		c1.9,2.2,4.7,3.9,5.2,5.2C272.1,121.8,273.7,127.4,273.7,127.4z"/>
	<path class="st1" d="M276.5,129.5c0.2,1.7,0,4.4-1.4,7.5c0,0-3.1-3.7-3.4-5.3c0,0-0.9-6.4-1.7-10.5c-0.4-1.7-2.3-2.6-2.8-5
		c-0.9-4.1,1.7-6.9,3.2-4.2c1.7,3.2,4.6,5.8,5,7.5C275.9,122.3,276.2,127,276.5,129.5z"/>
	<path class="st2" d="M272,126.3c0,0-0.3-2.4-1.2-6.5c-0.4-1.7-2.3-2.6-2.8-5c-0.3-1.4-0.2-2.7,0.1-3.6c-0.9,0.7-1.7,2.6-1.2,5
		c0.5,2.3,2.5,3.3,2.8,5c0.2,1.2,0.5,2.4,0.7,3.6l-2.7-1C267.8,123.7,272,126.3,272,126.3z"/>
	<path class="st1" d="M275.2,128.8c-3.6-3.2-7.5-5.2-10.1-6.5c-3.8-1.9-2.8,0.7-9.3,2.4c-0.9,0.2-1.9,0.8-1.1,2.5
		c0.8,1.6,6.9,0.4,7.8-0.6c0,0,2.6,3.1,5.1,3.1c0,0-0.4,2.1,0.2,3.1c0,0-3.6,1.9-5.2,3.5l-4.3-2.9c-0.3-4.5-1.1-5.8-3.3-5.6
		c-2,0.2-1.8,2.1-1.8,3.7c0.1,2.8-0.7,3.3,0,4.4c2.7,4.3,6,7,12.2,7c2.3,0,3.8-0.1,5.2-0.8C273.2,141.1,279.2,132.4,275.2,128.8z"/>
	<path class="st2" d="M275.9,129.7c1.3,4.1-3.4,10.8-5.5,11.8c-1.4,0.7-2.9,0.8-5.2,0.8c-6.2,0-9.5-2.6-12.1-6.9
		c0.1,0.2,0.2,0.5,0.3,0.7c2.7,4.3,6,7,12.2,7c2.3,0,3.8-0.1,5.2-0.8C273,141.2,278.3,133.6,275.9,129.7z"/>
	<path class="st2" d="M257.7,133.7c0,0,4,2.6,5,2.7l-4.2-2.9c0.2-4.5-1.2-5.9-3.3-5.6c-0.2,0-0.3,0.1-0.5,0.1
		C256.8,127.8,257.8,129.3,257.7,133.7z"/>
	<path class="st2" d="M262.6,126.7c0,0,2.6,3.1,5.1,3.1v-0.6c-2.6,0.1-5.1-3.1-5.1-3.1c-1,0.9-7.1,2.1-7.8,0.6
		c-0.1-0.2-0.2-0.5-0.2-0.7c-0.1,0.3,0,0.8,0.2,1.3C255.5,128.8,261.7,127.6,262.6,126.7z"/>
</g>
<g>
	<path class="st1" d="M257.7,170.9l-3.5,2.5c0,0-1.8-5-3.1-8.1c-0.6-1.3-2.3-1.7-3.1-3.5c-1.4-3.1,0.2-5.8,1.9-3.9
		c1.9,2.2,4.7,3.9,5.2,5.2C256.1,165.3,257.7,170.9,257.7,170.9z"/>
	<path class="st1" d="M260.5,173c0.2,1.7,0,4.4-1.4,7.5c0,0-3.1-3.7-3.4-5.3c0,0-0.9-6.4-1.7-10.5c-0.4-1.7-2.3-2.6-2.8-5
		c-0.9-4.1,1.7-6.9,3.2-4.2c1.7,3.2,4.6,5.8,5,7.5C259.9,165.8,260.2,170.5,260.5,173z"/>
	<path class="st2" d="M256,169.8c0,0-0.3-2.4-1.2-6.5c-0.4-1.7-2.3-2.6-2.8-5c-0.3-1.4-0.2-2.7,0.1-3.6c-0.9,0.7-1.7,2.6-1.2,5
		c0.5,2.3,2.5,3.3,2.8,5c0.2,1.2,0.5,2.4,0.7,3.6l-2.7-1C251.8,167.2,256,169.8,256,169.8z"/>
	<path class="st1" d="M259.2,172.3c-3.6-3.2-7.5-5.2-10.1-6.5c-3.8-1.9-2.8,0.7-9.3,2.4c-0.9,0.2-1.9,0.8-1.1,2.5
		c0.8,1.6,6.9,0.4,7.8-0.6c0,0,2.6,3.1,5.1,3.1c0,0-0.4,2.1,0.2,3.1c0,0-3.6,1.9-5.2,3.5l-4.3-2.9c-0.3-4.5-1.1-5.8-3.3-5.6
		c-2,0.2-1.8,2.1-1.8,3.7c0.1,2.8-0.7,3.3,0,4.4c2.7,4.3,6,7,12.2,7c2.3,0,3.8-0.1,5.2-0.8C257.2,184.6,263.2,175.9,259.2,172.3z"/>
	<path class="st2" d="M259.9,173.2c1.3,4.1-3.4,10.8-5.5,11.8c-1.4,0.7-2.9,0.8-5.2,0.8c-6.2,0-9.5-2.6-12.1-6.9
		c0.1,0.2,0.2,0.5,0.3,0.7c2.7,4.3,6,7,12.2,7c2.3,0,3.8-0.1,5.2-0.8C257,184.7,262.3,177.1,259.9,173.2z"/>
	<path class="st2" d="M241.7,177.2c0,0,4,2.6,5,2.7l-4.2-2.9c0.2-4.5-1.2-5.9-3.3-5.6c-0.2,0-0.3,0.1-0.5,0.1
		C240.8,171.3,241.8,172.8,241.7,177.2z"/>
	<path class="st2" d="M246.6,170.2c0,0,2.6,3.1,5.1,3.1v-0.6c-2.6,0.1-5.1-3.1-5.1-3.1c-1,0.9-7.1,2.1-7.8,0.6
		c-0.1-0.2-0.2-0.5-0.2-0.7c-0.1,0.3,0,0.8,0.2,1.3C239.5,172.3,245.7,171.1,246.6,170.2z"/>
</g>
<g>
	<path class="st1" d="M321.2,193.7l-3.5,2.5c0,0-1.8-5-3.1-8.1c-0.6-1.3-2.3-1.7-3.1-3.5c-1.4-3.1,0.2-5.8,1.9-3.9
		c1.9,2.2,4.7,3.9,5.2,5.2C319.6,188.1,321.2,193.7,321.2,193.7z"/>
	<path class="st1" d="M324,195.7c0.2,1.7,0,4.4-1.4,7.5c0,0-3.1-3.7-3.4-5.3c0,0-0.9-6.4-1.7-10.5c-0.4-1.7-2.3-2.6-2.8-5
		c-0.9-4.1,1.7-6.9,3.2-4.2c1.7,3.2,4.6,5.8,5,7.5C323.4,188.6,323.7,193.2,324,195.7z"/>
	<path class="st2" d="M319.5,192.5c0,0-0.3-2.4-1.2-6.5c-0.4-1.7-2.3-2.6-2.8-5c-0.3-1.4-0.2-2.7,0.1-3.6c-0.9,0.7-1.7,2.6-1.2,5
		c0.5,2.3,2.5,3.3,2.8,5c0.2,1.2,0.5,2.4,0.7,3.6l-2.7-1C315.3,190,319.5,192.5,319.5,192.5z"/>
	<path class="st1" d="M322.7,195.1c-3.6-3.2-7.5-5.2-10.1-6.5c-3.8-1.9-2.8,0.7-9.3,2.4c-0.9,0.2-1.9,0.8-1.1,2.5
		c0.8,1.6,6.9,0.4,7.8-0.6c0,0,2.6,3.1,5.1,3.1c0,0-0.4,2.1,0.2,3.1c0,0-3.6,1.9-5.2,3.5l-4.3-2.9c-0.3-4.5-1.1-5.8-3.3-5.6
		c-2,0.2-1.8,2.1-1.8,3.7c0.1,2.8-0.7,3.3,0,4.4c2.7,4.3,6,7,12.2,7c2.3,0,3.8-0.1,5.2-0.8C320.7,207.4,326.7,198.7,322.7,195.1z"/>
	<path class="st2" d="M323.4,195.9c1.3,4.1-3.4,10.8-5.5,11.8c-1.4,0.7-2.9,0.8-5.2,0.8c-6.2,0-9.5-2.6-12.1-6.9
		c0.1,0.2,0.2,0.5,0.3,0.7c2.7,4.3,6,7,12.2,7c2.3,0,3.8-0.1,5.2-0.8C320.5,207.5,325.8,199.9,323.4,195.9z"/>
	<path class="st2" d="M305.2,199.9c0,0,4,2.6,5,2.7l-4.2-2.9c0.2-4.5-1.2-5.9-3.3-5.6c-0.2,0-0.3,0.1-0.5,0.1
		C304.3,194.1,305.3,195.5,305.2,199.9z"/>
	<path class="st2" d="M310.1,193c0,0,2.6,3.1,5.1,3.1v-0.6c-2.6,0.1-5.1-3.1-5.1-3.1c-1,0.9-7.1,2.1-7.8,0.6
		c-0.1-0.2-0.2-0.5-0.2-0.7c-0.1,0.3,0,0.8,0.2,1.3C303,195.1,309.2,193.9,310.1,193z"/>
</g>
<g>
	<path class="st1" d="M344.2,134.2l-3.5,2.5c0,0-1.8-5-3.1-8.1c-0.6-1.3-2.3-1.7-3.1-3.5c-1.4-3.1,0.2-5.8,1.9-3.9
		c1.9,2.2,4.7,3.9,5.2,5.2C342.6,128.6,344.2,134.2,344.2,134.2z"/>
	<path class="st1" d="M347,136.2c0.2,1.7,0,4.4-1.4,7.5c0,0-3.1-3.7-3.4-5.3c0,0-0.9-6.4-1.7-10.5c-0.4-1.7-2.3-2.6-2.8-5
		c-0.9-4.1,1.7-6.9,3.2-4.2c1.7,3.2,4.6,5.8,5,7.5C346.4,129.1,346.7,133.7,347,136.2z"/>
	<path class="st2" d="M342.5,133c0,0-0.3-2.4-1.2-6.5c-0.4-1.7-2.3-2.6-2.8-5c-0.3-1.4-0.2-2.7,0.1-3.6c-0.9,0.7-1.7,2.6-1.2,5
		c0.5,2.3,2.5,3.3,2.8,5c0.2,1.2,0.5,2.4,0.7,3.6l-2.7-1C338.3,130.5,342.5,133,342.5,133z"/>
	<path class="st1" d="M345.7,135.6c-3.6-3.2-7.5-5.2-10.1-6.5c-3.8-1.9-2.8,0.7-9.3,2.4c-0.9,0.2-1.9,0.8-1.1,2.5
		c0.8,1.6,6.9,0.4,7.8-0.6c0,0,2.6,3.1,5.1,3.1c0,0-0.4,2.1,0.2,3.1c0,0-3.6,1.9-5.2,3.5l-4.3-2.9c-0.3-4.5-1.1-5.8-3.3-5.6
		c-2,0.2-1.8,2.1-1.8,3.7c0.1,2.8-0.7,3.3,0,4.4c2.7,4.3,6,7,12.2,7c2.3,0,3.8-0.1,5.2-0.8C343.7,147.9,349.7,139.2,345.7,135.6z"/>
	<path class="st2" d="M346.4,136.4c1.3,4.1-3.4,10.8-5.5,11.8c-1.4,0.7-2.9,0.8-5.2,0.8c-6.2,0-9.5-2.6-12.1-6.9
		c0.1,0.2,0.2,0.5,0.3,0.7c2.7,4.3,6,7,12.2,7c2.3,0,3.8-0.1,5.2-0.8C343.5,148,348.8,140.4,346.4,136.4z"/>
	<path class="st2" d="M328.2,140.4c0,0,4,2.6,5,2.7l-4.2-2.9c0.2-4.5-1.2-5.9-3.3-5.6c-0.2,0-0.3,0.1-0.5,0.1
		C327.3,134.6,328.3,136,328.2,140.4z"/>
	<path class="st2" d="M333.1,133.5c0,0,2.6,3.1,5.1,3.1v-0.6c-2.6,0.1-5.1-3.1-5.1-3.1c-1,0.9-7.1,2.1-7.8,0.6
		c-0.1-0.2-0.2-0.5-0.2-0.7c-0.1,0.3,0,0.8,0.2,1.3C326,135.6,332.2,134.4,333.1,133.5z"/>
</g>
<g>
	<path class="st1" d="M379.1,166.8l-5,3.5c0,0-2.5-7-4.4-11.3c-0.8-1.8-3.2-2.4-4.3-4.9c-1.9-4.4,0.3-8.1,2.7-5.4
		c2.7,3.1,6.6,5.5,7.3,7.3C376.8,158.9,379.1,166.8,379.1,166.8z"/>
	<path class="st1" d="M383.1,169.6c0.3,2.4,0,6.1-2,10.5c0,0-4.3-5.1-4.8-7.5c0,0-1.2-9-2.4-14.7c-0.5-2.4-3.2-3.7-3.9-7
		c-1.2-5.7,2.4-9.7,4.5-5.9c2.4,4.4,6.5,8.2,7,10.5C382.3,159.6,382.6,166.2,383.1,169.6z"/>
	<path class="st2" d="M376.7,165.1c0,0-0.4-3.4-1.6-9.1c-0.5-2.4-3.2-3.7-3.9-7c-0.4-2-0.3-3.7,0.2-5c-1.3,1-2.3,3.7-1.6,7
		c0.7,3.3,3.4,4.7,3.9,7c0.3,1.7,0.7,3.3,1,5l-3.8-1.4C370.9,161.6,376.7,165.1,376.7,165.1z"/>
	<path class="st1" d="M381.3,168.8c-5-4.5-10.5-7.3-14.1-9.1c-5.3-2.6-3.9,1-13,3.4c-1.2,0.3-2.6,1.2-1.5,3.5
		c1.1,2.2,9.7,0.5,11-0.8c0,0,3.6,4.4,7.2,4.3c0,0-0.6,2.9,0.3,4.3c0,0-5.1,2.7-7.3,5l-6.1-4.1c-0.4-6.3-1.6-8.1-4.7-7.8
		c-2.9,0.3-2.6,3-2.5,5.2c0.1,4-0.9,4.6,0,6.2c3.7,6.1,8.4,9.8,17.2,9.8c3.3,0,5.3-0.1,7.4-1.1C378.4,186,386.8,173.8,381.3,168.8z"
		/>
	<path class="st2" d="M382.3,169.9c1.9,5.7-4.8,15.1-7.7,16.6c-2,1-4.1,1.1-7.4,1.1c-8.6,0-13.4-3.7-17-9.6c0.1,0.3,0.2,0.6,0.4,0.9
		c3.7,6.1,8.4,9.8,17.2,9.8c3.3,0,5.3-0.1,7.4-1.1C378.2,186.1,385.6,175.5,382.3,169.9z"/>
	<path class="st2" d="M356.6,175.5c0,0,5.6,3.6,7,3.8l-5.9-4c0.2-6.3-1.6-8.4-4.7-7.8c-0.2,0-0.5,0.1-0.7,0.1
		C355.4,167.3,356.8,169.3,356.6,175.5z"/>
	<path class="st2" d="M363.6,165.8c0,0,3.6,4.4,7.2,4.3v-0.8c-3.6,0.1-7.2-4.3-7.2-4.3c-1.3,1.3-9.9,3-11,0.8
		c-0.2-0.3-0.3-0.7-0.3-1c-0.1,0.5,0,1.1,0.3,1.9C353.6,168.7,362.2,167.1,363.6,165.8z"/>
</g>
<g>
	<path class="st1" d="M390.5,108.9l-3.5,2.5c0,0-1.8-5-3.1-8.1c-0.6-1.3-2.3-1.7-3.1-3.5c-1.4-3.1,0.2-5.8,1.9-3.9
		c1.9,2.2,4.7,3.9,5.2,5.2C388.8,103.3,390.5,108.9,390.5,108.9z"/>
	<path class="st1" d="M393.3,111c0.2,1.7,0,4.4-1.4,7.5c0,0-3.1-3.7-3.4-5.3c0,0-0.9-6.4-1.7-10.5c-0.4-1.7-2.3-2.6-2.8-5
		c-0.9-4.1,1.7-6.9,3.2-4.2c1.7,3.2,4.6,5.8,5,7.5C392.7,103.8,392.9,108.5,393.3,111z"/>
	<path class="st2" d="M388.7,107.8c0,0-0.3-2.4-1.2-6.5c-0.4-1.7-2.3-2.6-2.8-5c-0.3-1.4-0.2-2.7,0.1-3.6c-0.9,0.7-1.7,2.6-1.2,5
		c0.5,2.3,2.5,3.3,2.8,5c0.2,1.2,0.5,2.4,0.7,3.6l-2.7-1C384.6,105.2,388.7,107.8,388.7,107.8z"/>
	<path class="st1" d="M392,110.3c-3.6-3.2-7.5-5.2-10.1-6.5c-3.8-1.9-2.8,0.7-9.3,2.4c-0.9,0.2-1.9,0.8-1.1,2.5
		c0.8,1.6,6.9,0.4,7.8-0.6c0,0,2.6,3.1,5.1,3.1c0,0-0.4,2.1,0.2,3.1c0,0-3.6,1.9-5.2,3.5l-4.3-2.9c-0.3-4.5-1.1-5.8-3.3-5.6
		c-2,0.2-1.8,2.1-1.8,3.7c0.1,2.8-0.7,3.3,0,4.4c2.7,4.3,6,7,12.2,7c2.3,0,3.8-0.1,5.2-0.8C390,122.6,395.9,113.9,392,110.3z"/>
	<path class="st2" d="M392.7,111.2c1.3,4.1-3.4,10.8-5.5,11.8c-1.4,0.7-2.9,0.8-5.2,0.8c-6.2,0-9.5-2.6-12.1-6.9
		c0.1,0.2,0.2,0.5,0.3,0.7c2.7,4.3,6,7,12.2,7c2.3,0,3.8-0.1,5.2-0.8C389.8,122.7,395.1,115.1,392.7,111.2z"/>
	<path class="st2" d="M374.4,115.2c0,0,4,2.6,5,2.7l-4.2-2.9c0.2-4.5-1.2-5.9-3.3-5.6c-0.2,0-0.3,0.1-0.5,0.1
		C373.5,109.3,374.6,110.8,374.4,115.2z"/>
	<path class="st2" d="M379.4,108.2c0,0,2.6,3.1,5.1,3.1v-0.6c-2.6,0.1-5.1-3.1-5.1-3.1c-1,0.9-7.1,2.1-7.8,0.6
		c-0.1-0.2-0.2-0.5-0.2-0.7c-0.1,0.3,0,0.8,0.2,1.3C372.3,110.3,378.4,109.1,379.4,108.2z"/>
</g>
<g>
	<path class="st1" d="M306,156.8l-4.7,3.4c0,0-2.4-6.7-4.2-10.8c-0.8-1.7-3-2.3-4.1-4.7c-1.8-4.2,0.3-7.8,2.5-5.2
		c2.5,3,6.3,5.2,7,6.9C303.8,149.3,306,156.8,306,156.8z"/>
	<path class="st1" d="M309.8,159.6c0.3,2.3,0,5.9-1.9,10c0,0-4.1-4.9-4.6-7.2c0,0-1.2-8.6-2.3-14c-0.5-2.2-3.1-3.5-3.8-6.7
		c-1.2-5.5,2.3-9.3,4.3-5.6c2.3,4.2,6.2,7.8,6.7,10.1C309,150,309.3,156.2,309.8,159.6z"/>
	<path class="st2" d="M303.7,155.3c0,0-0.4-3.2-1.5-8.7c-0.5-2.2-3.1-3.5-3.8-6.7c-0.4-1.9-0.3-3.6,0.2-4.8
		c-1.2,0.9-2.2,3.5-1.6,6.7c0.7,3.1,3.3,4.4,3.8,6.7c0.3,1.6,0.6,3.2,0.9,4.8l-3.6-1.3C298.1,151.9,303.7,155.3,303.7,155.3z"/>
	<path class="st1" d="M308.1,158.7c-4.8-4.3-10.1-7-13.5-8.7c-5.1-2.5-3.8,0.9-12.5,3.2c-1.2,0.3-2.5,1.1-1.5,3.3
		c1,2.1,9.2,0.5,10.5-0.8c0,0,3.4,4.2,6.9,4.1c0,0-0.6,2.8,0.2,4.1c0,0-4.9,2.5-7,4.8l-5.8-3.9c-0.4-6-1.5-7.8-4.5-7.5
		c-2.7,0.3-2.4,2.8-2.4,5c0.1,3.8-0.9,4.4,0,6c3.6,5.8,8.1,9.4,16.4,9.4c3.1,0,5.1-0.1,7-1C305.3,175.2,313.3,163.5,308.1,158.7z"/>
	<path class="st2" d="M309,159.9c1.8,5.5-4.6,14.5-7.4,15.8c-1.9,0.9-3.9,1-7,1c-8.3,0-12.8-3.5-16.3-9.2c0.1,0.3,0.2,0.6,0.4,0.9
		c3.6,5.8,8.1,9.4,16.4,9.4c3.1,0,5.1-0.1,7-1C305.1,175.3,312.2,165.1,309,159.9z"/>
	<path class="st2" d="M284.5,165.2c0,0,5.4,3.5,6.7,3.6l-5.7-3.8c0.2-6.1-1.5-8-4.5-7.5c-0.2,0-0.4,0.1-0.6,0.1
		C283.3,157.4,284.7,159.3,284.5,165.2z"/>
	<path class="st2" d="M291.1,155.9c0,0,3.4,4.2,6.9,4.1v-0.8c-3.4,0.1-6.9-4.1-6.9-4.1c-1.3,1.3-9.5,2.9-10.5,0.8
		c-0.2-0.3-0.3-0.6-0.3-1c-0.1,0.5,0,1,0.3,1.8C281.6,158.7,289.8,157.1,291.1,155.9z"/>
</g>
<g>
	<path class="st1" d="M37,90.5l-4.7,3.4c0,0-2.4-6.7-4.2-10.8c-0.8-1.7-3-2.3-4.1-4.7c-1.8-4.2,0.3-7.8,2.5-5.2c2.5,3,6.3,5.2,7,6.9
		C34.8,83,37,90.5,37,90.5z"/>
	<path class="st1" d="M40.8,93.2c0.3,2.3,0,5.9-1.9,10c0,0-4.1-4.9-4.6-7.2c0,0-1.2-8.6-2.3-14c-0.5-2.2-3.1-3.5-3.8-6.7
		c-1.2-5.5,2.3-9.3,4.3-5.6c2.3,4.2,6.2,7.8,6.7,10.1C40,83.6,40.3,89.9,40.8,93.2z"/>
	<path class="st2" d="M34.7,88.9c0,0-0.4-3.2-1.5-8.7c-0.5-2.2-3.1-3.5-3.8-6.7c-0.4-1.9-0.3-3.6,0.2-4.8c-1.2,0.9-2.2,3.5-1.6,6.7
		c0.7,3.1,3.3,4.4,3.8,6.7c0.3,1.6,0.6,3.2,0.9,4.8l-3.6-1.3C29.1,85.5,34.7,88.9,34.7,88.9z"/>
	<path class="st1" d="M39.1,92.4c-4.8-4.3-10.1-7-13.5-8.7c-5.1-2.5-3.8,0.9-12.5,3.2c-1.2,0.3-2.5,1.1-1.5,3.3
		c1,2.1,9.2,0.5,10.5-0.8c0,0,3.4,4.2,6.9,4.1c0,0-0.6,2.8,0.2,4.1c0,0-4.9,2.5-7,4.8l-5.8-3.9c-0.4-6-1.5-7.8-4.5-7.5
		c-2.7,0.3-2.4,2.8-2.4,5c0.1,3.8-0.9,4.4,0,6c3.6,5.8,8.1,9.4,16.4,9.4c3.1,0,5.1-0.1,7-1C36.3,108.9,44.3,97.2,39.1,92.4z"/>
	<path class="st2" d="M40,93.5c1.8,5.5-4.6,14.5-7.4,15.8c-1.9,0.9-3.9,1-7,1c-8.3,0-12.8-3.5-16.3-9.2c0.1,0.3,0.2,0.6,0.4,0.9
		c3.6,5.8,8.1,9.4,16.4,9.4c3.1,0,5.1-0.1,7-1C36.1,109,43.2,98.8,40,93.5z"/>
	<path class="st2" d="M15.5,98.8c0,0,5.4,3.5,6.7,3.6l-5.7-3.8c0.2-6.1-1.5-8-4.5-7.5c-0.2,0-0.4,0.1-0.6,0.1
		C14.3,91,15.7,92.9,15.5,98.8z"/>
	<path class="st2" d="M22.1,89.5c0,0,3.4,4.2,6.9,4.1v-0.8c-3.4,0.1-6.9-4.1-6.9-4.1c-1.3,1.3-9.5,2.9-10.5,0.8
		c-0.2-0.3-0.3-0.6-0.3-1c-0.1,0.5,0,1,0.3,1.8C12.6,92.4,20.8,90.8,22.1,89.5z"/>
</g>
<g>
	<path class="st1" d="M125,193.7l-6.1,4.3c0,0-3-8.5-5.4-13.8c-1-2.2-3.9-3-5.2-6c-2.4-5.3,0.4-9.9,3.2-6.6c3.3,3.8,8,6.7,9,8.9
		C122.1,184,125,193.7,125,193.7z"/>
	<path class="st1" d="M129.8,197.2c0.4,2.9,0.1,7.5-2.5,12.8c0,0-5.2-6.3-5.9-9.2c0,0-1.5-11-3-17.9c-0.6-2.9-3.9-4.5-4.8-8.5
		c-1.5-7,3-11.8,5.5-7.1c3,5.4,7.9,10,8.6,12.9C128.8,184.9,129.2,192.9,129.8,197.2z"/>
	<path class="st2" d="M122,191.7c0,0-0.5-4.1-2-11.1c-0.6-2.9-3.9-4.5-4.8-8.5c-0.5-2.4-0.3-4.6,0.2-6.2c-1.6,1.2-2.9,4.5-2,8.5
		c0.9,4,4.2,5.7,4.8,8.6c0.4,2,0.8,4.1,1.2,6.1l-4.6-1.7C114.9,187.3,122,191.7,122,191.7z"/>
	<path class="st1" d="M127.6,196.1c-6.1-5.6-12.9-8.9-17.3-11.1c-6.5-3.2-4.8,1.2-15.9,4.1c-1.5,0.4-3.2,1.5-1.9,4.2
		c1.3,2.7,11.8,0.6,13.4-1c0,0,4.4,5.4,8.8,5.3c0,0-0.8,3.6,0.3,5.3c0,0-6.2,3.2-8.9,6.1l-7.4-5c-0.5-7.7-1.9-9.9-5.7-9.6
		c-3.5,0.3-3.1,3.6-3,6.3c0.1,4.9-1.2,5.7,0,7.6c4.6,7.4,10.3,12,21,12c4,0,6.5-0.1,9-1.3C124.1,217.1,134.3,202.2,127.6,196.1z"/>
	<path class="st2" d="M128.8,197.5c2.3,7-5.9,18.5-9.4,20.2c-2.5,1.2-5,1.3-9,1.3c-10.5,0-16.3-4.5-20.8-11.8
		c0.1,0.4,0.3,0.8,0.5,1.2c4.6,7.4,10.3,12,21,12c4,0,6.5-0.1,9-1.3C123.8,217.3,132.9,204.3,128.8,197.5z"/>
	<path class="st2" d="M97.5,204.3c0,0,6.9,4.4,8.6,4.7l-7.3-4.9c0.3-7.7-2-10.2-5.7-9.6c-0.3,0-0.6,0.1-0.8,0.2
		C96,194.3,97.8,196.8,97.5,204.3z"/>
	<path class="st2" d="M106,192.4c0,0,4.4,5.4,8.8,5.3v-1c-4.4,0.1-8.8-5.3-8.8-5.3c-1.6,1.6-12.1,3.6-13.4,1
		c-0.2-0.4-0.3-0.8-0.4-1.3c-0.1,0.6,0,1.3,0.4,2.3C93.8,196.1,104.3,194,106,192.4z"/>
</g>
<g>
	<path class="st1" d="M48.2,148.1l-2.4,1.7c0,0-1.2-3.4-2.2-5.6c-0.4-0.9-1.6-1.2-2.1-2.4c-0.9-2.1,0.2-4,1.3-2.7
		c1.3,1.5,3.2,2.7,3.6,3.6C47.1,144.2,48.2,148.1,48.2,148.1z"/>
	<path class="st1" d="M50.1,149.5c0.2,1.2,0,3-1,5.2c0,0-2.1-2.5-2.4-3.7c0,0-0.6-4.4-1.2-7.2c-0.2-1.2-1.6-1.8-1.9-3.4
		c-0.6-2.8,1.2-4.8,2.2-2.9c1.2,2.2,3.2,4,3.4,5.2C49.7,144.5,49.9,147.7,50.1,149.5z"/>
	<path class="st2" d="M47,147.2c0,0-0.2-1.7-0.8-4.5c-0.2-1.2-1.6-1.8-1.9-3.4c-0.2-1-0.1-1.8,0.1-2.5c-0.6,0.5-1.1,1.8-0.8,3.4
		c0.3,1.6,1.7,2.3,1.9,3.4c0.2,0.8,0.3,1.6,0.5,2.5l-1.9-0.7C44.2,145.5,47,147.2,47,147.2z"/>
	<path class="st1" d="M49.3,149c-2.5-2.2-5.2-3.6-6.9-4.4c-2.6-1.3-1.9,0.5-6.4,1.7c-0.6,0.2-1.3,0.6-0.8,1.7
		c0.5,1.1,4.7,0.3,5.4-0.4c0,0,1.8,2.2,3.5,2.1c0,0-0.3,1.4,0.1,2.1c0,0-2.5,1.3-3.6,2.4l-3-2c-0.2-3.1-0.8-4-2.3-3.8
		c-1.4,0.1-1.3,1.5-1.2,2.5c0.1,2-0.5,2.3,0,3.1c1.8,3,4.1,4.8,8.4,4.8c1.6,0,2.6,0,3.6-0.5C47.9,157.5,52,151.5,49.3,149z"/>
	<path class="st2" d="M49.7,149.6c0.9,2.8-2.4,7.4-3.8,8.1c-1,0.5-2,0.5-3.6,0.5c-4.2,0-6.6-1.8-8.4-4.7c0,0.2,0.1,0.3,0.2,0.5
		c1.8,3,4.1,4.8,8.4,4.8c1.6,0,2.6,0,3.6-0.5C47.7,157.5,51.4,152.3,49.7,149.6z"/>
	<path class="st2" d="M37.1,152.3c0,0,2.8,1.8,3.4,1.9l-2.9-2c0.1-3.1-0.8-4.1-2.3-3.8c-0.1,0-0.2,0-0.3,0.1
		C36.5,148.3,37.3,149.3,37.1,152.3z"/>
	<path class="st2" d="M40.6,147.5c0,0,1.8,2.2,3.5,2.1v-0.4c-1.8,0.1-3.5-2.1-3.5-2.1c-0.7,0.6-4.9,1.5-5.4,0.4
		c-0.1-0.2-0.1-0.3-0.2-0.5c0,0.2,0,0.5,0.2,0.9C35.7,149,39.9,148.2,40.6,147.5z"/>
</g>
<g>
	<path class="st1" d="M94.2,165.3l-2.4,1.7c0,0-1.2-3.4-2.2-5.6c-0.4-0.9-1.6-1.2-2.1-2.4c-0.9-2.1,0.2-4,1.3-2.7
		c1.3,1.5,3.2,2.7,3.6,3.6C93.1,161.4,94.2,165.3,94.2,165.3z"/>
	<path class="st1" d="M96.1,166.7c0.2,1.2,0,3-1,5.2c0,0-2.1-2.5-2.4-3.7c0,0-0.6-4.4-1.2-7.2c-0.2-1.2-1.6-1.8-1.9-3.4
		c-0.6-2.8,1.2-4.8,2.2-2.9c1.2,2.2,3.2,4,3.4,5.2C95.7,161.8,95.9,165,96.1,166.7z"/>
	<path class="st2" d="M93,164.5c0,0-0.2-1.7-0.8-4.5c-0.2-1.2-1.6-1.8-1.9-3.4c-0.2-1-0.1-1.8,0.1-2.5c-0.6,0.5-1.1,1.8-0.8,3.4
		c0.3,1.6,1.7,2.3,1.9,3.4c0.2,0.8,0.3,1.6,0.5,2.5l-1.9-0.7C90.2,162.8,93,164.5,93,164.5z"/>
	<path class="st1" d="M95.3,166.3c-2.5-2.2-5.2-3.6-6.9-4.4c-2.6-1.3-1.9,0.5-6.4,1.7c-0.6,0.2-1.3,0.6-0.8,1.7
		c0.5,1.1,4.7,0.3,5.4-0.4c0,0,1.8,2.2,3.5,2.1c0,0-0.3,1.4,0.1,2.1c0,0-2.5,1.3-3.6,2.4l-3-2c-0.2-3.1-0.8-4-2.3-3.8
		c-1.4,0.1-1.3,1.5-1.2,2.5c0.1,2-0.5,2.3,0,3.1c1.8,3,4.1,4.8,8.4,4.8c1.6,0,2.6,0,3.6-0.5C93.9,174.7,98,168.7,95.3,166.3z"/>
	<path class="st2" d="M95.7,166.9c0.9,2.8-2.4,7.4-3.8,8.1c-1,0.5-2,0.5-3.6,0.5c-4.2,0-6.6-1.8-8.4-4.7c0,0.2,0.1,0.3,0.2,0.5
		c1.8,3,4.1,4.8,8.4,4.8c1.6,0,2.6,0,3.6-0.5C93.7,174.8,97.4,169.6,95.7,166.9z"/>
	<path class="st2" d="M83.1,169.6c0,0,2.8,1.8,3.4,1.9l-2.9-2c0.1-3.1-0.8-4.1-2.3-3.8c-0.1,0-0.2,0-0.3,0.1
		C82.5,165.6,83.3,166.6,83.1,169.6z"/>
	<path class="st2" d="M86.6,164.8c0,0,1.8,2.2,3.5,2.1v-0.4c-1.8,0.1-3.5-2.1-3.5-2.1c-0.7,0.6-4.9,1.5-5.4,0.4
		c-0.1-0.2-0.1-0.3-0.2-0.5c0,0.2,0,0.5,0.2,0.9C81.7,166.3,85.9,165.4,86.6,164.8z"/>
</g>
<g>
	<path class="st1" d="M137,150.1l-2.4,1.7c0,0-1.2-3.4-2.2-5.6c-0.4-0.9-1.6-1.2-2.1-2.4c-0.9-2.1,0.2-4,1.3-2.7
		c1.3,1.5,3.2,2.7,3.6,3.6C135.8,146.2,137,150.1,137,150.1z"/>
	<path class="st1" d="M138.9,151.5c0.2,1.2,0,3-1,5.2c0,0-2.1-2.5-2.4-3.7c0,0-0.6-4.4-1.2-7.2c-0.2-1.2-1.6-1.8-1.9-3.4
		c-0.6-2.8,1.2-4.8,2.2-2.9c1.2,2.2,3.2,4,3.4,5.2C138.5,146.5,138.6,149.7,138.9,151.5z"/>
	<path class="st2" d="M135.8,149.2c0,0-0.2-1.7-0.8-4.5c-0.2-1.2-1.6-1.8-1.9-3.4c-0.2-1-0.1-1.8,0.1-2.5c-0.6,0.5-1.1,1.8-0.8,3.4
		c0.3,1.6,1.7,2.3,1.9,3.4c0.2,0.8,0.3,1.6,0.5,2.5l-1.9-0.7C132.9,147.5,135.8,149.2,135.8,149.2z"/>
	<path class="st1" d="M138,151c-2.5-2.2-5.2-3.6-6.9-4.4c-2.6-1.3-1.9,0.5-6.4,1.7c-0.6,0.2-1.3,0.6-0.8,1.7
		c0.5,1.1,4.7,0.3,5.4-0.4c0,0,1.8,2.2,3.5,2.1c0,0-0.3,1.4,0.1,2.1c0,0-2.5,1.3-3.6,2.4l-3-2c-0.2-3.1-0.8-4-2.3-3.8
		c-1.4,0.1-1.3,1.5-1.2,2.5c0.1,2-0.5,2.3,0,3.1c1.8,3,4.1,4.8,8.4,4.8c1.6,0,2.6,0,3.6-0.5C136.6,159.5,140.7,153.5,138,151z"/>
	<path class="st2" d="M138.5,151.6c0.9,2.8-2.4,7.4-3.8,8.1c-1,0.5-2,0.5-3.6,0.5c-4.2,0-6.6-1.8-8.4-4.7c0,0.2,0.1,0.3,0.2,0.5
		c1.8,3,4.1,4.8,8.4,4.8c1.6,0,2.6,0,3.6-0.5C136.5,159.5,140.1,154.3,138.5,151.6z"/>
	<path class="st2" d="M125.9,154.3c0,0,2.8,1.8,3.4,1.9l-2.9-2c0.1-3.1-0.8-4.1-2.3-3.8c-0.1,0-0.2,0-0.3,0.1
		C125.3,150.3,126,151.3,125.9,154.3z"/>
	<path class="st2" d="M129.3,149.5c0,0,1.8,2.2,3.5,2.1v-0.4c-1.8,0.1-3.5-2.1-3.5-2.1c-0.7,0.6-4.9,1.5-5.4,0.4
		c-0.1-0.2-0.1-0.3-0.2-0.5c0,0.2,0,0.5,0.2,0.9C124.4,151,128.7,150.2,129.3,149.5z"/>
</g>
<g>
	<path class="st1" d="M187.7,192.6l-2.4,1.7c0,0-1.2-3.4-2.2-5.6c-0.4-0.9-1.6-1.2-2.1-2.4c-0.9-2.1,0.2-4,1.3-2.7
		c1.3,1.5,3.2,2.7,3.6,3.6C186.6,188.7,187.7,192.6,187.7,192.6z"/>
	<path class="st1" d="M189.6,194c0.2,1.2,0,3-1,5.2c0,0-2.1-2.5-2.4-3.7c0,0-0.6-4.4-1.2-7.2c-0.2-1.2-1.6-1.8-1.9-3.4
		c-0.6-2.8,1.2-4.8,2.2-2.9c1.2,2.2,3.2,4,3.4,5.2C189.2,189,189.4,192.2,189.6,194z"/>
	<path class="st2" d="M186.5,191.7c0,0-0.2-1.7-0.8-4.5c-0.2-1.2-1.6-1.8-1.9-3.4c-0.2-1-0.1-1.8,0.1-2.5c-0.6,0.5-1.1,1.8-0.8,3.4
		c0.3,1.6,1.7,2.3,1.9,3.4c0.2,0.8,0.3,1.6,0.5,2.5l-1.9-0.7C183.7,190,186.5,191.7,186.5,191.7z"/>
	<path class="st1" d="M188.8,193.5c-2.5-2.2-5.2-3.6-6.9-4.4c-2.6-1.3-1.9,0.5-6.4,1.7c-0.6,0.2-1.3,0.6-0.8,1.7
		c0.5,1.1,4.7,0.3,5.4-0.4c0,0,1.8,2.2,3.5,2.1c0,0-0.3,1.4,0.1,2.1c0,0-2.5,1.3-3.6,2.4l-3-2c-0.2-3.1-0.8-4-2.3-3.8
		c-1.4,0.1-1.3,1.5-1.2,2.5c0.1,2-0.5,2.3,0,3.1c1.8,3,4.1,4.8,8.4,4.8c1.6,0,2.6,0,3.6-0.5C187.4,202,191.5,196,188.8,193.5z"/>
	<path class="st2" d="M189.2,194.1c0.9,2.8-2.4,7.4-3.8,8.1c-1,0.5-2,0.5-3.6,0.5c-4.2,0-6.6-1.8-8.4-4.7c0,0.2,0.1,0.3,0.2,0.5
		c1.8,3,4.1,4.8,8.4,4.8c1.6,0,2.6,0,3.6-0.5C187.2,202,190.9,196.8,189.2,194.1z"/>
	<path class="st2" d="M176.6,196.8c0,0,2.8,1.8,3.4,1.9l-2.9-2c0.1-3.1-0.8-4.1-2.3-3.8c-0.1,0-0.2,0-0.3,0.1
		C176,192.8,176.8,193.8,176.6,196.8z"/>
	<path class="st2" d="M180.1,192c0,0,1.8,2.2,3.5,2.1v-0.4c-1.8,0.1-3.5-2.1-3.5-2.1c-0.7,0.6-4.9,1.5-5.4,0.4
		c-0.1-0.2-0.1-0.3-0.2-0.5c0,0.2,0,0.5,0.2,0.9C175.2,193.5,179.4,192.7,180.1,192z"/>
</g>
<g>
	<path class="st1" d="M236,146.8l-2.4,1.7c0,0-1.2-3.4-2.2-5.6c-0.4-0.9-1.6-1.2-2.1-2.4c-0.9-2.1,0.2-4,1.3-2.7
		c1.3,1.5,3.2,2.7,3.6,3.6C234.8,142.9,236,146.8,236,146.8z"/>
	<path class="st1" d="M237.9,148.2c0.2,1.2,0,3-1,5.2c0,0-2.1-2.5-2.4-3.7c0,0-0.6-4.4-1.2-7.2c-0.2-1.2-1.6-1.8-1.9-3.4
		c-0.6-2.8,1.2-4.8,2.2-2.9c1.2,2.2,3.2,4,3.4,5.2C237.5,143.3,237.6,146.5,237.9,148.2z"/>
	<path class="st2" d="M234.8,146c0,0-0.2-1.7-0.8-4.5c-0.2-1.2-1.6-1.8-1.9-3.4c-0.2-1-0.1-1.8,0.1-2.5c-0.6,0.5-1.1,1.8-0.8,3.4
		c0.3,1.6,1.7,2.3,1.9,3.4c0.2,0.8,0.3,1.6,0.5,2.5l-1.9-0.7C231.9,144.3,234.8,146,234.8,146z"/>
	<path class="st1" d="M237,147.8c-2.5-2.2-5.2-3.6-6.9-4.4c-2.6-1.3-1.9,0.5-6.4,1.7c-0.6,0.2-1.3,0.6-0.8,1.7
		c0.5,1.1,4.7,0.3,5.4-0.4c0,0,1.8,2.2,3.5,2.1c0,0-0.3,1.4,0.1,2.1c0,0-2.5,1.3-3.6,2.4l-3-2c-0.2-3.1-0.8-4-2.3-3.8
		c-1.4,0.1-1.3,1.5-1.2,2.5c0.1,2-0.5,2.3,0,3.1c1.8,3,4.1,4.8,8.4,4.8c1.6,0,2.6,0,3.6-0.5C235.6,156.2,239.7,150.2,237,147.8z"/>
	<path class="st2" d="M237.5,148.4c0.9,2.8-2.4,7.4-3.8,8.1c-1,0.5-2,0.5-3.6,0.5c-4.2,0-6.6-1.8-8.4-4.7c0,0.2,0.1,0.3,0.2,0.5
		c1.8,3,4.1,4.8,8.4,4.8c1.6,0,2.6,0,3.6-0.5C235.5,156.3,239.1,151.1,237.5,148.4z"/>
	<path class="st2" d="M224.9,151.1c0,0,2.8,1.8,3.4,1.9l-2.9-2c0.1-3.1-0.8-4.1-2.3-3.8c-0.1,0-0.2,0-0.3,0.1
		C224.3,147.1,225,148.1,224.9,151.1z"/>
	<path class="st2" d="M228.3,146.3c0,0,1.8,2.2,3.5,2.1V148c-1.8,0.1-3.5-2.1-3.5-2.1c-0.7,0.6-4.9,1.5-5.4,0.4
		c-0.1-0.2-0.1-0.3-0.2-0.5c0,0.2,0,0.5,0.2,0.9C223.4,147.8,227.7,146.9,228.3,146.3z"/>
</g>
<g>
	<path class="st1" d="M327,163.6l-2.4,1.7c0,0-1.2-3.4-2.2-5.6c-0.4-0.9-1.6-1.2-2.1-2.4c-0.9-2.1,0.2-4,1.3-2.7
		c1.3,1.5,3.2,2.7,3.6,3.6C325.8,159.7,327,163.6,327,163.6z"/>
	<path class="st1" d="M328.9,165c0.2,1.2,0,3-1,5.2c0,0-2.1-2.5-2.4-3.7c0,0-0.6-4.4-1.2-7.2c-0.2-1.2-1.6-1.8-1.9-3.4
		c-0.6-2.8,1.2-4.8,2.2-2.9c1.2,2.2,3.2,4,3.4,5.2C328.5,160,328.6,163.2,328.9,165z"/>
	<path class="st2" d="M325.8,162.7c0,0-0.2-1.7-0.8-4.5c-0.2-1.2-1.6-1.8-1.9-3.4c-0.2-1-0.1-1.8,0.1-2.5c-0.6,0.5-1.1,1.8-0.8,3.4
		c0.3,1.6,1.7,2.3,1.9,3.4c0.2,0.8,0.3,1.6,0.5,2.5l-1.9-0.7C322.9,161,325.8,162.7,325.8,162.7z"/>
	<path class="st1" d="M328,164.5c-2.5-2.2-5.2-3.6-6.9-4.4c-2.6-1.3-1.9,0.5-6.4,1.7c-0.6,0.2-1.3,0.6-0.8,1.7
		c0.5,1.1,4.7,0.3,5.4-0.4c0,0,1.8,2.2,3.5,2.1c0,0-0.3,1.4,0.1,2.1c0,0-2.5,1.3-3.6,2.4l-3-2c-0.2-3.1-0.8-4-2.3-3.8
		c-1.4,0.1-1.3,1.5-1.2,2.5c0.1,2-0.5,2.3,0,3.1c1.8,3,4.1,4.8,8.4,4.8c1.6,0,2.6,0,3.6-0.5C326.6,173,330.7,167,328,164.5z"/>
	<path class="st2" d="M328.5,165.1c0.9,2.8-2.4,7.4-3.8,8.1c-1,0.5-2,0.5-3.6,0.5c-4.2,0-6.6-1.8-8.4-4.7c0,0.2,0.1,0.3,0.2,0.5
		c1.8,3,4.1,4.8,8.4,4.8c1.6,0,2.6,0,3.6-0.5C326.5,173,330.1,167.8,328.5,165.1z"/>
	<path class="st2" d="M315.9,167.8c0,0,2.8,1.8,3.4,1.9l-2.9-2c0.1-3.1-0.8-4.1-2.3-3.8c-0.1,0-0.2,0-0.3,0.1
		C315.3,163.8,316,164.8,315.9,167.8z"/>
	<path class="st2" d="M319.3,163c0,0,1.8,2.2,3.5,2.1v-0.4c-1.8,0.1-3.5-2.1-3.5-2.1c-0.7,0.6-4.9,1.5-5.4,0.4
		c-0.1-0.2-0.1-0.3-0.2-0.5c0,0.2,0,0.5,0.2,0.9C314.4,164.5,318.7,163.7,319.3,163z"/>
</g>
<g>
	<path class="st1" d="M395.2,190.2l-2.4,1.7c0,0-1.2-3.4-2.2-5.6c-0.4-0.9-1.6-1.2-2.1-2.4c-0.9-2.1,0.2-4,1.3-2.7
		c1.3,1.5,3.2,2.7,3.6,3.6C394.1,186.4,395.2,190.2,395.2,190.2z"/>
	<path class="st1" d="M397.1,191.6c0.2,1.2,0,3-1,5.2c0,0-2.1-2.5-2.4-3.7c0,0-0.6-4.4-1.2-7.2c-0.2-1.2-1.6-1.8-1.9-3.4
		c-0.6-2.8,1.2-4.8,2.2-2.9c1.2,2.2,3.2,4,3.4,5.2C396.7,186.7,396.9,189.9,397.1,191.6z"/>
	<path class="st2" d="M394,189.4c0,0-0.2-1.7-0.8-4.5c-0.2-1.2-1.6-1.8-1.9-3.4c-0.2-1-0.1-1.8,0.1-2.5c-0.6,0.5-1.1,1.8-0.8,3.4
		c0.3,1.6,1.7,2.3,1.9,3.4c0.2,0.8,0.3,1.6,0.5,2.5l-1.9-0.7C391.2,187.7,394,189.4,394,189.4z"/>
	<path class="st1" d="M396.3,191.2c-2.5-2.2-5.2-3.6-6.9-4.4c-2.6-1.3-1.9,0.5-6.4,1.7c-0.6,0.2-1.3,0.6-0.8,1.7
		c0.5,1.1,4.7,0.3,5.4-0.4c0,0,1.8,2.2,3.5,2.1c0,0-0.3,1.4,0.1,2.1c0,0-2.5,1.3-3.6,2.4l-3-2c-0.2-3.1-0.8-4-2.3-3.8
		c-1.4,0.1-1.3,1.5-1.2,2.5c0.1,2-0.5,2.3,0,3.1c1.8,3,4.1,4.8,8.4,4.8c1.6,0,2.6,0,3.6-0.5C394.9,199.7,399,193.6,396.3,191.2z"/>
	<path class="st2" d="M396.7,191.8c0.9,2.8-2.4,7.4-3.8,8.1c-1,0.5-2,0.5-3.6,0.5c-4.2,0-6.6-1.8-8.4-4.7c0,0.2,0.1,0.3,0.2,0.5
		c1.8,3,4.1,4.8,8.4,4.8c1.6,0,2.6,0,3.6-0.5C394.7,199.7,398.4,194.5,396.7,191.8z"/>
	<path class="st2" d="M384.1,194.5c0,0,2.8,1.8,3.4,1.9l-2.9-2c0.1-3.1-0.8-4.1-2.3-3.8c-0.1,0-0.2,0-0.3,0.1
		C383.5,190.5,384.3,191.5,384.1,194.5z"/>
	<path class="st2" d="M387.6,189.7c0,0,1.8,2.2,3.5,2.1v-0.4c-1.8,0.1-3.5-2.1-3.5-2.1c-0.7,0.6-4.9,1.5-5.4,0.4
		c-0.1-0.2-0.1-0.3-0.2-0.5c0,0.2,0,0.5,0.2,0.9C382.7,191.2,386.9,190.4,387.6,189.7z"/>
</g>
<g>
	<path class="st1" d="M394.8,139.2l-2.4,1.7c0,0-1.2-3.4-2.2-5.6c-0.4-0.9-1.6-1.2-2.1-2.4c-0.9-2.1,0.2-4,1.3-2.7
		c1.3,1.5,3.2,2.7,3.6,3.6C393.6,135.4,394.8,139.2,394.8,139.2z"/>
	<path class="st1" d="M396.7,140.6c0.2,1.2,0,3-1,5.2c0,0-2.1-2.5-2.4-3.7c0,0-0.6-4.4-1.2-7.2c-0.2-1.2-1.6-1.8-1.9-3.4
		c-0.6-2.8,1.2-4.8,2.2-2.9c1.2,2.2,3.2,4,3.4,5.2C396.3,135.7,396.5,138.9,396.7,140.6z"/>
	<path class="st2" d="M393.6,138.4c0,0-0.2-1.7-0.8-4.5c-0.2-1.2-1.6-1.8-1.9-3.4c-0.2-1-0.1-1.8,0.1-2.5c-0.6,0.5-1.1,1.8-0.8,3.4
		c0.3,1.6,1.7,2.3,1.9,3.4c0.2,0.8,0.3,1.6,0.5,2.5l-1.9-0.7C390.7,136.7,393.6,138.4,393.6,138.4z"/>
	<path class="st1" d="M395.8,140.2c-2.5-2.2-5.2-3.6-6.9-4.4c-2.6-1.3-1.9,0.5-6.4,1.7c-0.6,0.2-1.3,0.6-0.8,1.7
		c0.5,1.1,4.7,0.3,5.4-0.4c0,0,1.8,2.2,3.5,2.1c0,0-0.3,1.4,0.1,2.1c0,0-2.5,1.3-3.6,2.4l-3-2c-0.2-3.1-0.8-4-2.3-3.8
		c-1.4,0.1-1.3,1.5-1.2,2.5c0.1,2-0.5,2.3,0,3.1c1.8,3,4.1,4.8,8.4,4.8c1.6,0,2.6,0,3.6-0.5C394.4,148.7,398.5,142.6,395.8,140.2z"
		/>
	<path class="st2" d="M396.3,140.8c0.9,2.8-2.4,7.4-3.8,8.1c-1,0.5-2,0.5-3.6,0.5c-4.2,0-6.6-1.8-8.4-4.7c0,0.2,0.1,0.3,0.2,0.5
		c1.8,3,4.1,4.8,8.4,4.8c1.6,0,2.6,0,3.6-0.5C394.3,148.7,398,143.5,396.3,140.8z"/>
	<path class="st2" d="M383.7,143.5c0,0,2.8,1.8,3.4,1.9l-2.9-2c0.1-3.1-0.8-4.1-2.3-3.8c-0.1,0-0.2,0-0.3,0.1
		C383.1,139.5,383.9,140.5,383.7,143.5z"/>
	<path class="st2" d="M387.1,138.7c0,0,1.8,2.2,3.5,2.1v-0.4c-1.8,0.1-3.5-2.1-3.5-2.1c-0.7,0.6-4.9,1.5-5.4,0.4
		c-0.1-0.2-0.1-0.3-0.2-0.5c0,0.2,0,0.5,0.2,0.9C382.3,140.2,386.5,139.4,387.1,138.7z"/>
</g>
<g>
	<path class="st1" d="M288.7,131.1l-1.5,1.1c0,0-0.8-2.2-1.4-3.5c-0.2-0.6-1-0.8-1.3-1.5c-0.6-1.4,0.1-2.5,0.8-1.7
		c0.8,1,2,1.7,2.3,2.2C288,128.7,288.7,131.1,288.7,131.1z"/>
	<path class="st1" d="M289.9,132c0.1,0.7,0,1.9-0.6,3.2c0,0-1.3-1.6-1.5-2.3c0,0-0.4-2.8-0.8-4.5c-0.2-0.7-1-1.1-1.2-2.2
		c-0.4-1.8,0.8-3,1.4-1.8c0.7,1.4,2,2.5,2.2,3.3C289.7,128.9,289.8,130.9,289.9,132z"/>
	<path class="st2" d="M287.9,130.6c0,0-0.1-1-0.5-2.8c-0.2-0.7-1-1.1-1.2-2.2c-0.1-0.6-0.1-1.2,0.1-1.6c-0.4,0.3-0.7,1.1-0.5,2.2
		c0.2,1,1.1,1.4,1.2,2.2c0.1,0.5,0.2,1,0.3,1.6l-1.2-0.4C286.1,129.5,287.9,130.6,287.9,130.6z"/>
	<path class="st1" d="M289.4,131.7c-1.5-1.4-3.3-2.3-4.4-2.8c-1.7-0.8-1.2,0.3-4,1c-0.4,0.1-0.8,0.4-0.5,1.1c0.3,0.7,3,0.2,3.4-0.2
		c0,0,1.1,1.4,2.2,1.3c0,0-0.2,0.9,0.1,1.3c0,0-1.6,0.8-2.3,1.5l-1.9-1.3c-0.1-1.9-0.5-2.5-1.4-2.4c-0.9,0.1-0.8,0.9-0.8,1.6
		c0,1.2-0.3,1.4,0,1.9c1.2,1.9,2.6,3,5.3,3c1,0,1.7,0,2.3-0.3C288.5,137.1,291.1,133.3,289.4,131.7z"/>
	<path class="st2" d="M289.7,132.1c0.6,1.8-1.5,4.7-2.4,5.1c-0.6,0.3-1.3,0.3-2.3,0.3c-2.7,0-4.1-1.1-5.3-3c0,0.1,0.1,0.2,0.1,0.3
		c1.2,1.9,2.6,3,5.3,3c1,0,1.7,0,2.3-0.3C288.4,137.1,290.7,133.8,289.7,132.1z"/>
	<path class="st2" d="M281.7,133.8c0,0,1.7,1.1,2.2,1.2l-1.8-1.2c0.1-2-0.5-2.6-1.4-2.4c-0.1,0-0.1,0-0.2,0
		C281.3,131.3,281.8,131.9,281.7,133.8z"/>
	<path class="st2" d="M283.9,130.8c0,0,1.1,1.4,2.2,1.3v-0.3c-1.1,0-2.2-1.3-2.2-1.3c-0.4,0.4-3.1,0.9-3.4,0.2
		c-0.1-0.1-0.1-0.2-0.1-0.3c0,0.1,0,0.3,0.1,0.6C280.8,131.7,283.5,131.2,283.9,130.8z"/>
</g>
<g>
	<path class="st1" d="M232.2,168.1l-1.5,1.1c0,0-0.8-2.2-1.4-3.5c-0.2-0.6-1-0.8-1.3-1.5c-0.6-1.4,0.1-2.5,0.8-1.7
		c0.8,1,2,1.7,2.3,2.2C231.5,165.7,232.2,168.1,232.2,168.1z"/>
	<path class="st1" d="M233.4,169c0.1,0.7,0,1.9-0.6,3.2c0,0-1.3-1.6-1.5-2.3c0,0-0.4-2.8-0.8-4.5c-0.2-0.7-1-1.1-1.2-2.2
		c-0.4-1.8,0.8-3,1.4-1.8c0.7,1.4,2,2.5,2.2,3.3C233.2,165.9,233.3,167.9,233.4,169z"/>
	<path class="st2" d="M231.4,167.6c0,0-0.1-1-0.5-2.8c-0.2-0.7-1-1.1-1.2-2.2c-0.1-0.6-0.1-1.2,0.1-1.6c-0.4,0.3-0.7,1.1-0.5,2.2
		c0.2,1,1.1,1.4,1.2,2.2c0.1,0.5,0.2,1,0.3,1.6l-1.2-0.4C229.6,166.5,231.4,167.6,231.4,167.6z"/>
	<path class="st1" d="M232.9,168.7c-1.5-1.4-3.3-2.3-4.4-2.8c-1.7-0.8-1.2,0.3-4,1c-0.4,0.1-0.8,0.4-0.5,1.1c0.3,0.7,3,0.2,3.4-0.2
		c0,0,1.1,1.4,2.2,1.3c0,0-0.2,0.9,0.1,1.3c0,0-1.6,0.8-2.3,1.5l-1.9-1.3c-0.1-1.9-0.5-2.5-1.4-2.4c-0.9,0.1-0.8,0.9-0.8,1.6
		c0,1.2-0.3,1.4,0,1.9c1.2,1.9,2.6,3,5.3,3c1,0,1.7,0,2.3-0.3C232,174.1,234.6,170.3,232.9,168.7z"/>
	<path class="st2" d="M233.2,169.1c0.6,1.8-1.5,4.7-2.4,5.1c-0.6,0.3-1.3,0.3-2.3,0.3c-2.7,0-4.1-1.1-5.3-3c0,0.1,0.1,0.2,0.1,0.3
		c1.2,1.9,2.6,3,5.3,3c1,0,1.7,0,2.3-0.3C231.9,174.1,234.2,170.8,233.2,169.1z"/>
	<path class="st2" d="M225.2,170.8c0,0,1.7,1.1,2.2,1.2l-1.8-1.2c0.1-2-0.5-2.6-1.4-2.4c-0.1,0-0.1,0-0.2,0
		C224.8,168.3,225.3,168.9,225.2,170.8z"/>
	<path class="st2" d="M227.4,167.8c0,0,1.1,1.4,2.2,1.3v-0.3c-1.1,0-2.2-1.3-2.2-1.3c-0.4,0.4-3.1,0.9-3.4,0.2
		c-0.1-0.1-0.1-0.2-0.1-0.3c0,0.1,0,0.3,0.1,0.6C224.3,168.7,227,168.2,227.4,167.8z"/>
</g>
<g>
	<path class="st1" d="M135.4,127.6l-1.5,1.1c0,0-0.8-2.2-1.4-3.5c-0.2-0.6-1-0.8-1.3-1.5c-0.6-1.4,0.1-2.5,0.8-1.7
		c0.8,1,2,1.7,2.3,2.2C134.7,125.2,135.4,127.6,135.4,127.6z"/>
	<path class="st1" d="M136.7,128.5c0.1,0.7,0,1.9-0.6,3.2c0,0-1.3-1.6-1.5-2.3c0,0-0.4-2.8-0.8-4.5c-0.2-0.7-1-1.1-1.2-2.2
		c-0.4-1.8,0.8-3,1.4-1.8c0.7,1.4,2,2.5,2.2,3.3C136.4,125.4,136.5,127.4,136.7,128.5z"/>
	<path class="st2" d="M134.7,127.1c0,0-0.1-1-0.5-2.8c-0.2-0.7-1-1.1-1.2-2.2c-0.1-0.6-0.1-1.2,0.1-1.6c-0.4,0.3-0.7,1.1-0.5,2.2
		c0.2,1,1.1,1.4,1.2,2.2c0.1,0.5,0.2,1,0.3,1.6l-1.2-0.4C132.9,126,134.7,127.1,134.7,127.1z"/>
	<path class="st1" d="M136.1,128.2c-1.5-1.4-3.3-2.3-4.4-2.8c-1.7-0.8-1.2,0.3-4,1c-0.4,0.1-0.8,0.4-0.5,1.1c0.3,0.7,3,0.2,3.4-0.2
		c0,0,1.1,1.4,2.2,1.3c0,0-0.2,0.9,0.1,1.3c0,0-1.6,0.8-2.3,1.5l-1.9-1.3c-0.1-1.9-0.5-2.5-1.4-2.4c-0.9,0.1-0.8,0.9-0.8,1.6
		c0,1.2-0.3,1.4,0,1.9c1.2,1.9,2.6,3,5.3,3c1,0,1.7,0,2.3-0.3C135.2,133.6,137.8,129.8,136.1,128.2z"/>
	<path class="st2" d="M136.4,128.6c0.6,1.8-1.5,4.7-2.4,5.1c-0.6,0.3-1.3,0.3-2.3,0.3c-2.7,0-4.1-1.1-5.3-3c0,0.1,0.1,0.2,0.1,0.3
		c1.2,1.9,2.6,3,5.3,3c1,0,1.7,0,2.3-0.3C135.1,133.6,137.4,130.3,136.4,128.6z"/>
	<path class="st2" d="M128.5,130.3c0,0,1.7,1.1,2.2,1.2l-1.8-1.2c0.1-2-0.5-2.6-1.4-2.4c-0.1,0-0.1,0-0.2,0
		C128.1,127.8,128.5,128.4,128.5,130.3z"/>
	<path class="st2" d="M130.6,127.3c0,0,1.1,1.4,2.2,1.3v-0.3c-1.1,0-2.2-1.3-2.2-1.3c-0.4,0.4-3.1,0.9-3.4,0.2
		c-0.1-0.1-0.1-0.2-0.1-0.3c0,0.1,0,0.3,0.1,0.6C127.6,128.2,130.2,127.7,130.6,127.3z"/>
</g>
<g>
	<path class="st1" d="M40.7,127.4l-1.5,1.1c0,0-0.8-2.2-1.4-3.5c-0.2-0.6-1-0.8-1.3-1.5c-0.6-1.4,0.1-2.5,0.8-1.7
		c0.8,1,2,1.7,2.3,2.2C40,124.9,40.7,127.4,40.7,127.4z"/>
	<path class="st1" d="M41.9,128.2c0.1,0.7,0,1.9-0.6,3.2c0,0-1.3-1.6-1.5-2.3c0,0-0.4-2.8-0.8-4.5c-0.2-0.7-1-1.1-1.2-2.2
		c-0.4-1.8,0.8-3,1.4-1.8c0.7,1.4,2,2.5,2.2,3.3C41.7,125.1,41.8,127.2,41.9,128.2z"/>
	<path class="st2" d="M39.9,126.9c0,0-0.1-1-0.5-2.8c-0.2-0.7-1-1.1-1.2-2.2c-0.1-0.6-0.1-1.2,0.1-1.6c-0.4,0.3-0.7,1.1-0.5,2.2
		c0.2,1,1.1,1.4,1.2,2.2c0.1,0.5,0.2,1,0.3,1.6l-1.2-0.4C38.1,125.8,39.9,126.9,39.9,126.9z"/>
	<path class="st1" d="M41.4,128c-1.5-1.4-3.3-2.3-4.4-2.8c-1.7-0.8-1.2,0.3-4,1c-0.4,0.1-0.8,0.4-0.5,1.1c0.3,0.7,3,0.2,3.4-0.2
		c0,0,1.1,1.4,2.2,1.3c0,0-0.2,0.9,0.1,1.3c0,0-1.6,0.8-2.3,1.5L34,130c-0.1-1.9-0.5-2.5-1.4-2.4c-0.9,0.1-0.8,0.9-0.8,1.6
		c0,1.2-0.3,1.4,0,1.9c1.2,1.9,2.6,3,5.3,3c1,0,1.7,0,2.3-0.3C40.5,133.3,43.1,129.5,41.4,128z"/>
	<path class="st2" d="M41.7,128.3c0.6,1.8-1.5,4.7-2.4,5.1c-0.6,0.3-1.3,0.3-2.3,0.3c-2.7,0-4.1-1.1-5.3-3c0,0.1,0.1,0.2,0.1,0.3
		c1.2,1.9,2.6,3,5.3,3c1,0,1.7,0,2.3-0.3C40.4,133.3,42.7,130.1,41.7,128.3z"/>
	<path class="st2" d="M33.7,130.1c0,0,1.7,1.1,2.2,1.2L34,130c0.1-2-0.5-2.6-1.4-2.4c-0.1,0-0.1,0-0.2,0
		C33.3,127.5,33.8,128.2,33.7,130.1z"/>
	<path class="st2" d="M35.9,127c0,0,1.1,1.4,2.2,1.3v-0.3c-1.1,0-2.2-1.3-2.2-1.3c-0.4,0.4-3.1,0.9-3.4,0.2
		c-0.1-0.1-0.1-0.2-0.1-0.3c0,0.1,0,0.3,0.1,0.6C32.8,128,35.5,127.5,35.9,127z"/>
</g>
<g>
	<path class="st1" d="M82.3,151.9l-1.5,1.1c0,0-0.8-2.2-1.4-3.5c-0.2-0.6-1-0.8-1.3-1.5c-0.6-1.4,0.1-2.5,0.8-1.7
		c0.8,1,2,1.7,2.3,2.2C81.5,149.5,82.3,151.9,82.3,151.9z"/>
	<path class="st1" d="M83.5,152.8c0.1,0.7,0,1.9-0.6,3.2c0,0-1.3-1.6-1.5-2.3c0,0-0.4-2.8-0.8-4.5c-0.2-0.7-1-1.1-1.2-2.2
		c-0.4-1.8,0.8-3,1.4-1.8c0.7,1.4,2,2.5,2.2,3.3C83.2,149.7,83.3,151.7,83.5,152.8z"/>
	<path class="st2" d="M81.5,151.4c0,0-0.1-1-0.5-2.8c-0.2-0.7-1-1.1-1.2-2.2c-0.1-0.6-0.1-1.2,0.1-1.6c-0.4,0.3-0.7,1.1-0.5,2.2
		c0.2,1,1.1,1.4,1.2,2.2c0.1,0.5,0.2,1,0.3,1.6l-1.2-0.4C79.7,150.3,81.5,151.4,81.5,151.4z"/>
	<path class="st1" d="M82.9,152.5c-1.5-1.4-3.3-2.3-4.4-2.8c-1.7-0.8-1.2,0.3-4,1c-0.4,0.1-0.8,0.4-0.5,1.1c0.3,0.7,3,0.2,3.4-0.2
		c0,0,1.1,1.4,2.2,1.3c0,0-0.2,0.9,0.1,1.3c0,0-1.6,0.8-2.3,1.5l-1.9-1.3c-0.1-1.9-0.5-2.5-1.4-2.4c-0.9,0.1-0.8,0.9-0.8,1.6
		c0,1.2-0.3,1.4,0,1.9c1.2,1.9,2.6,3,5.3,3c1,0,1.7,0,2.3-0.3C82,157.8,84.6,154.1,82.9,152.5z"/>
	<path class="st2" d="M83.2,152.9c0.6,1.8-1.5,4.7-2.4,5.1c-0.6,0.3-1.3,0.3-2.3,0.3c-2.7,0-4.1-1.1-5.3-3c0,0.1,0.1,0.2,0.1,0.3
		c1.2,1.9,2.6,3,5.3,3c1,0,1.7,0,2.3-0.3C82,157.9,84.3,154.6,83.2,152.9z"/>
	<path class="st2" d="M75.3,154.6c0,0,1.7,1.1,2.2,1.2l-1.8-1.2c0.1-2-0.5-2.6-1.4-2.4c-0.1,0-0.1,0-0.2,0
		C74.9,152.1,75.4,152.7,75.3,154.6z"/>
	<path class="st2" d="M77.4,151.6c0,0,1.1,1.4,2.2,1.3v-0.3c-1.1,0-2.2-1.3-2.2-1.3c-0.4,0.4-3.1,0.9-3.4,0.2
		c-0.1-0.1-0.1-0.2-0.1-0.3c0,0.1,0,0.3,0.1,0.6C74.4,152.5,77,152,77.4,151.6z"/>
</g>
<g>
	<path class="st1" d="M11.3,159.9L9.7,161c0,0-0.8-2.2-1.4-3.5c-0.2-0.6-1-0.8-1.3-1.5c-0.6-1.4,0.1-2.5,0.8-1.7
		c0.8,1,2,1.7,2.3,2.2C10.5,157.5,11.3,159.9,11.3,159.9z"/>
	<path class="st1" d="M12.5,160.8c0.1,0.7,0,1.9-0.6,3.2c0,0-1.3-1.6-1.5-2.3c0,0-0.4-2.8-0.8-4.5c-0.2-0.7-1-1.1-1.2-2.2
		c-0.4-1.8,0.8-3,1.4-1.8c0.7,1.4,2,2.5,2.2,3.3C12.2,157.7,12.3,159.7,12.5,160.8z"/>
	<path class="st2" d="M10.5,159.4c0,0-0.1-1-0.5-2.8c-0.2-0.7-1-1.1-1.2-2.2c-0.1-0.6-0.1-1.2,0.1-1.6c-0.4,0.3-0.7,1.1-0.5,2.2
		c0.2,1,1.1,1.4,1.2,2.2c0.1,0.5,0.2,1,0.3,1.6l-1.2-0.4C8.7,158.3,10.5,159.4,10.5,159.4z"/>
	<path class="st1" d="M11.9,160.5c-1.5-1.4-3.3-2.3-4.4-2.8c-1.7-0.8-1.2,0.3-4,1c-0.4,0.1-0.8,0.4-0.5,1.1c0.3,0.7,3,0.2,3.4-0.2
		c0,0,1.1,1.4,2.2,1.3c0,0-0.2,0.9,0.1,1.3c0,0-1.6,0.8-2.3,1.5l-1.9-1.3c-0.1-1.9-0.5-2.5-1.4-2.4c-0.9,0.1-0.8,0.9-0.8,1.6
		c0,1.2-0.3,1.4,0,1.9c1.2,1.9,2.6,3,5.3,3c1,0,1.7,0,2.3-0.3C11,165.8,13.6,162.1,11.9,160.5z"/>
	<path class="st2" d="M12.2,160.9c0.6,1.8-1.5,4.7-2.4,5.1c-0.6,0.3-1.3,0.3-2.3,0.3c-2.7,0-4.1-1.1-5.3-3c0,0.1,0.1,0.2,0.1,0.3
		c1.2,1.9,2.6,3,5.3,3c1,0,1.7,0,2.3-0.3C11,165.9,13.3,162.6,12.2,160.9z"/>
	<path class="st2" d="M4.3,162.6c0,0,1.7,1.1,2.2,1.2l-1.8-1.2c0.1-2-0.5-2.6-1.4-2.4c-0.1,0-0.1,0-0.2,0
		C3.9,160.1,4.4,160.7,4.3,162.6z"/>
	<path class="st2" d="M6.4,159.6c0,0,1.1,1.4,2.2,1.3v-0.3c-1.1,0-2.2-1.3-2.2-1.3c-0.4,0.4-3.1,0.9-3.4,0.2
		c-0.1-0.1-0.1-0.2-0.1-0.3c0,0.1,0,0.3,0.1,0.6C3.4,160.5,6,160,6.4,159.6z"/>
</g>
<g>
	<path class="st1" d="M178.4,167.9l-1.5,1.1c0,0-0.8-2.2-1.4-3.5c-0.2-0.6-1-0.8-1.3-1.5c-0.6-1.4,0.1-2.5,0.8-1.7
		c0.8,1,2,1.7,2.3,2.2C177.7,165.4,178.4,167.9,178.4,167.9z"/>
	<path class="st1" d="M179.7,168.7c0.1,0.7,0,1.9-0.6,3.2c0,0-1.3-1.6-1.5-2.3c0,0-0.4-2.8-0.8-4.5c-0.2-0.7-1-1.1-1.2-2.2
		c-0.4-1.8,0.8-3,1.4-1.8c0.7,1.4,2,2.5,2.2,3.3C179.4,165.6,179.5,167.7,179.7,168.7z"/>
	<path class="st2" d="M177.7,167.4c0,0-0.1-1-0.5-2.8c-0.2-0.7-1-1.1-1.2-2.2c-0.1-0.6-0.1-1.2,0.1-1.6c-0.4,0.3-0.7,1.1-0.5,2.2
		c0.2,1,1.1,1.4,1.2,2.2c0.1,0.5,0.2,1,0.3,1.6l-1.2-0.4C175.9,166.3,177.7,167.4,177.7,167.4z"/>
	<path class="st1" d="M179.1,168.5c-1.5-1.4-3.3-2.3-4.4-2.8c-1.7-0.8-1.2,0.3-4,1c-0.4,0.1-0.8,0.4-0.5,1.1c0.3,0.7,3,0.2,3.4-0.2
		c0,0,1.1,1.4,2.2,1.3c0,0-0.2,0.9,0.1,1.3c0,0-1.6,0.8-2.3,1.5l-1.9-1.3c-0.1-1.9-0.5-2.5-1.4-2.4c-0.9,0.1-0.8,0.9-0.8,1.6
		c0,1.2-0.3,1.4,0,1.9c1.2,1.9,2.6,3,5.3,3c1,0,1.7,0,2.3-0.3C178.2,173.8,180.8,170,179.1,168.5z"/>
	<path class="st2" d="M179.4,168.8c0.6,1.8-1.5,4.7-2.4,5.1c-0.6,0.3-1.3,0.3-2.3,0.3c-2.7,0-4.1-1.1-5.3-3c0,0.1,0.1,0.2,0.1,0.3
		c1.2,1.9,2.6,3,5.3,3c1,0,1.7,0,2.3-0.3C178.1,173.8,180.4,170.6,179.4,168.8z"/>
	<path class="st2" d="M171.5,170.6c0,0,1.7,1.1,2.2,1.2l-1.8-1.2c0.1-2-0.5-2.6-1.4-2.4c-0.1,0-0.1,0-0.2,0
		C171.1,168,171.5,168.7,171.5,170.6z"/>
	<path class="st2" d="M173.6,167.5c0,0,1.1,1.4,2.2,1.3v-0.3c-1.1,0-2.2-1.3-2.2-1.3c-0.4,0.4-3.1,0.9-3.4,0.2
		c-0.1-0.1-0.1-0.2-0.1-0.3c0,0.1,0,0.3,0.1,0.6C170.6,168.5,173.2,168,173.6,167.5z"/>
</g>
<g>
	<path class="st1" d="M320.2,144.6l-1.5,1.1c0,0-0.8-2.2-1.4-3.5c-0.2-0.6-1-0.8-1.3-1.5c-0.6-1.4,0.1-2.5,0.8-1.7
		c0.8,1,2,1.7,2.3,2.2C319.5,142.2,320.2,144.6,320.2,144.6z"/>
	<path class="st1" d="M321.4,145.5c0.1,0.7,0,1.9-0.6,3.2c0,0-1.3-1.6-1.5-2.3c0,0-0.4-2.8-0.8-4.5c-0.2-0.7-1-1.1-1.2-2.2
		c-0.4-1.8,0.8-3,1.4-1.8c0.7,1.4,2,2.5,2.2,3.3C321.2,142.4,321.3,144.4,321.4,145.5z"/>
	<path class="st2" d="M319.4,144.1c0,0-0.1-1-0.5-2.8c-0.2-0.7-1-1.1-1.2-2.2c-0.1-0.6-0.1-1.2,0.1-1.6c-0.4,0.3-0.7,1.1-0.5,2.2
		c0.2,1,1.1,1.4,1.2,2.2c0.1,0.5,0.2,1,0.3,1.6l-1.2-0.4C317.6,143,319.4,144.1,319.4,144.1z"/>
	<path class="st1" d="M320.9,145.2c-1.5-1.4-3.3-2.3-4.4-2.8c-1.7-0.8-1.2,0.3-4,1c-0.4,0.1-0.8,0.4-0.5,1.1c0.3,0.7,3,0.2,3.4-0.2
		c0,0,1.1,1.4,2.2,1.3c0,0-0.2,0.9,0.1,1.3c0,0-1.6,0.8-2.3,1.5l-1.9-1.3c-0.1-1.9-0.5-2.5-1.4-2.4c-0.9,0.1-0.8,0.9-0.8,1.6
		c0,1.2-0.3,1.4,0,1.9c1.2,1.9,2.6,3,5.3,3c1,0,1.7,0,2.3-0.3C320,150.6,322.6,146.8,320.9,145.2z"/>
	<path class="st2" d="M321.2,145.6c0.6,1.8-1.5,4.7-2.4,5.1c-0.6,0.3-1.3,0.3-2.3,0.3c-2.7,0-4.1-1.1-5.3-3c0,0.1,0.1,0.2,0.1,0.3
		c1.2,1.9,2.6,3,5.3,3c1,0,1.7,0,2.3-0.3C319.9,150.6,322.2,147.3,321.2,145.6z"/>
	<path class="st2" d="M313.2,147.3c0,0,1.7,1.1,2.2,1.2l-1.8-1.2c0.1-2-0.5-2.6-1.4-2.4c-0.1,0-0.1,0-0.2,0
		C312.8,144.8,313.3,145.4,313.2,147.3z"/>
	<path class="st2" d="M315.4,144.3c0,0,1.1,1.4,2.2,1.3v-0.3c-1.1,0-2.2-1.3-2.2-1.3c-0.4,0.4-3.1,0.9-3.4,0.2
		c-0.1-0.1-0.1-0.2-0.1-0.3c0,0.1,0,0.3,0.1,0.6C312.3,145.2,315,144.7,315.4,144.3z"/>
</g>
<g>
	<path class="st1" d="M371.5,131.9L370,133c0,0-0.8-2.2-1.4-3.5c-0.2-0.6-1-0.8-1.3-1.5c-0.6-1.4,0.1-2.5,0.8-1.7
		c0.8,1,2,1.7,2.3,2.2C370.8,129.5,371.5,131.9,371.5,131.9z"/>
	<path class="st1" d="M372.8,132.8c0.1,0.7,0,1.9-0.6,3.2c0,0-1.3-1.6-1.5-2.3c0,0-0.4-2.8-0.8-4.5c-0.2-0.7-1-1.1-1.2-2.2
		c-0.4-1.8,0.8-3,1.4-1.8c0.7,1.4,2,2.5,2.2,3.3C372.5,129.7,372.6,131.8,372.8,132.8z"/>
	<path class="st2" d="M370.8,131.4c0,0-0.1-1-0.5-2.8c-0.2-0.7-1-1.1-1.2-2.2c-0.1-0.6-0.1-1.2,0.1-1.6c-0.4,0.3-0.7,1.1-0.5,2.2
		c0.2,1,1.1,1.4,1.2,2.2c0.1,0.5,0.2,1,0.3,1.6l-1.2-0.4C369,130.3,370.8,131.4,370.8,131.4z"/>
	<path class="st1" d="M372.2,132.6c-1.5-1.4-3.3-2.3-4.4-2.8c-1.7-0.8-1.2,0.3-4,1c-0.4,0.1-0.8,0.4-0.5,1.1c0.3,0.7,3,0.2,3.4-0.2
		c0,0,1.1,1.4,2.2,1.3c0,0-0.2,0.9,0.1,1.3c0,0-1.6,0.8-2.3,1.5l-1.9-1.3c-0.1-1.9-0.5-2.5-1.4-2.4c-0.9,0.1-0.8,0.9-0.8,1.6
		c0,1.2-0.3,1.4,0,1.9c1.2,1.9,2.6,3,5.3,3c1,0,1.7,0,2.3-0.3C371.3,137.9,373.9,134.1,372.2,132.6z"/>
	<path class="st2" d="M372.5,132.9c0.6,1.8-1.5,4.7-2.4,5.1c-0.6,0.3-1.3,0.3-2.3,0.3c-2.7,0-4.1-1.1-5.3-3c0,0.1,0.1,0.2,0.1,0.3
		c1.2,1.9,2.6,3,5.3,3c1,0,1.7,0,2.3-0.3C371.2,137.9,373.5,134.6,372.5,132.9z"/>
	<path class="st2" d="M364.6,134.6c0,0,1.7,1.1,2.2,1.2l-1.8-1.2c0.1-2-0.5-2.6-1.4-2.4c-0.1,0-0.1,0-0.2,0
		C364.2,132.1,364.6,132.7,364.6,134.6z"/>
	<path class="st2" d="M366.7,131.6c0,0,1.1,1.4,2.2,1.3v-0.3c-1.1,0-2.2-1.3-2.2-1.3c-0.4,0.4-3.1,0.9-3.4,0.2
		c-0.1-0.1-0.1-0.2-0.1-0.3c0,0.1,0,0.3,0.1,0.6C363.6,132.6,366.3,132,366.7,131.6z"/>
</g>
<g>
	<path class="st1" d="M83.5,108.9L82,110c0,0-0.8-2.2-1.4-3.5c-0.2-0.6-1-0.8-1.3-1.5c-0.6-1.4,0.1-2.5,0.8-1.7c0.8,1,2,1.7,2.3,2.2
		C82.8,106.5,83.5,108.9,83.5,108.9z"/>
	<path class="st1" d="M84.8,109.8c0.1,0.7,0,1.9-0.6,3.2c0,0-1.3-1.6-1.5-2.3c0,0-0.4-2.8-0.8-4.5c-0.2-0.7-1-1.1-1.2-2.2
		c-0.4-1.8,0.8-3,1.4-1.8c0.7,1.4,2,2.5,2.2,3.3C84.5,106.7,84.6,108.8,84.8,109.8z"/>
	<path class="st2" d="M82.8,108.4c0,0-0.1-1-0.5-2.8c-0.2-0.7-1-1.1-1.2-2.2c-0.1-0.6-0.1-1.2,0.1-1.6c-0.4,0.3-0.7,1.1-0.5,2.2
		c0.2,1,1.1,1.4,1.2,2.2c0.1,0.5,0.2,1,0.3,1.6l-1.2-0.4C81,107.3,82.8,108.4,82.8,108.4z"/>
	<path class="st1" d="M84.2,109.6c-1.5-1.4-3.3-2.3-4.4-2.8c-1.7-0.8-1.2,0.3-4,1c-0.4,0.1-0.8,0.4-0.5,1.1c0.3,0.7,3,0.2,3.4-0.2
		c0,0,1.1,1.4,2.2,1.3c0,0-0.2,0.9,0.1,1.3c0,0-1.6,0.8-2.3,1.5l-1.9-1.3c-0.1-1.9-0.5-2.5-1.4-2.4c-0.9,0.1-0.8,0.9-0.8,1.6
		c0,1.2-0.3,1.4,0,1.9c1.2,1.9,2.6,3,5.3,3c1,0,1.7,0,2.3-0.3C83.3,114.9,85.9,111.1,84.2,109.6z"/>
	<path class="st2" d="M84.5,109.9c0.6,1.8-1.5,4.7-2.4,5.1c-0.6,0.3-1.3,0.3-2.3,0.3c-2.7,0-4.1-1.1-5.3-3c0,0.1,0.1,0.2,0.1,0.3
		c1.2,1.9,2.6,3,5.3,3c1,0,1.7,0,2.3-0.3C83.2,114.9,85.5,111.6,84.5,109.9z"/>
	<path class="st2" d="M76.6,111.6c0,0,1.7,1.1,2.2,1.2l-1.8-1.2c0.1-2-0.5-2.6-1.4-2.4c-0.1,0-0.1,0-0.2,0
		C76.2,109.1,76.6,109.7,76.6,111.6z"/>
	<path class="st2" d="M78.7,108.6c0,0,1.1,1.4,2.2,1.3v-0.3c-1.1,0-2.2-1.3-2.2-1.3c-0.4,0.4-3.1,0.9-3.4,0.2
		c-0.1-0.1-0.1-0.2-0.1-0.3c0,0.1,0,0.3,0.1,0.6C75.6,109.6,78.3,109,78.7,108.6z"/>
</g>
<g>
	<path class="st1" d="M46.5,168.9L45,170c0,0-0.8-2.2-1.4-3.5c-0.2-0.6-1-0.8-1.3-1.5c-0.6-1.4,0.1-2.5,0.8-1.7c0.8,1,2,1.7,2.3,2.2
		C45.8,166.5,46.5,168.9,46.5,168.9z"/>
	<path class="st1" d="M47.8,169.8c0.1,0.7,0,1.9-0.6,3.2c0,0-1.3-1.6-1.5-2.3c0,0-0.4-2.8-0.8-4.5c-0.2-0.7-1-1.1-1.2-2.2
		c-0.4-1.8,0.8-3,1.4-1.8c0.7,1.4,2,2.5,2.2,3.3C47.5,166.7,47.6,168.8,47.8,169.8z"/>
	<path class="st2" d="M45.8,168.4c0,0-0.1-1-0.5-2.8c-0.2-0.7-1-1.1-1.2-2.2c-0.1-0.6-0.1-1.2,0.1-1.6c-0.4,0.3-0.7,1.1-0.5,2.2
		c0.2,1,1.1,1.4,1.2,2.2c0.1,0.5,0.2,1,0.3,1.6l-1.2-0.4C44,167.3,45.8,168.4,45.8,168.4z"/>
	<path class="st1" d="M47.2,169.6c-1.5-1.4-3.3-2.3-4.4-2.8c-1.7-0.8-1.2,0.3-4,1c-0.4,0.1-0.8,0.4-0.5,1.1c0.3,0.7,3,0.2,3.4-0.2
		c0,0,1.1,1.4,2.2,1.3c0,0-0.2,0.9,0.1,1.3c0,0-1.6,0.8-2.3,1.5l-1.9-1.3c-0.1-1.9-0.5-2.5-1.4-2.4c-0.9,0.1-0.8,0.9-0.8,1.6
		c0,1.2-0.3,1.4,0,1.9c1.2,1.9,2.6,3,5.3,3c1,0,1.7,0,2.3-0.3C46.3,174.9,48.9,171.1,47.2,169.6z"/>
	<path class="st2" d="M47.5,169.9c0.6,1.8-1.5,4.7-2.4,5.1c-0.6,0.3-1.3,0.3-2.3,0.3c-2.7,0-4.1-1.1-5.3-3c0,0.1,0.1,0.2,0.1,0.3
		c1.2,1.9,2.6,3,5.3,3c1,0,1.7,0,2.3-0.3C46.2,174.9,48.5,171.6,47.5,169.9z"/>
	<path class="st2" d="M39.6,171.6c0,0,1.7,1.1,2.2,1.2l-1.8-1.2c0.1-2-0.5-2.6-1.4-2.4c-0.1,0-0.1,0-0.2,0
		C39.2,169.1,39.6,169.7,39.6,171.6z"/>
	<path class="st2" d="M41.7,168.6c0,0,1.1,1.4,2.2,1.3v-0.3c-1.1,0-2.2-1.3-2.2-1.3c-0.4,0.4-3.1,0.9-3.4,0.2
		c-0.1-0.1-0.1-0.2-0.1-0.3c0,0.1,0,0.3,0.1,0.6C38.6,169.6,41.3,169,41.7,168.6z"/>
</g>
<g>
	<path class="st1" d="M139.5,170.6l-1.5,1.1c0,0-0.8-2.2-1.4-3.5c-0.2-0.6-1-0.8-1.3-1.5c-0.6-1.4,0.1-2.5,0.8-1.7
		c0.8,1,2,1.7,2.3,2.2C138.8,168.2,139.5,170.6,139.5,170.6z"/>
	<path class="st1" d="M140.7,171.5c0.1,0.7,0,1.9-0.6,3.2c0,0-1.3-1.6-1.5-2.3c0,0-0.4-2.8-0.8-4.5c-0.2-0.7-1-1.1-1.2-2.2
		c-0.4-1.8,0.8-3,1.4-1.8c0.7,1.4,2,2.5,2.2,3.3C140.5,168.4,140.6,170.5,140.7,171.5z"/>
	<path class="st2" d="M138.8,170.1c0,0-0.1-1-0.5-2.8c-0.2-0.7-1-1.1-1.2-2.2c-0.1-0.6-0.1-1.2,0.1-1.6c-0.4,0.3-0.7,1.1-0.5,2.2
		c0.2,1,1.1,1.4,1.2,2.2c0.1,0.5,0.2,1,0.3,1.6L137,169C137,169,138.8,170.1,138.8,170.1z"/>
	<path class="st1" d="M140.2,171.3c-1.5-1.4-3.3-2.3-4.4-2.8c-1.7-0.8-1.2,0.3-4,1c-0.4,0.1-0.8,0.4-0.5,1.1c0.3,0.7,3,0.2,3.4-0.2
		c0,0,1.1,1.4,2.2,1.3c0,0-0.2,0.9,0.1,1.3c0,0-1.6,0.8-2.3,1.5l-1.9-1.3c-0.1-1.9-0.5-2.5-1.4-2.4c-0.9,0.1-0.8,0.9-0.8,1.6
		c0,1.2-0.3,1.4,0,1.9c1.2,1.9,2.6,3,5.3,3c1,0,1.7,0,2.3-0.3C139.3,176.6,141.9,172.8,140.2,171.3z"/>
	<path class="st2" d="M140.5,171.6c0.6,1.8-1.5,4.7-2.4,5.1c-0.6,0.3-1.3,0.3-2.3,0.3c-2.7,0-4.1-1.1-5.3-3c0,0.1,0.1,0.2,0.1,0.3
		c1.2,1.9,2.6,3,5.3,3c1,0,1.7,0,2.3-0.3C139.2,176.6,141.5,173.3,140.5,171.6z"/>
	<path class="st2" d="M132.5,173.3c0,0,1.7,1.1,2.2,1.2l-1.8-1.2c0.1-2-0.5-2.6-1.4-2.4c-0.1,0-0.1,0-0.2,0
		C132.2,170.8,132.6,171.4,132.5,173.3z"/>
	<path class="st2" d="M134.7,170.3c0,0,1.1,1.4,2.2,1.3v-0.3c-1.1,0-2.2-1.3-2.2-1.3c-0.4,0.4-3.1,0.9-3.4,0.2
		c-0.1-0.1-0.1-0.2-0.1-0.3c0,0.1,0,0.3,0.1,0.6C131.6,171.3,134.3,170.7,134.7,170.3z"/>
</g>
<g>
	<path class="st1" d="M295.5,188.6l-1.5,1.1c0,0-0.8-2.2-1.4-3.5c-0.2-0.6-1-0.8-1.3-1.5c-0.6-1.4,0.1-2.5,0.8-1.7
		c0.8,1,2,1.7,2.3,2.2C294.8,186.2,295.5,188.6,295.5,188.6z"/>
	<path class="st1" d="M296.7,189.5c0.1,0.7,0,1.9-0.6,3.2c0,0-1.3-1.6-1.5-2.3c0,0-0.4-2.8-0.8-4.5c-0.2-0.7-1-1.1-1.2-2.2
		c-0.4-1.8,0.8-3,1.4-1.8c0.7,1.4,2,2.5,2.2,3.3C296.5,186.4,296.6,188.5,296.7,189.5z"/>
	<path class="st2" d="M294.8,188.1c0,0-0.1-1-0.5-2.8c-0.2-0.7-1-1.1-1.2-2.2c-0.1-0.6-0.1-1.2,0.1-1.6c-0.4,0.3-0.7,1.1-0.5,2.2
		c0.2,1,1.1,1.4,1.2,2.2c0.1,0.5,0.2,1,0.3,1.6L293,187C293,187,294.8,188.1,294.8,188.1z"/>
	<path class="st1" d="M296.2,189.3c-1.5-1.4-3.3-2.3-4.4-2.8c-1.7-0.8-1.2,0.3-4,1c-0.4,0.1-0.8,0.4-0.5,1.1c0.3,0.7,3,0.2,3.4-0.2
		c0,0,1.1,1.4,2.2,1.3c0,0-0.2,0.9,0.1,1.3c0,0-1.6,0.8-2.3,1.5l-1.9-1.3c-0.1-1.9-0.5-2.5-1.4-2.4c-0.9,0.1-0.8,0.9-0.8,1.6
		c0,1.2-0.3,1.4,0,1.9c1.2,1.9,2.6,3,5.3,3c1,0,1.7,0,2.3-0.3C295.3,194.6,297.9,190.8,296.2,189.3z"/>
	<path class="st2" d="M296.5,189.6c0.6,1.8-1.5,4.7-2.4,5.1c-0.6,0.3-1.3,0.3-2.3,0.3c-2.7,0-4.1-1.1-5.3-3c0,0.1,0.1,0.2,0.1,0.3
		c1.2,1.9,2.6,3,5.3,3c1,0,1.7,0,2.3-0.3C295.2,194.6,297.5,191.3,296.5,189.6z"/>
	<path class="st2" d="M288.5,191.3c0,0,1.7,1.1,2.2,1.2l-1.8-1.2c0.1-2-0.5-2.6-1.4-2.4c-0.1,0-0.1,0-0.2,0
		C288.2,188.8,288.6,189.4,288.5,191.3z"/>
	<path class="st2" d="M290.7,188.3c0,0,1.1,1.4,2.2,1.3v-0.3c-1.1,0-2.2-1.3-2.2-1.3c-0.4,0.4-3.1,0.9-3.4,0.2
		c-0.1-0.1-0.1-0.2-0.1-0.3c0,0.1,0,0.3,0.1,0.6C287.6,189.3,290.3,188.7,290.7,188.3z"/>
</g>
<g>
	<path class="st1" d="M71.2,125.2l-3.6,2.6c0,0-1.8-5.1-3.2-8.2c-0.6-1.3-2.3-1.8-3.1-3.6c-1.4-3.2,0.2-5.9,1.9-3.9
		c1.9,2.3,4.8,4,5.3,5.3C69.5,119.5,71.2,125.2,71.2,125.2z"/>
	<path class="st1" d="M74.1,127.3c0.3,1.7,0,4.4-1.5,7.6c0,0-3.1-3.7-3.5-5.4c0,0-0.9-6.5-1.8-10.7c-0.4-1.7-2.3-2.7-2.9-5.1
		c-0.9-4.2,1.8-7,3.3-4.3c1.8,3.2,4.7,6,5.1,7.7C73.5,120,73.7,124.7,74.1,127.3z"/>
	<path class="st2" d="M69.5,124c0,0-0.3-2.5-1.2-6.6c-0.4-1.7-2.3-2.7-2.9-5.1c-0.3-1.4-0.2-2.7,0.1-3.7c-0.9,0.7-1.7,2.7-1.2,5.1
		c0.5,2.4,2.5,3.4,2.9,5.1c0.3,1.2,0.5,2.4,0.7,3.7l-2.7-1C65.2,121.4,69.5,124,69.5,124z"/>
	<path class="st1" d="M72.8,126.6c-3.6-3.3-7.7-5.3-10.3-6.6c-3.9-1.9-2.9,0.7-9.5,2.5c-0.9,0.2-1.9,0.9-1.1,2.5
		c0.8,1.6,7,0.4,8-0.6c0,0,2.6,3.2,5.2,3.1c0,0-0.5,2.1,0.2,3.2c0,0-3.7,1.9-5.3,3.6l-4.4-2.9c-0.3-4.6-1.2-5.9-3.4-5.7
		c-2.1,0.2-1.9,2.2-1.8,3.8c0.1,2.9-0.7,3.4,0,4.5c2.7,4.4,6.1,7.1,12.5,7.1c2.4,0,3.9-0.1,5.3-0.8
		C70.7,139.2,76.8,130.3,72.8,126.6z"/>
	<path class="st2" d="M73.5,127.5c1.4,4.2-3.5,11-5.6,12c-1.5,0.7-3,0.8-5.3,0.8c-6.3,0-9.7-2.7-12.4-7c0.1,0.2,0.2,0.5,0.3,0.7
		c2.7,4.4,6.1,7.1,12.5,7.1c2.4,0,3.9-0.1,5.3-0.8C70.5,139.3,75.9,131.5,73.5,127.5z"/>
	<path class="st2" d="M54.9,131.5c0,0,4.1,2.6,5.1,2.8l-4.3-2.9c0.2-4.6-1.2-6.1-3.4-5.7c-0.2,0-0.3,0.1-0.5,0.1
		C54,125.6,55,127,54.9,131.5z"/>
	<path class="st2" d="M59.9,124.5c0,0,2.6,3.2,5.2,3.1V127c-2.6,0.1-5.2-3.1-5.2-3.1c-1,1-7.2,2.2-8,0.6c-0.1-0.2-0.2-0.5-0.3-0.8
		c-0.1,0.4,0,0.8,0.3,1.4C52.7,126.6,58.9,125.4,59.9,124.5z"/>
</g>
<g>
	<path class="st1" d="M31.9,179.5l-3.6,2.6c0,0-1.8-5.1-3.2-8.2c-0.6-1.3-2.3-1.8-3.1-3.6c-1.4-3.2,0.2-5.9,1.9-3.9
		c1.9,2.3,4.8,4,5.3,5.3C30.2,173.8,31.9,179.5,31.9,179.5z"/>
	<path class="st1" d="M34.8,181.6c0.3,1.7,0,4.4-1.5,7.6c0,0-3.1-3.7-3.5-5.4c0,0-0.9-6.5-1.8-10.7c-0.4-1.7-2.3-2.7-2.9-5.1
		c-0.9-4.2,1.8-7,3.3-4.3c1.8,3.2,4.7,6,5.1,7.7C34.2,174.3,34.4,179.1,34.8,181.6z"/>
	<path class="st2" d="M30.1,178.3c0,0-0.3-2.5-1.2-6.6c-0.4-1.7-2.3-2.7-2.9-5.1c-0.3-1.4-0.2-2.7,0.1-3.7c-0.9,0.7-1.7,2.7-1.2,5.1
		c0.5,2.4,2.5,3.4,2.9,5.1c0.3,1.2,0.5,2.4,0.7,3.7l-2.7-1C25.9,175.8,30.1,178.3,30.1,178.3z"/>
	<path class="st1" d="M33.5,181c-3.6-3.3-7.7-5.3-10.3-6.6c-3.9-1.9-2.9,0.7-9.5,2.5c-0.9,0.2-1.9,0.9-1.1,2.5c0.8,1.6,7,0.4,8-0.6
		c0,0,2.6,3.2,5.2,3.1c0,0-0.5,2.1,0.2,3.2c0,0-3.7,1.9-5.3,3.6l-4.4-2.9c-0.3-4.6-1.2-5.9-3.4-5.7c-2.1,0.2-1.9,2.2-1.8,3.8
		c0.1,2.9-0.7,3.4,0,4.5c2.7,4.4,6.1,7.1,12.5,7.1c2.4,0,3.9-0.1,5.3-0.8C31.4,193.5,37.5,184.6,33.5,181z"/>
	<path class="st2" d="M34.2,181.8c1.4,4.2-3.5,11-5.6,12c-1.5,0.7-3,0.8-5.3,0.8c-6.3,0-9.7-2.7-12.4-7c0.1,0.2,0.2,0.5,0.3,0.7
		c2.7,4.4,6.1,7.1,12.5,7.1c2.4,0,3.9-0.1,5.3-0.8C31.2,193.6,36.6,185.8,34.2,181.8z"/>
	<path class="st2" d="M15.5,185.9c0,0,4.1,2.6,5.1,2.8l-4.3-2.9c0.2-4.6-1.2-6.1-3.4-5.7c-0.2,0-0.3,0.1-0.5,0.1
		C14.6,179.9,15.7,181.4,15.5,185.9z"/>
	<path class="st2" d="M20.6,178.8c0,0,2.6,3.2,5.2,3.1v-0.6c-2.6,0.1-5.2-3.1-5.2-3.1c-1,1-7.2,2.2-8,0.6c-0.1-0.2-0.2-0.5-0.3-0.8
		c-0.1,0.4,0,0.8,0.3,1.4C13.4,181,19.6,179.7,20.6,178.8z"/>
</g>
<g>
	<path class="st1" d="M279.2,192.2l-3.6,2.6c0,0-1.8-5.1-3.2-8.2c-0.6-1.3-2.3-1.8-3.1-3.6c-1.4-3.2,0.2-5.9,1.9-3.9
		c1.9,2.3,4.8,4,5.3,5.3C277.5,186.5,279.2,192.2,279.2,192.2z"/>
	<path class="st1" d="M282.1,194.3c0.3,1.7,0,4.4-1.5,7.6c0,0-3.1-3.7-3.5-5.4c0,0-0.9-6.5-1.8-10.7c-0.4-1.7-2.3-2.7-2.9-5.1
		c-0.9-4.2,1.8-7,3.3-4.3c1.8,3.2,4.7,6,5.1,7.7C281.5,187,281.7,191.7,282.1,194.3z"/>
	<path class="st2" d="M277.5,191c0,0-0.3-2.5-1.2-6.6c-0.4-1.7-2.3-2.7-2.9-5.1c-0.3-1.4-0.2-2.7,0.1-3.7c-0.9,0.7-1.7,2.7-1.2,5.1
		c0.5,2.4,2.5,3.4,2.9,5.1c0.3,1.2,0.5,2.4,0.7,3.7l-2.7-1C273.2,188.4,277.5,191,277.5,191z"/>
	<path class="st1" d="M280.8,193.6c-3.6-3.3-7.7-5.3-10.3-6.6c-3.9-1.9-2.9,0.7-9.5,2.5c-0.9,0.2-1.9,0.9-1.1,2.5
		c0.8,1.6,7,0.4,8-0.6c0,0,2.6,3.2,5.2,3.1c0,0-0.5,2.1,0.2,3.2c0,0-3.7,1.9-5.3,3.6l-4.4-2.9c-0.3-4.6-1.2-5.9-3.4-5.7
		c-2.1,0.2-1.9,2.2-1.8,3.8c0.1,2.9-0.7,3.4,0,4.5c2.7,4.4,6.1,7.1,12.5,7.1c2.4,0,3.9-0.1,5.3-0.8
		C278.7,206.2,284.8,197.3,280.8,193.6z"/>
	<path class="st2" d="M281.5,194.5c1.4,4.2-3.5,11-5.6,12c-1.5,0.7-3,0.8-5.3,0.8c-6.3,0-9.7-2.7-12.4-7c0.1,0.2,0.2,0.5,0.3,0.7
		c2.7,4.4,6.1,7.1,12.5,7.1c2.4,0,3.9-0.1,5.3-0.8C278.5,206.3,283.9,198.5,281.5,194.5z"/>
	<path class="st2" d="M262.9,198.5c0,0,4.1,2.6,5.1,2.8l-4.3-2.9c0.2-4.6-1.2-6.1-3.4-5.7c-0.2,0-0.3,0.1-0.5,0.1
		C262,192.6,263,194,262.9,198.5z"/>
	<path class="st2" d="M267.9,191.5c0,0,2.6,3.2,5.2,3.1V194c-2.6,0.1-5.2-3.1-5.2-3.1c-1,1-7.2,2.2-8,0.6c-0.1-0.2-0.2-0.5-0.3-0.8
		c-0.1,0.4,0,0.8,0.3,1.4C260.7,193.6,266.9,192.4,267.9,191.5z"/>
</g>
<g>
	<path class="st1" d="M200,122.6l-0.9,0.7c0,0-0.5-1.3-0.8-2.1c-0.1-0.3-0.6-0.5-0.8-0.9c-0.4-0.8,0.1-1.5,0.5-1
		c0.5,0.6,1.2,1,1.4,1.4C199.6,121.1,200,122.6,200,122.6z"/>
	<path class="st1" d="M200.8,123.1c0.1,0.4,0,1.2-0.4,2c0,0-0.8-1-0.9-1.4c0,0-0.2-1.7-0.5-2.8c-0.1-0.4-0.6-0.7-0.7-1.3
		c-0.2-1.1,0.5-1.8,0.9-1.1c0.5,0.8,1.2,1.5,1.3,2C200.6,121.2,200.7,122.5,200.8,123.1z"/>
	<path class="st2" d="M199.6,122.3c0,0-0.1-0.6-0.3-1.7c-0.1-0.4-0.6-0.7-0.7-1.3c-0.1-0.4-0.1-0.7,0-1c-0.2,0.2-0.4,0.7-0.3,1.3
		c0.1,0.6,0.7,0.9,0.7,1.3c0.1,0.3,0.1,0.6,0.2,0.9l-0.7-0.3C198.5,121.6,199.6,122.3,199.6,122.3z"/>
	<path class="st1" d="M200.4,122.9c-0.9-0.9-2-1.4-2.7-1.7c-1-0.5-0.7,0.2-2.5,0.6c-0.2,0.1-0.5,0.2-0.3,0.7
		c0.2,0.4,1.8,0.1,2.1-0.1c0,0,0.7,0.8,1.4,0.8c0,0-0.1,0.6,0,0.8c0,0-1,0.5-1.4,0.9l-1.1-0.8c-0.1-1.2-0.3-1.5-0.9-1.5
		c-0.5,0.1-0.5,0.6-0.5,1c0,0.8-0.2,0.9,0,1.2c0.7,1.1,1.6,1.9,3.2,1.9c0.6,0,1,0,1.4-0.2C199.9,126.2,201.5,123.9,200.4,122.9z"/>
	<path class="st2" d="M200.6,123.2c0.4,1.1-0.9,2.9-1.5,3.1c-0.4,0.2-0.8,0.2-1.4,0.2c-1.6,0-2.5-0.7-3.2-1.8c0,0.1,0,0.1,0.1,0.2
		c0.7,1.1,1.6,1.9,3.2,1.9c0.6,0,1,0,1.4-0.2C199.8,126.2,201.2,124.2,200.6,123.2z"/>
	<path class="st2" d="M195.8,124.2c0,0,1.1,0.7,1.3,0.7l-1.1-0.8c0-1.2-0.3-1.6-0.9-1.5c0,0-0.1,0-0.1,0
		C195.5,122.7,195.8,123.1,195.8,124.2z"/>
	<path class="st2" d="M197.1,122.4c0,0,0.7,0.8,1.4,0.8V123c-0.7,0-1.4-0.8-1.4-0.8c-0.3,0.2-1.9,0.6-2.1,0.1c0-0.1-0.1-0.1-0.1-0.2
		c0,0.1,0,0.2,0.1,0.4C195.2,122.9,196.8,122.6,197.1,122.4z"/>
</g>
<g>
	<path class="st1" d="M222.6,133.7l-0.9,0.7c0,0-0.5-1.3-0.8-2.1c-0.1-0.3-0.6-0.5-0.8-0.9c-0.4-0.8,0.1-1.5,0.5-1
		c0.5,0.6,1.2,1,1.4,1.4C222.1,132.2,222.6,133.7,222.6,133.7z"/>
	<path class="st1" d="M223.3,134.3c0.1,0.4,0,1.2-0.4,2c0,0-0.8-1-0.9-1.4c0,0-0.2-1.7-0.5-2.8c-0.1-0.4-0.6-0.7-0.7-1.3
		c-0.2-1.1,0.5-1.8,0.9-1.1c0.5,0.8,1.2,1.5,1.3,2C223.2,132.4,223.2,133.6,223.3,134.3z"/>
	<path class="st2" d="M222.1,133.4c0,0-0.1-0.6-0.3-1.7c-0.1-0.4-0.6-0.7-0.7-1.3c-0.1-0.4-0.1-0.7,0-1c-0.2,0.2-0.4,0.7-0.3,1.3
		c0.1,0.6,0.7,0.9,0.7,1.3c0.1,0.3,0.1,0.6,0.2,0.9l-0.7-0.3C221,132.8,222.1,133.4,222.1,133.4z"/>
	<path class="st1" d="M223,134.1c-0.9-0.9-2-1.4-2.7-1.7c-1-0.5-0.7,0.2-2.5,0.6c-0.2,0.1-0.5,0.2-0.3,0.7c0.2,0.4,1.8,0.1,2.1-0.1
		c0,0,0.7,0.8,1.4,0.8c0,0-0.1,0.6,0,0.8c0,0-1,0.5-1.4,0.9l-1.1-0.8c-0.1-1.2-0.3-1.5-0.9-1.5c-0.5,0.1-0.5,0.6-0.5,1
		c0,0.8-0.2,0.9,0,1.2c0.7,1.1,1.6,1.9,3.2,1.9c0.6,0,1,0,1.4-0.2C222.4,137.4,224,135.1,223,134.1z"/>
	<path class="st2" d="M223.2,134.3c0.4,1.1-0.9,2.9-1.5,3.1c-0.4,0.2-0.8,0.2-1.4,0.2c-1.6,0-2.5-0.7-3.2-1.8c0,0.1,0,0.1,0.1,0.2
		c0.7,1.1,1.6,1.9,3.2,1.9c0.6,0,1,0,1.4-0.2C222.4,137.4,223.8,135.4,223.2,134.3z"/>
	<path class="st2" d="M218.3,135.4c0,0,1.1,0.7,1.3,0.7l-1.1-0.8c0-1.2-0.3-1.6-0.9-1.5c0,0-0.1,0-0.1,0
		C218.1,133.8,218.4,134.2,218.3,135.4z"/>
	<path class="st2" d="M219.6,133.5c0,0,0.7,0.8,1.4,0.8v-0.2c-0.7,0-1.4-0.8-1.4-0.8c-0.3,0.2-1.9,0.6-2.1,0.1
		c0-0.1-0.1-0.1-0.1-0.2c0,0.1,0,0.2,0.1,0.4C217.8,134.1,219.4,133.8,219.6,133.5z"/>
</g>
<g>
	<path class="st1" d="M222.6,188.1l-0.9,0.7c0,0-0.5-1.3-0.8-2.1c-0.1-0.3-0.6-0.5-0.8-0.9c-0.4-0.8,0.1-1.5,0.5-1
		c0.5,0.6,1.2,1,1.4,1.4C222.1,186.6,222.6,188.1,222.6,188.1z"/>
	<path class="st1" d="M223.3,188.6c0.1,0.4,0,1.2-0.4,2c0,0-0.8-1-0.9-1.4c0,0-0.2-1.7-0.5-2.8c-0.1-0.4-0.6-0.7-0.7-1.3
		c-0.2-1.1,0.5-1.8,0.9-1.1c0.5,0.8,1.2,1.5,1.3,2C223.2,186.7,223.2,187.9,223.3,188.6z"/>
	<path class="st2" d="M222.1,187.7c0,0-0.1-0.6-0.3-1.7c-0.1-0.4-0.6-0.7-0.7-1.3c-0.1-0.4-0.1-0.7,0-1c-0.2,0.2-0.4,0.7-0.3,1.3
		c0.1,0.6,0.7,0.9,0.7,1.3c0.1,0.3,0.1,0.6,0.2,0.9l-0.7-0.3C221,187.1,222.1,187.7,222.1,187.7z"/>
	<path class="st1" d="M223,188.4c-0.9-0.9-2-1.4-2.7-1.7c-1-0.5-0.7,0.2-2.5,0.6c-0.2,0.1-0.5,0.2-0.3,0.7c0.2,0.4,1.8,0.1,2.1-0.1
		c0,0,0.7,0.8,1.4,0.8c0,0-0.1,0.6,0,0.8c0,0-1,0.5-1.4,0.9l-1.1-0.8c-0.1-1.2-0.3-1.5-0.9-1.5c-0.5,0.1-0.5,0.6-0.5,1
		c0,0.8-0.2,0.9,0,1.2c0.7,1.1,1.6,1.9,3.2,1.9c0.6,0,1,0,1.4-0.2C222.4,191.7,224,189.4,223,188.4z"/>
	<path class="st2" d="M223.2,188.6c0.4,1.1-0.9,2.9-1.5,3.1c-0.4,0.2-0.8,0.2-1.4,0.2c-1.6,0-2.5-0.7-3.2-1.8c0,0.1,0,0.1,0.1,0.2
		c0.7,1.1,1.6,1.9,3.2,1.9c0.6,0,1,0,1.4-0.2C222.4,191.7,223.8,189.7,223.2,188.6z"/>
	<path class="st2" d="M218.3,189.7c0,0,1.1,0.7,1.3,0.7l-1.1-0.8c0-1.2-0.3-1.6-0.9-1.5c0,0-0.1,0-0.1,0
		C218.1,188.2,218.4,188.5,218.3,189.7z"/>
	<path class="st2" d="M219.6,187.9c0,0,0.7,0.8,1.4,0.8v-0.2c-0.7,0-1.4-0.8-1.4-0.8c-0.3,0.2-1.9,0.6-2.1,0.1
		c0-0.1-0.1-0.1-0.1-0.2c0,0.1,0,0.2,0.1,0.4C217.8,188.4,219.4,188.1,219.6,187.9z"/>
</g>
<g>
	<path class="st1" d="M157.6,152l-0.9,0.7c0,0-0.5-1.3-0.8-2.1c-0.1-0.3-0.6-0.5-0.8-0.9c-0.4-0.8,0.1-1.5,0.5-1
		c0.5,0.6,1.2,1,1.4,1.4C157.1,150.5,157.6,152,157.6,152z"/>
	<path class="st1" d="M158.3,152.5c0.1,0.4,0,1.2-0.4,2c0,0-0.8-1-0.9-1.4c0,0-0.2-1.7-0.5-2.8c-0.1-0.4-0.6-0.7-0.7-1.3
		c-0.2-1.1,0.5-1.8,0.9-1.1c0.5,0.8,1.2,1.5,1.3,2C158.1,150.6,158.2,151.9,158.3,152.5z"/>
	<path class="st2" d="M157.1,151.7c0,0-0.1-0.6-0.3-1.7c-0.1-0.4-0.6-0.7-0.7-1.3c-0.1-0.4-0.1-0.7,0-1c-0.2,0.2-0.4,0.7-0.3,1.3
		c0.1,0.6,0.7,0.9,0.7,1.3c0.1,0.3,0.1,0.6,0.2,0.9L156,151C156,151,157.1,151.7,157.1,151.7z"/>
	<path class="st1" d="M158,152.4c-0.9-0.9-2-1.4-2.7-1.7c-1-0.5-0.7,0.2-2.5,0.6c-0.2,0.1-0.5,0.2-0.3,0.7c0.2,0.4,1.8,0.1,2.1-0.1
		c0,0,0.7,0.8,1.4,0.8c0,0-0.1,0.6,0,0.8c0,0-1,0.5-1.4,0.9l-1.1-0.8c-0.1-1.2-0.3-1.5-0.9-1.5c-0.5,0.1-0.5,0.6-0.5,1
		c0,0.8-0.2,0.9,0,1.2c0.7,1.1,1.6,1.9,3.2,1.9c0.6,0,1,0,1.4-0.2C157.4,155.6,159,153.3,158,152.4z"/>
	<path class="st2" d="M158.1,152.6c0.4,1.1-0.9,2.9-1.5,3.1c-0.4,0.2-0.8,0.2-1.4,0.2c-1.6,0-2.5-0.7-3.2-1.8c0,0.1,0,0.1,0.1,0.2
		c0.7,1.1,1.6,1.9,3.2,1.9c0.6,0,1,0,1.4-0.2C157.4,155.6,158.8,153.6,158.1,152.6z"/>
	<path class="st2" d="M153.3,153.6c0,0,1.1,0.7,1.3,0.7l-1.1-0.8c0-1.2-0.3-1.6-0.9-1.5c0,0-0.1,0-0.1,0
		C153.1,152.1,153.4,152.5,153.3,153.6z"/>
	<path class="st2" d="M154.6,151.8c0,0,0.7,0.8,1.4,0.8v-0.2c-0.7,0-1.4-0.8-1.4-0.8c-0.3,0.2-1.9,0.6-2.1,0.1
		c0-0.1-0.1-0.1-0.1-0.2c0,0.1,0,0.2,0.1,0.4C152.7,152.3,154.4,152,154.6,151.8z"/>
</g>
<g>
	<path class="st1" d="M90.9,128.6l-0.9,0.7c0,0-0.5-1.3-0.8-2.1c-0.1-0.3-0.6-0.5-0.8-0.9c-0.4-0.8,0.1-1.5,0.5-1
		c0.5,0.6,1.2,1,1.4,1.4C90.4,127.2,90.9,128.6,90.9,128.6z"/>
	<path class="st1" d="M91.6,129.2c0.1,0.4,0,1.2-0.4,2c0,0-0.8-1-0.9-1.4c0,0-0.2-1.7-0.5-2.8c-0.1-0.4-0.6-0.7-0.7-1.3
		c-0.2-1.1,0.5-1.8,0.9-1.1c0.5,0.8,1.2,1.5,1.3,2C91.5,127.3,91.5,128.5,91.6,129.2z"/>
	<path class="st2" d="M90.4,128.3c0,0-0.1-0.6-0.3-1.7c-0.1-0.4-0.6-0.7-0.7-1.3c-0.1-0.4-0.1-0.7,0-1c-0.2,0.2-0.4,0.7-0.3,1.3
		c0.1,0.6,0.7,0.9,0.7,1.3c0.1,0.3,0.1,0.6,0.2,0.9l-0.7-0.3C89.3,127.7,90.4,128.3,90.4,128.3z"/>
	<path class="st1" d="M91.3,129c-0.9-0.9-2-1.4-2.7-1.7c-1-0.5-0.7,0.2-2.5,0.6c-0.2,0.1-0.5,0.2-0.3,0.7c0.2,0.4,1.8,0.1,2.1-0.1
		c0,0,0.7,0.8,1.4,0.8c0,0-0.1,0.6,0,0.8c0,0-1,0.5-1.4,0.9l-1.1-0.8c-0.1-1.2-0.3-1.5-0.9-1.5c-0.5,0.1-0.5,0.6-0.5,1
		c0,0.8-0.2,0.9,0,1.2c0.7,1.1,1.6,1.9,3.2,1.9c0.6,0,1,0,1.4-0.2C90.8,132.3,92.3,130,91.3,129z"/>
	<path class="st2" d="M91.5,129.2c0.4,1.1-0.9,2.9-1.5,3.1c-0.4,0.2-0.8,0.2-1.4,0.2c-1.6,0-2.5-0.7-3.2-1.8c0,0.1,0,0.1,0.1,0.2
		c0.7,1.1,1.6,1.9,3.2,1.9c0.6,0,1,0,1.4-0.2C90.7,132.3,92.1,130.3,91.5,129.2z"/>
	<path class="st2" d="M86.6,130.3c0,0,1.1,0.7,1.3,0.7l-1.1-0.8c0-1.2-0.3-1.6-0.9-1.5c0,0-0.1,0-0.1,0
		C86.4,128.7,86.7,129.1,86.6,130.3z"/>
	<path class="st2" d="M88,128.5c0,0,0.7,0.8,1.4,0.8v-0.2c-0.7,0-1.4-0.8-1.4-0.8c-0.3,0.2-1.9,0.6-2.1,0.1c0-0.1-0.1-0.1-0.1-0.2
		c0,0.1,0,0.2,0.1,0.4C86.1,129,87.7,128.7,88,128.5z"/>
</g>
<g>
	<path class="st1" d="M342.9,186.7l-0.9,0.7c0,0-0.5-1.3-0.8-2.1c-0.1-0.3-0.6-0.5-0.8-0.9c-0.4-0.8,0.1-1.5,0.5-1
		c0.5,0.6,1.2,1,1.4,1.4C342.5,185.2,342.9,186.7,342.9,186.7z"/>
	<path class="st1" d="M343.7,187.3c0.1,0.4,0,1.2-0.4,2c0,0-0.8-1-0.9-1.4c0,0-0.2-1.7-0.5-2.8c-0.1-0.4-0.6-0.7-0.7-1.3
		c-0.2-1.1,0.5-1.8,0.9-1.1c0.5,0.8,1.2,1.5,1.3,2C343.5,185.4,343.6,186.6,343.7,187.3z"/>
	<path class="st2" d="M342.5,186.4c0,0-0.1-0.6-0.3-1.7c-0.1-0.4-0.6-0.7-0.7-1.3c-0.1-0.4-0.1-0.7,0-1c-0.2,0.2-0.4,0.7-0.3,1.3
		c0.1,0.6,0.7,0.9,0.7,1.3c0.1,0.3,0.1,0.6,0.2,0.9l-0.7-0.3C341.4,185.7,342.5,186.4,342.5,186.4z"/>
	<path class="st1" d="M343.3,187.1c-0.9-0.9-2-1.4-2.7-1.7c-1-0.5-0.7,0.2-2.5,0.6c-0.2,0.1-0.5,0.2-0.3,0.7
		c0.2,0.4,1.8,0.1,2.1-0.1c0,0,0.7,0.8,1.4,0.8c0,0-0.1,0.6,0,0.8c0,0-1,0.5-1.4,0.9l-1.1-0.8c-0.1-1.2-0.3-1.5-0.9-1.5
		c-0.5,0.1-0.5,0.6-0.5,1c0,0.8-0.2,0.9,0,1.2c0.7,1.1,1.6,1.9,3.2,1.9c0.6,0,1,0,1.4-0.2C342.8,190.3,344.4,188,343.3,187.1z"/>
	<path class="st2" d="M343.5,187.3c0.4,1.1-0.9,2.9-1.5,3.1c-0.4,0.2-0.8,0.2-1.4,0.2c-1.6,0-2.5-0.7-3.2-1.8c0,0.1,0,0.1,0.1,0.2
		c0.7,1.1,1.6,1.9,3.2,1.9c0.6,0,1,0,1.4-0.2C342.7,190.4,344.1,188.4,343.5,187.3z"/>
	<path class="st2" d="M338.7,188.4c0,0,1.1,0.7,1.3,0.7l-1.1-0.8c0-1.2-0.3-1.6-0.9-1.5c0,0-0.1,0-0.1,0
		C338.4,186.8,338.7,187.2,338.7,188.4z"/>
	<path class="st2" d="M340,186.5c0,0,0.7,0.8,1.4,0.8v-0.2c-0.7,0-1.4-0.8-1.4-0.8c-0.3,0.2-1.9,0.6-2.1,0.1c0-0.1-0.1-0.1-0.1-0.2
		c0,0.1,0,0.2,0.1,0.4C338.1,187.1,339.7,186.8,340,186.5z"/>
</g>
<g>
	<path class="st1" d="M357.6,113.1l-0.9,0.7c0,0-0.5-1.3-0.8-2.1c-0.1-0.3-0.6-0.5-0.8-0.9c-0.4-0.8,0.1-1.5,0.5-1
		c0.5,0.6,1.2,1,1.4,1.4C357.1,111.6,357.6,113.1,357.6,113.1z"/>
	<path class="st1" d="M358.3,113.6c0.1,0.4,0,1.2-0.4,2c0,0-0.8-1-0.9-1.4c0,0-0.2-1.7-0.5-2.8c-0.1-0.4-0.6-0.7-0.7-1.3
		c-0.2-1.1,0.5-1.8,0.9-1.1c0.5,0.8,1.2,1.5,1.3,2C358.2,111.7,358.2,112.9,358.3,113.6z"/>
	<path class="st2" d="M357.1,112.7c0,0-0.1-0.6-0.3-1.7c-0.1-0.4-0.6-0.7-0.7-1.3c-0.1-0.4-0.1-0.7,0-1c-0.2,0.2-0.4,0.7-0.3,1.3
		c0.1,0.6,0.7,0.9,0.7,1.3c0.1,0.3,0.1,0.6,0.2,0.9l-0.7-0.3C356,112.1,357.1,112.7,357.1,112.7z"/>
	<path class="st1" d="M358,113.4c-0.9-0.9-2-1.4-2.7-1.7c-1-0.5-0.7,0.2-2.5,0.6c-0.2,0.1-0.5,0.2-0.3,0.7c0.2,0.4,1.8,0.1,2.1-0.1
		c0,0,0.7,0.8,1.4,0.8c0,0-0.1,0.6,0,0.8c0,0-1,0.5-1.4,0.9l-1.1-0.8c-0.1-1.2-0.3-1.5-0.9-1.5c-0.5,0.1-0.5,0.6-0.5,1
		c0,0.8-0.2,0.9,0,1.2c0.7,1.1,1.6,1.9,3.2,1.9c0.6,0,1,0,1.4-0.2C357.4,116.7,359,114.4,358,113.4z"/>
	<path class="st2" d="M358.2,113.6c0.4,1.1-0.9,2.9-1.5,3.1c-0.4,0.2-0.8,0.2-1.4,0.2c-1.6,0-2.5-0.7-3.2-1.8c0,0.1,0,0.1,0.1,0.2
		c0.7,1.1,1.6,1.9,3.2,1.9c0.6,0,1,0,1.4-0.2C357.4,116.7,358.8,114.7,358.2,113.6z"/>
	<path class="st2" d="M353.3,114.7c0,0,1.1,0.7,1.3,0.7l-1.1-0.8c0-1.2-0.3-1.6-0.9-1.5c0,0-0.1,0-0.1,0
		C353.1,113.2,353.4,113.5,353.3,114.7z"/>
	<path class="st2" d="M354.6,112.9c0,0,0.7,0.8,1.4,0.8v-0.2c-0.7,0-1.4-0.8-1.4-0.8c-0.3,0.2-1.9,0.6-2.1,0.1
		c0-0.1-0.1-0.1-0.1-0.2c0,0.1,0,0.2,0.1,0.4C352.8,113.4,354.4,113.1,354.6,112.9z"/>
</g>
<g>
	<path class="st1" d="M12.6,74.7l-0.9,0.7c0,0-0.5-1.3-0.8-2.1c-0.1-0.3-0.6-0.5-0.8-0.9c-0.4-0.8,0.1-1.5,0.5-1
		c0.5,0.6,1.2,1,1.4,1.4C12.1,73.2,12.6,74.7,12.6,74.7z"/>
	<path class="st1" d="M13.3,75.3c0.1,0.4,0,1.2-0.4,2c0,0-0.8-1-0.9-1.4c0,0-0.2-1.7-0.5-2.8c-0.1-0.4-0.6-0.7-0.7-1.3
		c-0.2-1.1,0.5-1.8,0.9-1.1c0.5,0.8,1.2,1.5,1.3,2C13.2,73.4,13.2,74.6,13.3,75.3z"/>
	<path class="st2" d="M12.1,74.4c0,0-0.1-0.6-0.3-1.7c-0.1-0.4-0.6-0.7-0.7-1.3c-0.1-0.4-0.1-0.7,0-1c-0.2,0.2-0.4,0.7-0.3,1.3
		c0.1,0.6,0.7,0.9,0.7,1.3c0.1,0.3,0.1,0.6,0.2,0.9L11,73.7C11,73.7,12.1,74.4,12.1,74.4z"/>
	<path class="st1" d="M13,75.1c-0.9-0.9-2-1.4-2.7-1.7c-1-0.5-0.7,0.2-2.5,0.6c-0.2,0.1-0.5,0.2-0.3,0.7c0.2,0.4,1.8,0.1,2.1-0.1
		c0,0,0.7,0.8,1.4,0.8c0,0-0.1,0.6,0,0.8c0,0-1,0.5-1.4,0.9l-1.1-0.8c-0.1-1.2-0.3-1.5-0.9-1.5c-0.5,0.1-0.5,0.6-0.5,1
		c0,0.8-0.2,0.9,0,1.2c0.7,1.1,1.6,1.9,3.2,1.9c0.6,0,1,0,1.4-0.2C12.4,78.3,14,76,13,75.1z"/>
	<path class="st2" d="M13.2,75.3c0.4,1.1-0.9,2.9-1.5,3.1c-0.4,0.2-0.8,0.2-1.4,0.2c-1.6,0-2.5-0.7-3.2-1.8c0,0.1,0,0.1,0.1,0.2
		c0.7,1.1,1.6,1.9,3.2,1.9c0.6,0,1,0,1.4-0.2C12.4,78.4,13.8,76.4,13.2,75.3z"/>
	<path class="st2" d="M8.3,76.4c0,0,1.1,0.7,1.3,0.7l-1.1-0.8c0-1.2-0.3-1.6-0.9-1.5c0,0-0.1,0-0.1,0C8.1,74.8,8.4,75.2,8.3,76.4z"
		/>
	<path class="st2" d="M9.6,74.5c0,0,0.7,0.8,1.4,0.8v-0.2c-0.7,0-1.4-0.8-1.4-0.8c-0.3,0.2-1.9,0.6-2.1,0.1c0-0.1-0.1-0.1-0.1-0.2
		c0,0.1,0,0.2,0.1,0.4C7.8,75.1,9.4,74.8,9.6,74.5z"/>
</g>
<g>
	<path class="st1" d="M11.2,117.4l-0.9,0.7c0,0-0.5-1.3-0.8-2.1c-0.1-0.3-0.6-0.5-0.8-0.9c-0.4-0.8,0.1-1.5,0.5-1
		c0.5,0.6,1.2,1,1.4,1.4C10.8,115.9,11.2,117.4,11.2,117.4z"/>
	<path class="st1" d="M12,117.9c0.1,0.4,0,1.2-0.4,2c0,0-0.8-1-0.9-1.4c0,0-0.2-1.7-0.5-2.8c-0.1-0.4-0.6-0.7-0.7-1.3
		c-0.2-1.1,0.5-1.8,0.9-1.1c0.5,0.8,1.2,1.5,1.3,2C11.8,116,11.9,117.3,12,117.9z"/>
	<path class="st2" d="M10.8,117.1c0,0-0.1-0.6-0.3-1.7c-0.1-0.4-0.6-0.7-0.7-1.3c-0.1-0.4-0.1-0.7,0-1c-0.2,0.2-0.4,0.7-0.3,1.3
		c0.1,0.6,0.7,0.9,0.7,1.3c0.1,0.3,0.1,0.6,0.2,0.9l-0.7-0.3C9.7,116.4,10.8,117.1,10.8,117.1z"/>
	<path class="st1" d="M11.7,117.8c-0.9-0.9-2-1.4-2.7-1.7c-1-0.5-0.7,0.2-2.5,0.6c-0.2,0.1-0.5,0.2-0.3,0.7c0.2,0.4,1.8,0.1,2.1-0.1
		c0,0,0.7,0.8,1.4,0.8c0,0-0.1,0.6,0,0.8c0,0-1,0.5-1.4,0.9L7.2,119c-0.1-1.2-0.3-1.5-0.9-1.5c-0.5,0.1-0.5,0.6-0.5,1
		c0,0.8-0.2,0.9,0,1.2c0.7,1.1,1.6,1.9,3.2,1.9c0.6,0,1,0,1.4-0.2C11.1,121,12.7,118.7,11.7,117.8z"/>
	<path class="st2" d="M11.8,118c0.4,1.1-0.9,2.9-1.5,3.1c-0.4,0.2-0.8,0.2-1.4,0.2c-1.6,0-2.5-0.7-3.2-1.8c0,0.1,0,0.1,0.1,0.2
		c0.7,1.1,1.6,1.9,3.2,1.9c0.6,0,1,0,1.4-0.2C11.1,121,12.5,119,11.8,118z"/>
	<path class="st2" d="M7,119c0,0,1.1,0.7,1.3,0.7L7.2,119c0-1.2-0.3-1.6-0.9-1.5c0,0-0.1,0-0.1,0C6.8,117.5,7,117.9,7,119z"/>
	<path class="st2" d="M8.3,117.2c0,0,0.7,0.8,1.4,0.8v-0.2c-0.7,0-1.4-0.8-1.4-0.8c-0.3,0.2-1.9,0.6-2.1,0.1c0-0.1-0.1-0.1-0.1-0.2
		c0,0.1,0,0.2,0.1,0.4C6.4,117.8,8.1,117.4,8.3,117.2z"/>
</g>
<g>
	<path class="st1" d="M349.6,158.7l-0.9,0.7c0,0-0.5-1.3-0.8-2.1c-0.1-0.3-0.6-0.5-0.8-0.9c-0.4-0.8,0.1-1.5,0.5-1
		c0.5,0.6,1.2,1,1.4,1.4C349.1,157.2,349.6,158.7,349.6,158.7z"/>
	<path class="st1" d="M350.3,159.3c0.1,0.4,0,1.2-0.4,2c0,0-0.8-1-0.9-1.4c0,0-0.2-1.7-0.5-2.8c-0.1-0.4-0.6-0.7-0.7-1.3
		c-0.2-1.1,0.5-1.8,0.9-1.1c0.5,0.8,1.2,1.5,1.3,2C350.2,157.4,350.2,158.6,350.3,159.3z"/>
	<path class="st2" d="M349.1,158.4c0,0-0.1-0.6-0.3-1.7c-0.1-0.4-0.6-0.7-0.7-1.3c-0.1-0.4-0.1-0.7,0-1c-0.2,0.2-0.4,0.7-0.3,1.3
		c0.1,0.6,0.7,0.9,0.7,1.3c0.1,0.3,0.1,0.6,0.2,0.9l-0.7-0.3C348,157.7,349.1,158.4,349.1,158.4z"/>
	<path class="st1" d="M350,159.1c-0.9-0.9-2-1.4-2.7-1.7c-1-0.5-0.7,0.2-2.5,0.6c-0.2,0.1-0.5,0.2-0.3,0.7c0.2,0.4,1.8,0.1,2.1-0.1
		c0,0,0.7,0.8,1.4,0.8c0,0-0.1,0.6,0,0.8c0,0-1,0.5-1.4,0.9l-1.1-0.8c-0.1-1.2-0.3-1.5-0.9-1.5c-0.5,0.1-0.5,0.6-0.5,1
		c0,0.8-0.2,0.9,0,1.2c0.7,1.1,1.6,1.9,3.2,1.9c0.6,0,1,0,1.4-0.2C349.4,162.3,351,160,350,159.1z"/>
	<path class="st2" d="M350.2,159.3c0.4,1.1-0.9,2.9-1.5,3.1c-0.4,0.2-0.8,0.2-1.4,0.2c-1.6,0-2.5-0.7-3.2-1.8c0,0.1,0,0.1,0.1,0.2
		c0.7,1.1,1.6,1.9,3.2,1.9c0.6,0,1,0,1.4-0.2C349.4,162.4,350.8,160.4,350.2,159.3z"/>
	<path class="st2" d="M345.3,160.4c0,0,1.1,0.7,1.3,0.7l-1.1-0.8c0-1.2-0.3-1.6-0.9-1.5c0,0-0.1,0-0.1,0
		C345.1,158.8,345.4,159.2,345.3,160.4z"/>
	<path class="st2" d="M346.6,158.5c0,0,0.7,0.8,1.4,0.8v-0.2c-0.7,0-1.4-0.8-1.4-0.8c-0.3,0.2-1.9,0.6-2.1,0.1
		c0-0.1-0.1-0.1-0.1-0.2c0,0.1,0,0.2,0.1,0.4C344.8,159.1,346.4,158.8,346.6,158.5z"/>
</g>
</svg>
