<?xml version="1.0" encoding="utf-8"?>
<!-- Generator: Adobe Illustrator 19.1.0, SVG Export Plug-In . SVG Version: 6.00 Build 0)  -->
<svg version="1.1" id="Camada_1" xmlns="http://www.w3.org/2000/svg" xmlns:xlink="http://www.w3.org/1999/xlink" x="0px" y="0px"
	 viewBox="0 0 500 500" style="enable-background:new 0 0 500 500;" xml:space="preserve">
<style type="text/css">
	.st0{fill:url(#SVGID_1_);}
</style>
<linearGradient id="SVGID_1_" gradientUnits="userSpaceOnUse" x1="81.8639" y1="250" x2="418.1361" y2="250">
	<stop  offset="0" style="stop-color:#5F72BD"/>
	<stop  offset="1" style="stop-color:#9B23EA"/>
</linearGradient>
<path class="st0" d="M416.9,227.3l1.2-0.6c0-2.8-2.6-4.8-7.8-6l-1.2,0.6c-0.7,0-1.1-0.4-1.2-1.2c-5.9,0.7-11.3,2.2-16.2,4.2h-0.6
	l0.6-3c0-2.7-1.8-4.3-5.4-4.8c-0.7,0.4-1.7,0.6-3,0.6c-1.7,0.5-3.7,2.5-6,6l1.2,1.8l-0.6,1.2c0.2,0,0.3,0.2,0.5,0.5
	c-0.6-0.2-1.4-0.4-2.3-0.5c-0.7,0-1.4,0.2-2,0.5c-0.6-0.3-2.1-0.7-4.5-1l-2,1V226l-7.5,2.5l-1-0.5c0,0.8-1.2,1.5-3.5,2
	c-2.6-1.7-4.8-2.5-6.5-2.5c-1.3,0.2-2,0.7-2,1.5c-1.6,0.7-2.4,1.6-2.5,2.5c0.3,0,0.5,0.2,0.5,0.5c-0.8,1.1-1.5,3.2-2.1,6.3
	c-0.2-0.9-0.7-1.4-1.2-1.5v1h-0.5v-1c0-1.2-1.5-2.3-4.5-3.5l-1,0.5h-0.5v-0.5h1c0-0.6-0.8-1.1-2.5-1.5l-1,0.5l-2-0.5
	c-0.3,0-0.8,0.2-1.5,0.5l-1-0.5c-3.2,1-5,1.5-5.5,1.5c-0.6,0-0.9-0.3-1-1v-0.5c0-0.6,0.3-0.9,1-1c-0.3-0.3-0.5-1.8-0.5-4.5
	c-1.4-1.3-2.2-2.7-2.5-4c-0.7,0-1.4,0.2-2,0.5h-0.5v-0.5h1v-1c-0.9,0-1.9-0.3-3-1c-0.7,0.3-1.2,0.5-1.5,0.5c-0.7,0-2,3.3-4,10l0.5,1
	c-1.1,2.4-2.1,4.2-2.9,5.6c-0.2-0.4-0.5-0.6-0.9-0.7v1h-0.5v-1c0-1.2-1.5-2.3-4.5-3.5l-1,0.5h-0.5v-0.5h1c0-0.6-0.8-1.1-2.5-1.5
	l-1,0.5l-2-0.5c-0.3,0-0.8,0.2-1.5,0.5l-1-0.5c-3.2,1-5,1.5-5.5,1.5c-0.6,0-0.9-0.3-1-1v-0.5c0-0.6,0.3-0.9,1-1
	c-0.3-0.3-0.5-1.8-0.5-4.5c-1.4-1.3-2.2-2.7-2.5-4c-0.7,0-1.4,0.2-2,0.5h-0.5v-0.5h1v-1c-0.9,0-1.9-0.3-3-1
	c-0.7,0.3-1.2,0.5-1.5,0.5c-0.7,0-2,3.3-4,10l0.5,1c-1.5,3.1-2.7,5.4-3.7,6.8c-0.1-0.1-0.2-0.1-0.3-0.1c-0.3-2.7-1.5-4.5-3.5-5.4
	c-0.8,0-3.3,0.2-7.5,0.5c-0.4-0.6-0.9-0.9-1.5-0.9c-1.2-1.5-2.7-2.3-4.5-2.3c-0.7,0.3-1.2,0.5-1.5,0.5l-1-0.5c-6,0.3-9,2-9,5
	c-2.7,4.4-5.3,10.7-8,18.9l0.5,0.9c-0.4,0-0.7,0.3-1,0.8l0.2-8.6L234,246c1.1-2.8,2.5-9.2,4.2-19.2c-0.4,0-0.6-0.2-0.6-0.6
	c2.8-4,4.4-6,4.8-6l-0.6-1.2v-1.2h1.2l-0.6-3v-1.8h0.6l2.4,1.8h0.6v-0.6l-1.2-1.8l33.5-9l1.2,0.6l3-3.6v-3.6c-0.9,0-2.4-0.6-4.2-1.8
	h-1.8l-1.2,0.6c-1.1-1.5-1.6-0.7-1.8-1.6c-0.9,0-1.5-1-1.8,1l-26.4,6v0.8c-1,0-1.6-1.2-1.8,0.4c-0.4,0-0.6-0.2-0.6-0.6
	c-5.8,2.8-11.8,5-18,6.6c-10.7,3.7-42.2,13.4-42.7,15.4v1.8c1.2,0,1.8,0.6,1.8,1.8c2.4,0.3,3.6,0.9,3.6,1.8h1.8
	c4.6-2,33.2-10,33.8-10c0.8,0,1.2,0.4,1.2,1.2v1.2c-0.8,0.8-1.2,2.4-1.2,4.8c-0.6,1.7-1.3,5.3-2.1,10.7c-0.5-1.9-1.6-3.2-3.2-4
	c-0.8,0-3.3,0.2-7.5,0.5c-0.4-0.6-0.9-0.9-1.5-0.9c-1.2-1.5-2.7-2.3-4.5-2.3c-0.7,0.3-1.2,0.5-1.5,0.5l-1-0.5
	c-3.8,0.2-6.4,0.9-7.8,2.2c-0.4-0.7-1.7-1.3-3.9-1.6c-0.7,0-1.4,0.2-2,0.5c-0.6-0.3-2.1-0.6-4.5-0.9l-2,0.9V231l-7.5,2.3l-1-0.5
	c0,0.8-1.2,1.4-3.5,1.9c-2.6-1.6-4.8-2.3-6.5-2.3c-1.3,0.2-2,0.6-2,1.4c-1.6,0.7-2.4,1.5-2.5,2.3c0.3,0,0.5,0.2,0.5,0.5
	c-0.9,1.2-1.8,3.9-2.5,7.9l0.5,0.9h-1c-0.9,5-1.9,7.5-3,7.5c0,0.5,0.3,1.3,1,2.3c-0.4,0-0.7,0.4-0.9,1.2l-0.4-0.6
	c-3.3-4.9-8.3-8.1-14.8-9.6l-1.7,0.9c0-0.6-2.7-1.2-7.9-1.8c0,0.6-1.4,1.2-4.3,1.8c0-1-1.4-1.9-4.3-2.7c0,0.6-0.2,0.9-0.8,0.9h-0.9
	l-1.8-0.9v-0.8l1.8,0.8h0.9c0-2.3,1.7-4.3,5.1-6c0,0.6,0.3,0.9,0.9,0.9c0-1.2,0.3-1.8,0.9-1.8c1.7-1,2.6-2.3,2.6-3.5h5.2l3.5-2.7
	c0-0.6-0.2-0.8-0.8-0.8v-0.9l1.7,0.9h0.9c1.2,0,1.8-0.9,1.8-2.7c2.8-1.7,4.5-2.6,5.1-2.6v-0.9l-0.8-1.8h0.8c0-6-4.9-10-14.7-12.1
	l-3.5,1.8l-1.8-0.9c-1.2,0.7-1.8,1.5-1.8,2.6c-0.6,0-0.8-0.2-0.8-0.8h-0.9c-11.4,6.9-19.2,14.4-23.5,22.5l0.9,1.8
	c-0.6,0-0.9,0.3-0.9,0.9v1.7c0,0.6,0.3,0.9,0.9,0.9c3.1,13.4,7.5,20,13,20l1.8-0.9c0,1.1,1.4,1.7,4.3,1.7l1.7-0.8v0.8
	c1.3-1,4.2-1.9,8.7-2.6c0,0.6,0.3,0.9,0.9,0.9v0.9c0,4-5.2,10.4-15.6,19.1c-7,4.5-10.5,7.1-10.5,7.8c-0.6,0-0.9-0.2-0.9-0.8
	c-4.2,2.6-9.1,4.6-14.7,6l-1.8-0.9l-1.8,0.9c0-0.6-0.2-0.9-0.8-0.9c-1.8,0.9-2.7,1.8-2.7,2.7v0.9c0,3.3,4,6.8,12.1,10.4h3.5l1.7-0.9
	c0,0.6,0.3,0.9,0.9,0.9h0.9l1.7-0.9c0,0.6,0.3,0.9,0.9,0.9l1.8-0.9v0.9l1.7-0.9l1.8,0.9v-0.9c3.5-2.6,5.2-4.3,5.2-5.1h4.3
	c6.8-4.3,10.9-7.8,12.1-10.5c5.8-5.1,8.7-8,8.7-8.7c4.6-3.1,6.9-5.5,6.9-6.9c2.3-1.9,4.1-3.9,5.6-6c-0.2,0.6-0.5,1.1-0.7,1.6h0.5
	c-0.4,2.8-0.7,4.5-1,5.1c0.5,2,2,4,4.5,6.1c0.3,0,0.5-0.2,0.5-0.5h0.5c1.7,1.5,4.3,2.4,8,2.8v-0.5c2.6-0.9,4.3-1.9,5-2.8
	c7.3-3.8,11-7.4,11-10.7v-0.5c-0.7-0.8-1-1.4-1-1.9h-1c0,1.7-2.7,3.1-8,4.2c0-0.3-0.2-0.5-0.5-0.5c0,1.6-1.5,2.3-4.5,2.3
	c0-0.3-0.2-0.5-0.5-0.5c0.3-0.6,0.6-2.3,1-5.1c-0.3,0-0.5-0.2-0.5-0.5h0.5c1-6.8,2.5-10.3,4.5-10.3l1,0.5c0.3-0.6,0.5-1.1,0.5-1.4
	l10.5-4.2c0,0.3,0.2,0.5,0.5,0.5h0.5v-0.5c1.9-1.5,3.2-2.3,3.9-2.3c-0.6,1.6-1.1,3.2-1.7,5l0.5,0.9c-0.7,0-1.2,0.9-1.5,2.7v0.5
	l0.5,0.9h-0.5c0,0.3,0.2,0.5,0.5,0.5l-1,3.2v0.5c0,2,0.2,3.9,0.5,5.9c2.3,4.6,6.3,7.9,12,9.9v-0.5c0.7,0,1,0.3,1,0.9
	c0.3,0,0.5-0.2,0.5-0.5c2.9,0,6.9-3,12-9c5.5-8,9.1-14.5,11-19.3c-0.3,10.3-0.6,22.2-1.6,22.2l0.6,6l-0.6,3c0.9,1,2.3,3.8,4.2,8.4
	c1.8,1.4,3,3.8,3.6,7.2h3c0.5,0,1.3-1.2,2.4-3.6v-0.6l-0.6-3c0.4,0,0.6-0.2,0.6-0.6l-0.6-1.2c0-2,0.4-3,1.2-3V283
	c0.4-2.4,1-3.6,1.8-3.6c0-0.4-0.2-0.6-0.6-0.6l0.6-3.5l-0.6-1.2l0.1-4.7c2.3,4.4,6.2,7.6,11.8,9.6v-0.5c0.7,0,1,0.3,1,0.9
	c0.3,0,0.5-0.2,0.5-0.5c2.9,0,6.9-3,12-9c2.7-3.9,4.9-7.5,6.7-10.7c-0.3,0.8-0.5,1.5-0.8,2.4h0.5l-1,2.5c0.3,0,0.5,0.2,0.5,0.5
	l1-0.5v1h-1.5l0.5,1v0.5h-1v2.5h1v1l-1-0.5c0,0.7-0.2,1.4-0.5,2c0.3,0.6,0.5,1.3,0.5,2l-0.5,1h1c-0.6,1.3-1.3,2-2,2v1h1v0.5
	c-1,0-1.5,1.2-1.5,3.5h1v0.5c0,0.7-0.3,1-1,1c0,2.7,1.2,4.7,3.5,6c4.3,1.7,6.5,3,6.5,4h2c0-0.3-0.2-0.5-0.5-0.5c0.7-1.7,1-2.8,1-3.5
	c-0.3,0-0.5-0.2-0.5-0.5c0.4,0,0.7-1.3,1-4l-0.5-1c0.3,0,0.8-2,1.5-6h-1v-0.5h0.5c2.3-6.3,3.5-10.6,3.5-13c4.4-2.2,6.9-4,7.5-5.5
	h0.5v1.5c1-0.3,1.5-0.7,1.5-1c2.7-0.3,4-0.8,4-1.5l-0.5-1c0.3,0,0.8,0.2,1.5,0.5c1,0,1.5-0.3,1.5-1h2c0-0.3-0.2-0.5-0.5-0.5
	c1.7-2.1,3.7-3.7,6-5c0.8-1.2,1.4-1.9,1.9-2c0,0.2,0,0.3,0,0.5l0.5,1c-1.2,2.1-2.7,5.9-4.5,11.5h0.5l-1,2.5c0.3,0,0.5,0.2,0.5,0.5
	l1-0.5v1H300l0.5,1v0.5h-1v2.5h1v1l-1-0.5c0,0.7-0.2,1.4-0.5,2c0.3,0.6,0.5,1.3,0.5,2l-0.5,1h1c-0.6,1.3-1.3,2-2,2v1h1v0.5
	c-1,0-1.5,1.2-1.5,3.5h1v0.5c0,0.7-0.3,1-1,1c0,2.7,1.2,4.7,3.5,6c4.3,1.7,6.5,3,6.5,4h2c0-0.3-0.2-0.5-0.5-0.5c0.7-1.7,1-2.8,1-3.5
	c-0.3,0-0.5-0.2-0.5-0.5c0.4,0,0.7-1.3,1-4l-0.5-1c0.3,0,0.8-2,1.5-6h-1v-0.5h0.5c2.3-6.3,3.5-10.6,3.5-13c4.4-2.2,6.9-4,7.5-5.5
	h0.5v1.5c1-0.3,1.5-0.7,1.5-1c2.7-0.3,4-0.8,4-1.5l-0.5-1c0.3,0,0.8,0.2,1.5,0.5c1,0,1.5-0.3,1.5-1h2c0-0.3-0.2-0.5-0.5-0.5
	c1.7-2.1,3.7-3.7,6-5c0.8-1.3,1.5-2,2-2l-0.5-1c0.6,0,1.1-0.1,1.4-0.3c-0.5,1.4-1,2.1-1.6,2.1c0,0.6,0.3,1.4,1,2.5
	c-0.6,0-0.9,0.8-1,2.5v1l0.5,1h-1c0,4.8-0.7,8.5-2,11h0.5c-0.4,3-0.7,4.8-1,5.5c0.5,2.2,2,4.3,4.5,6.5c0.3,0,0.5-0.2,0.5-0.5h0.5
	c1.7,1.6,4.3,2.6,8,3v-0.5c2.6-1,4.3-2,5-3c7.3-4.1,11-7.9,11-11.5v-0.5c-0.7-0.8-1-1.5-1-2h-1c0,1.8-2.7,3.3-8,4.5
	c0-0.3-0.2-0.5-0.5-0.5c0,1.7-1.5,2.5-4.5,2.5c0-0.3-0.2-0.5-0.5-0.5c0.3-0.7,0.6-2.5,1-5.5c-0.3,0-0.5-0.2-0.5-0.5h0.5
	c1-7.3,2.5-11,4.5-11l1,0.5c0.3-0.7,0.5-1.2,0.5-1.5l10.5-4.5c0,0.3,0.2,0.5,0.5,0.5h0.5V248c2-1.7,3.3-2.5,4-2.5V245
	c0-0.8-0.2-1.4-0.5-2c0-0.3-2.7-0.8-8-1.5l-5.5,1.5c0-0.3-0.2-0.5-0.5-0.5c-0.6,0-0.9,0.3-1,1l-1-0.5l0.5-4.5c7-2,12.5-4,16.5-6
	l2.5,0.5c0-0.8,0.7-1.3,2-1.5c0.2,0,0.4-0.1,0.6-0.1c0.1,0.2,0.2,0.5,0.3,0.7c-0.5,5.3-1.1,8.5-1.8,9.6l0.6,1.2l-0.6,1.2h0.6
	c-1.2,6.5-1.8,10.3-1.8,11.4c0.4,0,0.6,0.2,0.6,0.6l-0.6,1.2l0.6,1.2c-0.6,0-1.1,2.6-1.2,7.8c0,0.4-0.6,0.8-1.8,1.2
	c0.7,2.6,1.3,4.3,1.8,5.4c0,0.3-0.2,0.9-0.6,1.8c0.4,0,3.5,2.6,9.6,7.8h1.2c0-1.2,0.8-2.2,2.4-3c0-0.4-0.2-0.9-0.6-1.8
	c0-4.7,0.8-8.5,2.4-11.4c-0.5,0-0.9-0.8-1.2-2.4l1.2-2.4l-0.6-1.2l1.2-1.8v-3h4.2c1.3,4.4,2.1,6.6,2.4,6.6c0,4.4,1.8,10.4,5.4,18
	c0,5.4,1.2,9.6,3.6,12.6c0,4.4,2.4,8,7.2,10.8h0.6c1.6-0.7,2.4-2.1,2.4-4.2v-2.4l-0.6-3c0.4,0,0.6-0.4,0.6-1.2
	c0-1.2-0.4-2.3-1.2-3.6l0.6-1.2c-0.8-1.2-1.4-2.6-1.8-4.2h0.6l-1.2-4.8l0.6-1.2c-1.4-3-3.7-12-6.6-26.9c0.4,0,0.6-0.2,0.6-0.6v-0.6
	l-0.6-1.2c6.4-7,10-13.2,10.8-18.6L416.9,227.3z M186.9,249v-0.3c0-0.7-0.2-1.3-0.5-1.9c0-0.3-2.7-0.8-8-1.4l-5.5,1.4
	c0-0.3-0.2-0.5-0.5-0.5c-0.6,0-0.9,0.3-1,0.9l-1-0.5l0.5-4.2c7-1.9,12.5-3.7,16.5-5.6l2.5,0.5c0-0.8,0.7-1.2,2-1.4
	c0.3,0,0.6-0.1,0.9-0.3C190.8,239.2,188.8,243.5,186.9,249z M211,248.8c-1,1.1-1.8,2.9-2.5,5.4c0.3,0,0.5,0.1,0.5,0.5
	c-1.1,0-1.7,1.2-2,3.6h-0.5l-1-0.5c-1.5,5.3-4.8,9.5-10,12.6c-0.5,0-1-0.6-1.5-1.8c0.4,0,0.7-0.6,1-1.8c0-0.3-0.2-0.8-0.5-1.4
	c0.8-5.7,2-9.8,3.5-12.2v-3.2h1l-0.5-2.3V247h1c2.1-4.5,3.5-6.7,4.5-6.8c2.3,2.1,3.8,3.2,4.5,3.2c0.9,1.2,1.8,1.8,2.5,1.8l-0.5,2.7
	L211,248.8z M234.3,259.8l0-0.2c0,0,0,0,0.1,0L234.3,259.8z M234.3,259.1L234.3,259.1L234.3,259.1L234.3,259.1z M265.2,278.1h-1
	v-0.5h1V278.1z M260.8,248.8c-1,1.1-1.8,2.9-2.5,5.4c0.3,0,0.5,0.1,0.5,0.5c-1.1,0-1.7,1.2-2,3.6h-0.5l-1-0.5
	c-1.5,5.3-4.8,9.5-10,12.6c-0.5,0-1-0.6-1.5-1.8c0.4,0,0.7-0.6,1-1.8c0-0.3-0.2-0.8-0.5-1.4c0.8-5.7,2-9.8,3.5-12.2v-3.2h1l-0.5-2.3
	V247h1c2.1-4.5,3.5-6.7,4.5-6.8c2.3,2.1,3.8,3.2,4.5,3.2c0.9,1.2,1.8,1.8,2.5,1.8l-0.5,2.7L260.8,248.8z M275.7,276.1h-0.5v-1h0.5
	V276.1z M291.7,242.2v0.5l0.5,1c-0.3,0-0.5-0.2-0.5-0.5c-1.7,0.4-2.5,1.2-2.5,2.5c-0.3,0-0.5-0.2-0.5-0.5l-4.5,2.5
	c0-0.3-0.2-0.5-0.5-0.5c0-0.8,0.2-2.2,0.5-4c0-1.1,3.2-2.4,9.5-4l1,0.5C293.5,241.4,292.5,242.2,291.7,242.2z M298.2,251.7h-1v-0.5
	h1V251.7z M304.6,248.5l-0.4-0.8c0.2,0,0.4,0,0.6,0C304.7,247.9,304.6,248.2,304.6,248.5z M300.5,278.1h-1v-0.5h1V278.1z
	 M305.7,245.8C305.7,245.7,305.7,245.7,305.7,245.8l0-0.6c0.2,0,0.3,0,0.5-0.1C306,245.3,305.8,245.6,305.7,245.8z M311,276.1h-0.5
	v-1h0.5V276.1z M327,242.2v0.5l0.5,1c-0.3,0-0.5-0.2-0.5-0.5c-1.7,0.4-2.5,1.2-2.5,2.5c-0.3,0-0.5-0.2-0.5-0.5l-4.5,2.5
	c0-0.3-0.2-0.5-0.5-0.5c0-0.8,0.2-2.2,0.5-4c0-1.1,3.2-2.4,9.5-4l1,0.5C328.8,241.4,327.8,242.2,327,242.2z M333.5,251.7h-1v-0.5h1
	V251.7z M341.2,246.2c-0.2-0.1-0.3-0.2-0.3-0.5v-0.5c0.2,0,0.4,0,0.6-0.1C341.4,245.5,341.3,245.8,341.2,246.2z M391.7,239.3h-0.6
	V238c0-3,4.2-6.4,12.5-10.2h1.2C400.1,235.4,395.7,239.3,391.7,239.3z"/>
</svg>
