<?xml version="1.0" encoding="utf-8"?>
<!-- Generator: Adobe Illustrator 19.1.0, SVG Export Plug-In . SVG Version: 6.00 Build 0)  -->
<svg version="1.1" id="Camada_1" xmlns="http://www.w3.org/2000/svg" xmlns:xlink="http://www.w3.org/1999/xlink" x="0px" y="0px"
	 viewBox="0 0 360.7 132" style="enable-background:new 0 0 360.7 132;" xml:space="preserve">
<style type="text/css">
	.st0{fill:#FFFFFF;}
</style>
<g>
	<path class="st0" d="M59.2,26.6C69.1,28.8,74,32.8,74,38.7h-0.8l0.8,1.8v0.9c-0.6,0-2.3,0.9-5.1,2.6c0,1.8-0.6,2.7-1.8,2.7h-0.9
		l-1.7-0.9v0.9c0.6,0,0.8,0.2,0.8,0.8l-3.5,2.7h-5.2c0,1.2-0.9,2.4-2.6,3.5c-0.6,0-0.9,0.6-0.9,1.8c-0.6,0-0.9-0.3-0.9-0.9
		c-3.5,1.7-5.1,3.7-5.1,6h-0.9l-1.8-0.8v0.8l1.8,0.9h0.9c0.6,0,0.8-0.3,0.8-0.9c2.9,0.7,4.3,1.6,4.3,2.7c2.9-0.6,4.3-1.2,4.3-1.8
		c5.2,0.6,7.9,1.2,7.9,1.8l1.7-0.9c6.5,1.4,11.5,4.7,14.8,9.6l1.7,2.6c0,0.6-0.2,0.9-0.8,0.9l0.8,1.8c-1,4.6-3.9,8.9-8.7,13
		c0,1.4-2.3,3.8-6.9,6.9c0,0.7-2.9,3.6-8.7,8.7c-1.3,2.7-5.3,6.1-12.1,10.5h-4.3c0,0.9-1.8,2.6-5.2,5.1v0.9l-1.8-0.9l-1.7,0.9v-0.9
		l-1.8,0.9c-0.6,0-0.9-0.3-0.9-0.9l-1.7,0.9H28c-0.6,0-0.9-0.3-0.9-0.9l-1.7,0.9h-3.5c-8.1-3.6-12.1-7.1-12.1-10.4v-0.9
		c0-0.9,0.9-1.8,2.7-2.7c0.6,0,0.8,0.3,0.8,0.9l1.8-0.9l1.8,0.9c5.6-1.4,10.5-3.5,14.7-6c0,0.6,0.3,0.8,0.9,0.8
		c0-0.7,3.5-3.3,10.5-7.8c10.4-8.7,15.6-15,15.6-19.1v-0.9c-0.6,0-0.9-0.3-0.9-0.9c-4.5,0.7-7.4,1.6-8.7,2.6V77l-1.7,0.8
		c-2.9,0-4.3-0.6-4.3-1.7L41,77c-5.6,0-9.9-6.7-13-20c-0.6,0-0.9-0.3-0.9-0.9v-1.7c0-0.6,0.3-0.9,0.9-0.9l-0.9-1.8
		c4.3-8.1,12.1-15.6,23.5-22.5h0.9c0,0.6,0.2,0.8,0.8,0.8c0-1,0.6-1.9,1.8-2.6l1.8,0.9L59.2,26.6z"/>
	<path class="st0" d="M111.7,46.5c2.4,0.3,3.9,0.6,4.5,0.9c0.6-0.3,1.3-0.5,2-0.5c2.5,0.4,3.8,1,4,1.9c-0.5,2.2-1.3,3.3-2.5,3.3
		c-1.3,0.2-2,0.6-2,1.4l-2.5-0.5c-4,1.9-9.5,3.7-16.5,5.6l-0.5,4.2l1,0.5c0.1-0.6,0.4-0.9,1-0.9c0.3,0,0.5,0.2,0.5,0.5l5.5-1.4
		c5.3,0.6,8,1.1,8,1.4c0.3,0.5,0.5,1.1,0.5,1.9v0.5c-0.7,0-2,0.8-4,2.3V68h-0.5c-0.3,0-0.5-0.2-0.5-0.5l-10.5,4.2
		c0,0.3-0.2,0.8-0.5,1.4l-1-0.5c-2,0-3.5,3.4-4.5,10.3h-0.5c0,0.3,0.2,0.5,0.5,0.5c-0.4,2.8-0.7,4.5-1,5.1c0.3,0,0.5,0.2,0.5,0.5
		c3,0,4.5-0.8,4.5-2.3c0.3,0,0.5,0.2,0.5,0.5c5.3-1.1,8-2.5,8-4.2h1c0,0.5,0.3,1.1,1,1.9v0.5c0,3.3-3.7,6.9-11,10.7
		c-0.7,0.9-2.4,1.9-5,2.8v0.5c-3.7-0.4-6.3-1.3-8-2.8h-0.5c0,0.3-0.2,0.5-0.5,0.5c-2.5-2-4-4-4.5-6.1c0.3-0.6,0.6-2.3,1-5.1h-0.5
		c1.3-2.3,2-5.8,2-10.3h1l-0.5-0.9v-0.9c0.1-1.6,0.4-2.3,1-2.3c-0.7-1-1-1.8-1-2.3c1.1,0,2.1-2.5,3-7.5h1l-0.5-0.9
		c0.7-4,1.6-6.7,2.5-7.9c0-0.3-0.2-0.5-0.5-0.5c0.1-0.9,0.9-1.7,2.5-2.3c0-0.8,0.7-1.2,2-1.4c1.7,0,3.9,0.8,6.5,2.3
		c2.3-0.5,3.5-1.1,3.5-1.9l1,0.5l7.5-2.3v0.5L111.7,46.5z"/>
	<path class="st0" d="M130.9,46.8c0.3,0,0.8-0.1,1.5-0.5c1.8,0,3.3,0.8,4.5,2.3c0.6,0,1.1,0.3,1.5,0.9c4.2-0.3,6.7-0.5,7.5-0.5
		c2,1,3.2,2.8,3.5,5.4c0.3,0,0.7,0.5,1,1.4l-0.5,0.9c0.3,0.5,0.5,1.1,0.5,1.8c0,0.6-0.3,0.9-1,0.9l0.5,0.9c0,4.9-4.2,13.4-12.5,25.7
		c-5,6-9,9-12,9c0,0.3-0.2,0.5-0.5,0.5c0-0.6-0.3-0.9-1-0.9v0.5c-5.7-2.1-9.7-5.4-12-9.9c-0.3-2-0.5-3.9-0.5-5.9v-0.5l1-3.2
		c-0.3,0-0.5-0.1-0.5-0.5h0.5l-0.5-0.9v-0.5c0.3-1.8,0.8-2.7,1.5-2.7l-0.5-0.9c2.7-8.3,5.3-14.6,8-18.9c0-3,3-4.7,9-5L130.9,46.8z
		 M126.4,63v0.9l0.5,2.3h-1v3.2c-1.5,2.4-2.7,6.5-3.5,12.2c0.3,0.6,0.5,1,0.5,1.4c-0.3,1.2-0.6,1.8-1,1.8c0.5,1.2,1,1.8,1.5,1.8
		c5.2-3.2,8.5-7.4,10-12.6l1,0.5h0.5c0.3-2.4,0.9-3.6,2-3.6c0-0.3-0.2-0.5-0.5-0.5c0.7-2.5,1.5-4.3,2.5-5.4l-0.5-0.9l0.5-2.7
		c-0.7,0-1.6-0.6-2.5-1.8c-0.7,0-2.2-1-4.5-3.2c-0.9,0.1-2.4,2.3-4.5,6.8H126.4z"/>
	<path class="st0" d="M204.5,11.1h1.8c1.8,1.2,3.3,1.8,4.2,1.8v3.6l-3,3.6l-1.2-0.6l-33.5,9l1.2,1.8v0.6h-0.6l-2.4-1.8h-0.6v1.8
		l0.6,3h-1.2V35l0.6,1.2c-0.3,0-1.9,2-4.8,6c0,0.4,0.2,0.6,0.6,0.6c-1.7,10-3.2,16.4-4.2,19.2l0.6,1.2L161.7,90l0.6,1.2l-0.6,3.5
		c0.4,0,0.6,0.2,0.6,0.6c-0.8,0-1.4,1.2-1.8,3.6v2.4c-0.8,0-1.2,1-1.2,3l0.6,1.2c0,0.4-0.2,0.6-0.6,0.6l0.6,3v0.6
		c-1.1,2.4-1.9,3.6-2.4,3.6h-3c-0.6-3.4-1.8-5.8-3.6-7.2c-1.9-4.6-3.3-7.4-4.2-8.4l0.6-3l-0.6-6c1.5,0,1.5-23.8,2-33.4
		c0.9-6.8,1.7-11.2,2.4-13.1c0-2.4,0.4-4,1.2-4.8v-1.2c0-0.8-0.4-1.2-1.2-1.2c-0.6,0-29.2,8-33.8,10h-1.8c0-0.9-1.2-1.5-3.6-1.8
		c0-1.2-0.6-1.8-1.8-1.8v-1.8c0.5-1.9,32-11.7,42.7-15.4c6.2-1.6,12.1-3.8,18-6.6c0,0.4,0.2,0.6,0.6,0.6c0.2-1.6,0.8-0.4,1.8-0.4
		v-0.8l26.4-6c0.3-2,0.9-1,1.8-1c0.2,0.9,0.7,0.1,1.8,1.6L204.5,11.1z"/>
	<path class="st0" d="M180.7,46.8c0.3,0,0.8-0.1,1.5-0.5c1.8,0,3.3,0.8,4.5,2.3c0.6,0,1.1,0.3,1.5,0.9c4.2-0.3,6.7-0.5,7.5-0.5
		c2,1,3.2,2.8,3.5,5.4c0.3,0,0.7,0.5,1,1.4l-0.5,0.9c0.3,0.5,0.5,1.1,0.5,1.8c0,0.6-0.3,0.9-1,0.9l0.5,0.9c0,4.9-4.2,13.4-12.5,25.7
		c-5,6-9,9-12,9c0,0.3-0.2,0.5-0.5,0.5c0-0.6-0.3-0.9-1-0.9v0.5c-5.7-2.1-9.7-5.4-12-9.9c-0.3-2-0.5-3.9-0.5-5.9v-0.5l1-3.2
		c-0.3,0-0.5-0.1-0.5-0.5h0.5l-0.5-0.9v-0.5c0.3-1.8,0.8-2.7,1.5-2.7l-0.5-0.9c2.7-8.3,5.3-14.6,8-18.9c0-3,3-4.7,9-5L180.7,46.8z
		 M176.2,63v0.9l0.5,2.3h-1v3.2c-1.5,2.4-2.7,6.5-3.5,12.2c0.3,0.6,0.5,1,0.5,1.4c-0.3,1.2-0.6,1.8-1,1.8c0.5,1.2,1,1.8,1.5,1.8
		c5.2-3.2,8.5-7.4,10-12.6l1,0.5h0.5c0.3-2.4,0.9-3.6,2-3.6c0-0.3-0.2-0.5-0.5-0.5c0.7-2.5,1.5-4.3,2.5-5.4l-0.5-0.9l0.5-2.7
		c-0.7,0-1.6-0.6-2.5-1.8c-0.7,0-2.2-1-4.5-3.2c-0.9,0.1-2.4,2.3-4.5,6.8H176.2z"/>
	<path class="st0" d="M216,38.2h-1v0.5h0.5c0.6-0.3,1.3-0.5,2-0.5c0.3,1.3,1.1,2.7,2.5,4c0,2.7,0.2,4.2,0.5,4.5c-0.7,0.1-1,0.4-1,1
		v0.5c0.1,0.7,0.4,1,1,1c0.5,0,2.3-0.5,5.5-1.5l1,0.5c0.7-0.3,1.2-0.5,1.5-0.5l2,0.5l1-0.5c1.7,0.4,2.5,0.9,2.5,1.5h-1v0.5h0.5
		l1-0.5c3,1.2,4.5,2.3,4.5,3.5v1h0.5v-1c1,0.2,1.5,1.5,1.5,4v0.5c-0.4,2.7-1.2,4-2.5,4v0.5c0,0.3,0.2,0.5,0.5,0.5c0,1-0.7,1.5-2,1.5
		l0.5,1c-0.5,0-1.2,0.7-2,2c-2.3,1.3-4.3,2.9-6,5c0.3,0,0.5,0.2,0.5,0.5h-2c0,0.7-0.5,1-1.5,1c-0.7-0.3-1.2-0.5-1.5-0.5l0.5,1
		c0,0.7-1.3,1.2-4,1.5c0,0.3-0.5,0.7-1.5,1v-1.5h-0.5c-0.6,1.5-3.1,3.3-7.5,5.5c0,2.4-1.2,6.7-3.5,13h-0.5v0.5h1c-0.7,4-1.2,6-1.5,6
		l0.5,1c-0.3,2.7-0.6,4-1,4c0,0.3,0.2,0.5,0.5,0.5c0,0.7-0.3,1.8-1,3.5c0.3,0,0.5,0.2,0.5,0.5h-2c0-0.9-2.2-2.3-6.5-4
		c-2.3-1.3-3.5-3.3-3.5-6c0.7,0,1-0.3,1-1v-0.5h-1c0-2.3,0.5-3.5,1.5-3.5v-0.5h-1v-1c0.7,0,1.4-0.7,2-2h-1l0.5-1
		c0-0.7-0.2-1.4-0.5-2c0.3-0.6,0.5-1.3,0.5-2l1,0.5v-1h-1v-2.5h1v-0.5l-0.5-1h1.5v-1l-1,0.5c0-0.3-0.2-0.5-0.5-0.5l1-2.5h-0.5
		c1.8-5.6,3.3-9.4,4.5-11.5l-0.5-1c0.1-1.5,0.7-3,2-4.5v-1l-1-3.5c1-0.8,2.7-3.7,5-8.5l-0.5-1c2-6.7,3.3-10,4-10
		c0.3,0,0.8-0.2,1.5-0.5c1.1,0.7,2.1,1,3,1V38.2z M197.1,93.6v0.5h1v-0.5H197.1z M208.1,91.1v1h0.5v-1H208.1z M221.5,61.2
		c0,0.3,0.2,0.5,0.5,0.5c0-1.3,0.8-2.1,2.5-2.5c0,0.3,0.2,0.5,0.5,0.5l-0.5-1v-0.5c0.8,0,1.8-0.8,3-2.5l-1-0.5
		c-6.3,1.6-9.5,2.9-9.5,4c-0.3,1.8-0.5,3.2-0.5,4c0.3,0,0.5,0.2,0.5,0.5L221.5,61.2z M230,67.2v0.5h1v-0.5H230z"/>
	<path class="st0" d="M251.3,38.2h-1v0.5h0.5c0.6-0.3,1.3-0.5,2-0.5c0.3,1.3,1.1,2.7,2.5,4c0,2.7,0.2,4.2,0.5,4.5
		c-0.7,0.1-1,0.4-1,1v0.5c0.1,0.7,0.4,1,1,1c0.5,0,2.3-0.5,5.5-1.5l1,0.5c0.7-0.3,1.2-0.5,1.5-0.5l2,0.5l1-0.5
		c1.7,0.4,2.5,0.9,2.5,1.5h-1v0.5h0.5l1-0.5c3,1.2,4.5,2.3,4.5,3.5v1h0.5v-1c1,0.2,1.5,1.5,1.5,4v0.5c-0.4,2.7-1.2,4-2.5,4v0.5
		c0,0.3,0.2,0.5,0.5,0.5c0,1-0.7,1.5-2,1.5l0.5,1c-0.5,0-1.2,0.7-2,2c-2.3,1.3-4.3,2.9-6,5c0.3,0,0.5,0.2,0.5,0.5h-2
		c0,0.7-0.5,1-1.5,1c-0.7-0.3-1.2-0.5-1.5-0.5l0.5,1c0,0.7-1.3,1.2-4,1.5c0,0.3-0.5,0.7-1.5,1v-1.5h-0.5c-0.6,1.5-3.1,3.3-7.5,5.5
		c0,2.4-1.2,6.7-3.5,13h-0.5v0.5h1c-0.7,4-1.2,6-1.5,6l0.5,1c-0.3,2.7-0.6,4-1,4c0,0.3,0.2,0.5,0.5,0.5c0,0.7-0.3,1.8-1,3.5
		c0.3,0,0.5,0.2,0.5,0.5h-2c0-0.9-2.2-2.3-6.5-4c-2.3-1.3-3.5-3.3-3.5-6c0.7,0,1-0.3,1-1v-0.5h-1c0-2.3,0.5-3.5,1.5-3.5v-0.5h-1v-1
		c0.7,0,1.4-0.7,2-2h-1l0.5-1c0-0.7-0.2-1.4-0.5-2c0.3-0.6,0.5-1.3,0.5-2l1,0.5v-1h-1v-2.5h1v-0.5l-0.5-1h1.5v-1l-1,0.5
		c0-0.3-0.2-0.5-0.5-0.5l1-2.5h-0.5c1.8-5.6,3.3-9.4,4.5-11.5l-0.5-1c0.1-1.5,0.7-3,2-4.5v-1l-1-3.5c1-0.8,2.7-3.7,5-8.5l-0.5-1
		c2-6.7,3.3-10,4-10c0.3,0,0.8-0.2,1.5-0.5c1.1,0.7,2.1,1,3,1V38.2z M232.4,93.6v0.5h1v-0.5H232.4z M243.3,91.1v1h0.5v-1H243.3z
		 M256.8,61.2c0,0.3,0.2,0.5,0.5,0.5c0-1.3,0.8-2.1,2.5-2.5c0,0.3,0.2,0.5,0.5,0.5l-0.5-1v-0.5c0.8,0,1.8-0.8,3-2.5l-1-0.5
		c-6.3,1.6-9.5,2.9-9.5,4c-0.3,1.8-0.5,3.2-0.5,4c0.3,0,0.5,0.2,0.5,0.5L256.8,61.2z M265.3,67.2v0.5h1v-0.5H265.3z"/>
	<path class="st0" d="M302.6,41.5c2.4,0.3,3.9,0.7,4.5,1c0.6-0.3,1.3-0.5,2-0.5c2.5,0.4,3.8,1.1,4,2c-0.5,2.3-1.3,3.5-2.5,3.5
		c-1.3,0.2-2,0.7-2,1.5l-2.5-0.5c-4,2-9.5,4-16.5,6l-0.5,4.5l1,0.5c0.1-0.7,0.4-1,1-1c0.3,0,0.5,0.2,0.5,0.5l5.5-1.5
		c5.3,0.7,8,1.2,8,1.5c0.3,0.6,0.5,1.2,0.5,2v0.5c-0.7,0-2,0.8-4,2.5v0.5h-0.5c-0.3,0-0.5-0.2-0.5-0.5l-10.5,4.5
		c0,0.3-0.2,0.8-0.5,1.5l-1-0.5c-2,0-3.5,3.7-4.5,11h-0.5c0,0.3,0.2,0.5,0.5,0.5c-0.4,3-0.7,4.8-1,5.5c0.3,0,0.5,0.2,0.5,0.5
		c3,0,4.5-0.8,4.5-2.5c0.3,0,0.5,0.2,0.5,0.5c5.3-1.2,8-2.7,8-4.5h1c0,0.5,0.3,1.2,1,2v0.5c0,3.5-3.7,7.4-11,11.5c-0.7,1-2.4,2-5,3
		v0.5c-3.7-0.4-6.3-1.4-8-3h-0.5c0,0.3-0.2,0.5-0.5,0.5c-2.5-2.2-4-4.3-4.5-6.5c0.3-0.7,0.6-2.5,1-5.5h-0.5c1.3-2.5,2-6.2,2-11h1
		l-0.5-1v-1c0.1-1.7,0.4-2.5,1-2.5c-0.7-1.1-1-1.9-1-2.5c1.1,0,2.1-2.7,3-8h1l-0.5-1c0.7-4.3,1.6-7.2,2.5-8.5c0-0.3-0.2-0.5-0.5-0.5
		c0.1-0.9,0.9-1.8,2.5-2.5c0-0.8,0.7-1.3,2-1.5c1.7,0,3.9,0.8,6.5,2.5c2.3-0.5,3.5-1.2,3.5-2l1,0.5l7.5-2.5v0.5L302.6,41.5z"/>
	<path class="st0" d="M324,40.3h0.6c4.9-2.1,10.3-3.5,16.2-4.2c0.1,0.8,0.5,1.2,1.2,1.2l1.2-0.6c5.2,1.2,7.8,3.2,7.8,6l-1.2,0.6
		l0.6,2.4c-0.8,5.4-4.4,11.6-10.8,18.6l0.6,1.2V66c0,0.4-0.2,0.6-0.6,0.6c2.9,14.9,5.2,23.9,6.6,26.9l-0.6,1.2l1.2,4.8h-0.6
		c0.4,1.6,1,3,1.8,4.2l-0.6,1.2c0.8,1.3,1.2,2.4,1.2,3.6c0,0.8-0.2,1.2-0.6,1.2l0.6,3v2.4c0,2.1-0.8,3.4-2.4,4.2h-0.6
		c-4.8-2.8-7.2-6.4-7.2-10.8c-2.4-2.9-3.6-7.2-3.6-12.6c-3.6-7.5-5.4-13.5-5.4-18c-0.3,0-1.1-2.2-2.4-6.6h-4.2v3l-1.2,1.8l0.6,1.2
		l-1.2,2.4c0.3,1.6,0.7,2.4,1.2,2.4c-1.6,2.8-2.4,6.7-2.4,11.4c0.4,0.8,0.6,1.4,0.6,1.8c-1.6,0.8-2.4,1.8-2.4,3h-1.2
		c-6-5.2-9.2-7.8-9.6-7.8c0.4-0.9,0.6-1.5,0.6-1.8c-0.5-1.1-1.1-2.8-1.8-5.4c1.2-0.4,1.8-0.8,1.8-1.2c0.2-5.2,0.6-7.8,1.2-7.8
		l-0.6-1.2L309,72c0-0.4-0.2-0.6-0.6-0.6c0-1.1,0.6-4.9,1.8-11.4h-0.6l0.6-1.2l-0.6-1.2c0.7-1.1,1.3-4.3,1.8-9.6
		c-0.4-0.7-0.6-1.6-0.6-2.4L312,45c-0.4-2-0.8-3-1.2-3l0.6-1.2l-1.2-1.8c2.3-3.5,4.3-5.5,6-6c1.3,0,2.3-0.2,3-0.6
		c3.6,0.5,5.4,2.1,5.4,4.8L324,40.3z M324,55.3h0.6c3.9,0,8.3-3.8,13.2-11.4h-1.2C328.2,47.7,324,51,324,54V55.3z"/>
</g>
</svg>
