<?xml version="1.0" encoding="utf-8"?>
<!-- Generator: Adobe Illustrator 19.1.0, SVG Export Plug-In . SVG Version: 6.00 Build 0)  -->
<svg version="1.1" id="Camada_1" xmlns="http://www.w3.org/2000/svg" xmlns:xlink="http://www.w3.org/1999/xlink" x="0px" y="0px"
	 viewBox="0 0 360.7 103.3" style="enable-background:new 0 0 360.7 103.3;" xml:space="preserve">
<style type="text/css">
	.st0{fill:#001800;}
</style>
<g>
	<path class="st0" d="M34.7,13.1v0.4c0,1.1-0.9,2.1-2.7,3.1c-3.9,3.2-5.8,7.3-5.8,12.5c0,3.7,3.4,9.5,10.3,17.2
		c2.2,2.9,4.1,8.6,5.6,17l0.7,4.5v0.4l-1.1,5.8c0,2.1-0.4,3.7-1.1,5.1c0,3.2-0.8,5.6-2.5,7.2c-1.3,1.7-2.1,3.2-2.5,4.5
		c-1.9,0.6-3.3,1.5-4.2,2.5c-0.8,0.6-1.5,0.9-2,0.9h-1.6c-1.7,2-4.1,2.9-7.2,2.9h-1.1c-2.5,0-5.5-1.6-8.9-4.9
		C7,87.8,5.2,83.2,5.2,78.4v-0.9c1.2-3.3,3.2-4.9,6-4.9h1.6c2,0,3.3,2,3.8,6c1.3,4.8,2.5,7.2,3.6,7.2c2.4-3.4,3.6-5.6,3.6-6.9v-8.7
		c-0.4-6.8-1.2-11.1-2.2-13c-0.7-1.2-1.2-3-1.6-5.1c-1.8-1.8-4.1-6-6.9-12.5c-1.1-2.6-1.8-7-2.2-13c0-3.9,1.5-7.2,4.5-10.1
		c1-1.7,1.7-2.9,2.2-3.6c0.8-1,3.9-1.8,9.2-2.7C32,10.2,34.7,11.1,34.7,13.1z"/>
	<path class="st0" d="M61.7,13.3c0.6-0.3,1.6-0.4,2.8-0.4c3.9,0.4,7.4,0.7,10.8,0.8c2.2,1.2,3.2,2.6,3.2,4.4c-2,4-5.9,5.9-11.7,5.9
		h-2.6l-1.1,0.2V24l-0.4,0.2c-0.3-0.2-0.6-0.2-0.8-0.2c-0.4,1.1-0.7,2.2-0.7,3.1v0.4c0,1.1,0.1,2.6,0.2,4.4l-1.1,3
		c0.2,2.1,0.5,3.1,0.8,3.1c0.3,0,1.4-0.1,3.2-0.2c5.6,1.3,8.4,2.2,8.4,2.7c0.9,0.8,1.3,1.6,1.3,2.6c-1,2.2-2.7,3.4-5.4,3.4
		c-0.4,0-2.6,0.7-6.5,2.1h-0.8l0.2,0.4c0,0.4-0.1,0.6-0.2,0.6c0.2,1.7,0.2,2.9,0.2,3.6v3.2c0,1-0.2,3.1-0.4,6.5
		c0.2,1.1,0.4,2.1,0.9,3l-0.2,2.5v2.1c0,5.3,0.3,8.9,0.8,11c-0.2,1.5-0.2,2.6-0.2,3.4v0.4c0,0.8,0.5,1.3,1.5,1.3
		c2.6,0,5.3-0.2,8.1-0.4c3.5,0,5.2,0.8,5.2,2.5c-1.5,4.2-6.4,6.2-14.8,6c-6.6,0.5-11.2-0.1-14-1.9c-1.6-7.4-2.5-14.8-2.5-22
		c0-2.2,0.2-5,0.4-8.2c-0.3-1-0.6-3.3-0.9-6.9l0.4-4.9c-0.2-0.3-0.3-2.7-0.4-7.2l1.1-13.7c-0.3-0.9-0.4-1.5-0.4-1.9v-0.8
		c0-0.7,0.1-1.3,0.2-2.1c-0.2-1-0.3-1.6-0.4-1.9c0.2-1.2,0.2-2.2,0.2-3v-4.4c0-1.2,1.6-2.4,4.8-3.6c1.6,0,2.4-0.1,2.4-0.2
		C57.7,12.4,60.4,12.9,61.7,13.3z"/>
	<path class="st0" d="M115,25.4c2.1,5,3.1,10.4,3.1,16.1c0.2,0,0.2,0.4,0.2,1.1c0,0.3-0.3,1.8-0.9,4.7c0.7,3.6,1.1,7.8,1.1,12.5v0.4
		c0,3.2-0.4,7.3-1.3,12.5c0,3.1-1.3,6.6-3.8,10.5c-0.7,3.3-1.8,4.9-3.6,4.9c-0.7,2-2.3,2.9-4.7,2.9c-1,0-2.8-0.3-5.6-0.9
		c-2.8,0.6-4.6,0.9-5.6,0.9h-0.9c-3.9,0-6.6-2.7-8.3-8.1c-1.6-3-3-7.6-4.2-13.6c0-1.1-0.1-1.6-0.2-1.8l0.4-4.2
		c-0.2-2.4-0.2-4.6-0.2-6.5v-0.9c0-6.8,0.4-10.3,1.1-10.5c-0.2-0.3-0.2-0.5-0.2-0.7c0-1.3,0.7-4.5,2-9.6c0-2,1.5-7.2,4.5-15.7
		c1.4-1.7,2.7-2.6,4-2.9c3.5-1.3,7.2-2,11-2C109,14.7,113,18.3,115,25.4z M100.5,26.1c-0.6,2.2-1.3,6.3-2,12.3v3.8
		c0,0.5-0.2,1-0.7,1.6v0.9c0,3.9-0.2,6.4-0.4,7.4c0.2,1,0.2,1.8,0.2,2.5v2.2c0,5.3,0.8,12.2,2.5,20.8h0.2c1.3-1.8,2.4-5.5,3.4-11.2
		c0.6-4.4,0.9-8.9,0.9-13.4c0-2.3-0.3-6.1-0.9-11.4v-1.1c0-0.6,0.1-1.5,0.2-2.5c-1.2-4.8-2.2-8.8-3.1-11.9H100.5z"/>
	<path class="st0" d="M147.2,7.5c4.8,0.7,8.7,1.3,11.6,1.6c1.5,1.7,2.2,3,2.2,3.8c0,3-1.7,5-5.1,6.3c-2,0.6-3.8,0.9-5.6,0.9h-6.3
		c-0.2,0.8-0.2,1.4-0.2,1.8c1.1,4.5,1.6,7.2,1.6,8.1c-0.2,1.2-0.4,2.1-0.7,2.7c0.6,1.1,1.1,2.2,1.3,3.4l-0.4,3.4l0.9,10.1
		c-0.3,1.5-0.4,2.5-0.4,2.9c0.4,2.5,0.7,4.1,0.7,4.7c-0.3,2.2-0.4,3.9-0.4,4.9v0.9c0.3,5.9,0.4,9,0.4,9.4l-0.2,2
		c0.7,2.3,1.1,4.5,1.1,6.5v0.4c-0.4,3.3-0.7,5.3-0.7,6c0.9,3.9,1.3,6.3,1.3,7.2c0,2-3.5,3.3-10.5,4c-2.7,0-4.4-0.6-5.1-1.8
		c-2-3-2.9-10.7-2.9-23c-0.2,0-0.2-0.6-0.2-1.8c0.1-1.8,0.3-2.7,0.4-2.7l-0.2-2.2v-4.2c0-2.9-0.2-5.3-0.7-7.4l0.4-3.8
		c-0.7-5.4-1.3-16.2-1.8-32.2c-1.3-0.3-4.4-0.7-9.2-1.3c-0.9-0.7-1.3-1.4-1.3-2.2c0.3-3.6,2.1-5.5,5.4-5.6c6-1.1,11.4-1.7,16.3-2
		c0-0.2,0.2-0.2,0.7-0.2c0.3,0,0.6,0.1,0.9,0.2c1.3-0.2,2.3-0.2,3.1-0.2h2.2L147.2,7.5z"/>
	<path class="st0" d="M193.6,25.4c2.1,5,3.1,10.4,3.1,16.1c0.2,0,0.2,0.4,0.2,1.1c0,0.3-0.3,1.8-0.9,4.7c0.7,3.6,1.1,7.8,1.1,12.5
		v0.4c0,3.2-0.4,7.3-1.3,12.5c0,3.1-1.3,6.6-3.8,10.5c-0.7,3.3-1.8,4.9-3.6,4.9c-0.7,2-2.3,2.9-4.7,2.9c-1,0-2.8-0.3-5.6-0.9
		c-2.8,0.6-4.6,0.9-5.6,0.9h-0.9c-3.9,0-6.6-2.7-8.3-8.1c-1.6-3-3-7.6-4.3-13.6c0-1.1-0.1-1.6-0.2-1.8l0.4-4.2
		c-0.2-2.4-0.2-4.6-0.2-6.5v-0.9c0-6.8,0.4-10.3,1.1-10.5c-0.2-0.3-0.2-0.5-0.2-0.7c0-1.3,0.7-4.5,2-9.6c0-2,1.5-7.2,4.5-15.7
		c1.4-1.7,2.7-2.6,4-2.9c3.5-1.3,7.2-2,11-2C187.6,14.7,191.6,18.3,193.6,25.4z M179.1,26.1c-0.6,2.2-1.3,6.3-2,12.3v3.8
		c0,0.5-0.2,1-0.7,1.6v0.9c0,3.9-0.2,6.4-0.4,7.4c0.2,1,0.2,1.8,0.2,2.5v2.2c0,5.3,0.8,12.2,2.5,20.8h0.2c1.3-1.8,2.4-5.5,3.4-11.2
		c0.6-4.4,0.9-8.9,0.9-13.4c0-2.3-0.3-6.1-0.9-11.4v-1.1c0-0.6,0.1-1.5,0.2-2.5c-1.2-4.8-2.2-8.8-3.1-11.9H179.1z"/>
	<path class="st0" d="M229.2,19.6c0,0.2,1.4,2,4.3,5.1c0.4,2,1.6,5.8,3.4,11.4c-0.2,1-0.4,1.8-0.9,2.7c0.7,4,1.1,6.4,1.1,7.2v2
		c0,1-0.1,2.5-0.2,4.5h0.2c-1.1,7.7-2.7,13-4.9,16.1c-0.4,1.6-2.1,3.6-4.9,6c-0.6,2.2-2.9,3.4-6.7,3.4c-0.4,2.1-1,6.7-1.6,13.6
		c-0.2,0-0.3,0.4-0.4,1.3l0.2,1.6c0,1.7-3.1,3-9.4,4h-1.3c-3.1,0-4.7-0.7-4.7-2c-0.9-1.7-1.6-5.3-2-10.7c0-0.5,0.4-3.1,1.3-7.8
		c0-0.8-0.1-2.1-0.2-3.8c0.2-2.9,0.2-5.2,0.2-7.2c-0.6-4-0.9-8.2-0.9-12.7c0-0.3,0.1-0.6,0.2-0.9c-0.2-0.8-0.2-1.5-0.2-2v-3.1
		c0-0.6,0.1-0.9,0.2-0.9l-0.2-1.6v-7.6c0-2,0.2-7.8,0.4-17.7c0.2,0,0.2-0.1,0.2-0.2h-0.2l0.2-0.4v-2.5c0-1.6,2.7-3.1,8.1-4.5
		c3-0.2,4.6-0.2,4.9-0.2C219.6,12.7,224.2,15,229.2,19.6z M218.9,24.3v0.2c0.7,2.6,1.2,4.5,1.3,5.6l-0.2,2c0.2,1.8,0.2,3.1,0.2,4
		l-0.2,0.9c0.3,1.4,0.8,4.8,1.6,10.1l-1.3,5.8c0,1.3,0.4,4.4,1.1,9.4v0.2c0,1.3-0.2,3.4-0.7,6.3c0.7,0,2.3-4.3,4.7-13
		c0.4,0,0.6-1.7,0.7-5.1c-0.4-7.8-1.2-13-2.2-15.4c-1.5-4.1-3.1-7.7-4.7-11H218.9z"/>
	<path class="st0" d="M270,19.6c0,0.2,1.4,2,4.2,5.1c0.4,2,1.6,5.8,3.4,11.4c-0.2,1-0.4,1.8-0.9,2.7c0.7,4,1.1,6.4,1.1,7.2v2
		c0,1-0.1,2.5-0.2,4.5h0.2c-1.1,7.7-2.7,13-4.9,16.1c-0.4,1.6-2.1,3.6-4.9,6c-0.6,2.2-2.9,3.4-6.7,3.4c-0.4,2.1-1,6.7-1.6,13.6
		c-0.2,0-0.3,0.4-0.4,1.3l0.2,1.6c0,1.7-3.1,3-9.4,4h-1.3c-3.1,0-4.7-0.7-4.7-2c-0.9-1.7-1.6-5.3-2-10.7c0-0.5,0.4-3.1,1.3-7.8
		c0-0.8-0.1-2.1-0.2-3.8c0.2-2.9,0.2-5.2,0.2-7.2c-0.6-4-0.9-8.2-0.9-12.7c0-0.3,0.1-0.6,0.2-0.9c-0.2-0.8-0.2-1.5-0.2-2v-3.1
		c0-0.6,0.1-0.9,0.2-0.9l-0.2-1.6v-7.6c0-2,0.2-7.8,0.4-17.7c0.2,0,0.2-0.1,0.2-0.2h-0.2l0.2-0.4v-2.5c0-1.6,2.7-3.1,8.1-4.5
		c3-0.2,4.6-0.2,4.9-0.2C260.4,12.7,265,15,270,19.6z M259.7,24.3v0.2c0.7,2.6,1.2,4.5,1.3,5.6l-0.2,2c0.2,1.8,0.2,3.1,0.2,4
		l-0.2,0.9c0.3,1.4,0.8,4.8,1.6,10.1L261,53c0,1.3,0.4,4.4,1.1,9.4v0.2c0,1.3-0.2,3.4-0.7,6.3c0.7,0,2.3-4.3,4.7-13
		c0.4,0,0.6-1.7,0.7-5.1c-0.4-7.8-1.2-13-2.2-15.4c-1.5-4.1-3.1-7.7-4.7-11H259.7z"/>
	<path class="st0" d="M298.2,13.3c0.6-0.3,1.6-0.4,2.8-0.4c3.9,0.4,7.4,0.7,10.8,0.8c2.2,1.2,3.2,2.6,3.2,4.4c-2,4-5.9,5.9-11.7,5.9
		h-2.6l-1.1,0.2V24l-0.4,0.2c-0.3-0.2-0.6-0.2-0.8-0.2c-0.4,1.1-0.7,2.2-0.7,3.1v0.4c0,1.1,0.1,2.6,0.2,4.4l-1.1,3
		c0.2,2.1,0.5,3.1,0.8,3.1c0.3,0,1.4-0.1,3.2-0.2c5.6,1.3,8.4,2.2,8.4,2.7c0.9,0.8,1.3,1.6,1.3,2.6c-1,2.2-2.7,3.4-5.4,3.4
		c-0.4,0-2.6,0.7-6.5,2.1H298l0.2,0.4c0,0.4-0.1,0.6-0.2,0.6c0.2,1.7,0.2,2.9,0.2,3.6v3.2c0,1-0.2,3.1-0.4,6.5
		c0.2,1.1,0.4,2.1,0.9,3l-0.2,2.5v2.1c0,5.3,0.3,8.9,0.8,11c-0.2,1.5-0.2,2.6-0.2,3.4v0.4c0,0.8,0.5,1.3,1.5,1.3
		c2.6,0,5.3-0.2,8.1-0.4c3.5,0,5.2,0.8,5.2,2.5c-1.5,4.2-6.4,6.2-14.8,6c-6.6,0.5-11.2-0.1-14-1.9c-1.6-7.4-2.5-14.8-2.5-22
		c0-2.2,0.2-5,0.4-8.2c-0.3-1-0.6-3.3-0.9-6.9l0.4-4.9c-0.2-0.3-0.3-2.7-0.4-7.2l1.1-13.7c-0.3-0.9-0.4-1.5-0.4-1.9v-0.8
		c0-0.7,0.1-1.3,0.2-2.1c-0.2-1-0.3-1.6-0.4-1.9c0.2-1.2,0.2-2.2,0.2-3v-4.4c0-1.2,1.6-2.4,4.8-3.6c1.6,0,2.4-0.1,2.4-0.2
		C294.3,12.4,297,12.9,298.2,13.3z"/>
	<path class="st0" d="M345.9,8.6c2.6,2.6,4.5,7.9,5.8,16.1c0.2,2.6,0.2,4.2,0.2,4.7c-1.2,11.6-2.2,17.4-3.1,17.4
		c0,0.6-1.1,2.3-3.4,5.4c-2.5,2.1-4.2,3.6-4.9,4.5l-0.2,0.4c3.9,4.4,6.3,8.4,7.2,11.9c0,1,1.1,3.5,3.4,7.6c0,0.6,1.4,5,4.3,13.2
		c0.3,1.2,0.4,2.5,0.4,3.8v0.7c0,2.1-0.7,3.3-2.2,3.8c-2.1,0.6-3.7,1-4.9,1.1c-3.3,0-5.6-2-6.9-6c-0.9-2.5-2.4-5.5-4.5-9.2
		c-0.8-3.6-1.8-6.4-2.9-8.3c-0.4-1.1-0.7-1.8-0.7-2.2h-0.2c0,0.6-0.2,2.2-0.4,4.7c0.1,1.8,0.2,2.7,0.4,2.7c-0.3,0.6-0.4,1.8-0.4,3.6
		v4.2c0,0.5-0.1,1.2-0.2,2c0.6,1.6,0.9,3.1,0.9,4.5c0,1.7-1.8,2.7-5.6,3.1c-3.4,0-5.3-0.7-5.8-2c-2.1-7-3.1-16.5-3.1-28.6l-1.1-13
		l0.4-4c-0.3-2-0.4-3.9-0.4-5.8v-2c0-1.9,0.1-4,0.2-6.3c-0.2-0.6-0.2-1.2-0.2-1.8l0.4-2.7c-0.3-2.1-0.4-4.4-0.4-6.9
		c0.8-6.5,1.8-10.8,3.1-13c0.4,0,1.1-1.1,1.8-3.4c3.3-3,6.7-4.5,10.1-4.5c0.1,0,1.1-0.1,2.9-0.2C340.8,4.1,344.2,5.6,345.9,8.6z
		 M330.7,21.1c0,3,0.4,6.9,1.1,11.9v1.1c0,0.5-0.1,1.2-0.2,2c0.6,2,0.9,4.6,0.9,8.1l0.2,0.9c3.4-3,5.1-8.9,5.1-17.9
		c0-7.7-1.6-12.9-4.7-15.7h-0.2c-1.3,0-2,2.9-2.2,8.5V21.1z M332.9,72.8v0.4h0.2v-0.4H332.9z"/>
</g>
</svg>
