<?xml version="1.0" encoding="utf-8"?>
<!-- Generator: Adobe Illustrator 16.0.0, SVG Export Plug-In . SVG Version: 6.00 Build 0)  -->
<!DOCTYPE svg PUBLIC "-//W3C//DTD SVG 1.1//EN" "http://www.w3.org/Graphics/SVG/1.1/DTD/svg11.dtd">
<svg version="1.1" id="Layer_1" xmlns="http://www.w3.org/2000/svg" xmlns:xlink="http://www.w3.org/1999/xlink" x="0px" y="0px"
	 width="100px" height="100px" viewBox="0 0 100 100" enable-background="new 0 0 100 100" xml:space="preserve">
<g display="none">
	<rect x="37.5" y="37.5" display="inline" fill="#AE1F24" width="25" height="25"/>
	<g display="inline">
		<rect x="12.5" y="37.5" fill="#BF8E8E" width="25" height="25"/>
		<rect x="62.5" y="37.5" fill="#BF8E8E" width="25" height="25"/>
		<rect x="37.48" y="62.52" fill="#BF8E8E" width="25" height="25"/>
		<rect x="37.48" y="12.5" fill="#BF8E8E" width="25" height="25"/>
	</g>
</g>
<g>
	<path fill="#FFDD68" d="M57.112,50.21l-2.746,1.956c0,0-1.372-3.828-2.413-6.282c-0.415-0.998-1.747-1.332-2.371-2.746
		c-1.082-2.412,0.208-4.492,1.456-2.995c1.456,1.747,3.619,3.037,4.076,4.035C55.822,45.842,57.112,50.21,57.112,50.21z"/>
	<path fill="#FFDD68" d="M59.316,51.792c0.207,1.331,0.041,3.368-1.123,5.781c0,0-2.371-2.828-2.662-4.159
		c0,0-0.667-4.951-1.373-8.112c-0.291-1.29-1.789-2.039-2.163-3.869c-0.666-3.161,1.331-5.366,2.496-3.244
		c1.331,2.454,3.577,4.534,3.869,5.823C58.858,46.217,59.025,49.878,59.316,51.792z"/>
	<path fill="#ECA452" d="M55.779,49.295c0,0-0.207-1.872-0.915-5.034c-0.29-1.29-1.788-2.038-2.163-3.869
		c-0.248-1.082-0.166-2.08,0.125-2.787c-0.707,0.541-1.288,2.039-0.914,3.869c0.373,1.831,1.913,2.58,2.162,3.869
		c0.209,0.915,0.375,1.83,0.542,2.787l-2.081-0.791C52.578,47.34,55.779,49.295,55.779,49.295z"/>
	<path fill="#FFDD68" d="M58.318,51.292c-2.746-2.496-5.824-4.035-7.821-4.992c-2.954-1.457-2.163,0.541-7.197,1.872
		c-0.665,0.167-1.455,0.666-0.831,1.914c0.582,1.207,5.325,0.292,6.073-0.416c0,0,1.998,2.456,3.994,2.373
		c0,0-0.332,1.622,0.126,2.412c0,0-2.83,1.456-4.036,2.745l-3.328-2.246c-0.25-3.452-0.874-4.494-2.579-4.327
		c-1.582,0.167-1.415,1.665-1.373,2.872c0.042,2.203-0.541,2.578,0,3.451c2.08,3.371,4.659,5.45,9.484,5.45
		c1.789,0,2.954-0.041,4.077-0.582C56.737,60.818,61.354,54.08,58.318,51.292z"/>
	<path fill="#ECA452" d="M58.858,51.958c1.04,3.162-2.661,8.362-4.284,9.152c-1.123,0.54-2.246,0.582-4.077,0.582
		c-4.784,0-7.363-2.038-9.401-5.324c0.041,0.166,0.125,0.374,0.208,0.541c2.08,3.369,4.659,5.449,9.485,5.449
		c1.79,0,2.953-0.042,4.076-0.583C56.57,60.903,60.688,55.036,58.858,51.958z"/>
	<path fill="#ECA452" d="M44.673,55.036c0,0,3.121,1.997,3.869,2.122l-3.286-2.205c0.125-3.494-0.874-4.619-2.58-4.327
		c-0.125,0.041-0.25,0.041-0.375,0.083C43.966,50.501,44.798,51.625,44.673,55.036z"/>
	<path fill="#ECA452" d="M48.5,49.669c0,0,1.997,2.456,3.994,2.373v-0.458c-1.997,0.041-3.994-2.372-3.994-2.372
		c-0.75,0.749-5.491,1.664-6.074,0.416c-0.083-0.166-0.167-0.374-0.208-0.583c-0.041,0.25,0,0.583,0.208,1.04
		C43.009,51.292,47.751,50.377,48.5,49.669z"/>
</g>
<g>
	<path fill="#FFDD68" d="M31.868,75.325l-2.746,1.955c0,0-1.373-3.827-2.413-6.282c-0.416-0.998-1.748-1.331-2.372-2.745
		c-1.082-2.412,0.208-4.492,1.456-2.996c1.457,1.748,3.62,3.038,4.077,4.036C30.578,70.957,31.868,75.325,31.868,75.325z"/>
	<path fill="#FFDD68" d="M34.072,76.906c0.208,1.33,0.042,3.368-1.123,5.781c0,0-2.371-2.829-2.663-4.159
		c0,0-0.666-4.95-1.372-8.112c-0.291-1.29-1.789-2.038-2.163-3.869c-0.667-3.161,1.331-5.365,2.497-3.244
		c1.331,2.455,3.578,4.533,3.868,5.823C33.615,71.331,33.781,74.991,34.072,76.906z"/>
	<path fill="#ECA452" d="M30.536,74.41c0,0-0.207-1.872-0.915-5.033c-0.291-1.29-1.788-2.039-2.163-3.869
		c-0.249-1.083-0.167-2.081,0.125-2.789c-0.708,0.542-1.29,2.039-0.915,3.869c0.374,1.832,1.913,2.58,2.162,3.87
		c0.209,0.914,0.375,1.83,0.542,2.786l-2.081-0.791C27.333,72.453,30.536,74.41,30.536,74.41z"/>
	<path fill="#FFDD68" d="M33.074,76.407c-2.745-2.497-5.823-4.036-7.821-4.992c-2.953-1.458-2.163,0.54-7.197,1.871
		c-0.665,0.167-1.456,0.665-0.832,1.914c0.583,1.207,5.325,0.291,6.073-0.416c0,0,1.997,2.455,3.993,2.371
		c0,0-0.332,1.623,0.126,2.414c0,0-2.83,1.455-4.036,2.744l-3.328-2.246c-0.25-3.452-0.874-4.493-2.579-4.327
		c-1.582,0.166-1.415,1.666-1.373,2.871c0.042,2.205-0.541,2.579,0,3.453c2.08,3.37,4.659,5.45,9.484,5.45
		c1.789,0,2.954-0.043,4.077-0.583C31.493,85.934,36.111,79.194,33.074,76.407z"/>
	<path fill="#ECA452" d="M33.615,77.073c1.04,3.16-2.662,8.361-4.285,9.151c-1.123,0.54-2.246,0.582-4.077,0.582
		c-4.783,0-7.363-2.038-9.401-5.325c0.041,0.167,0.125,0.375,0.208,0.541c2.08,3.37,4.659,5.449,9.485,5.449
		c1.789,0,2.954-0.041,4.076-0.582C31.327,86.017,35.444,80.151,33.615,77.073z"/>
	<path fill="#ECA452" d="M19.429,80.151c0,0,3.121,1.996,3.869,2.121l-3.286-2.205c0.124-3.494-0.874-4.618-2.58-4.327
		c-0.125,0.042-0.249,0.042-0.374,0.084C18.722,75.616,19.554,76.74,19.429,80.151z"/>
	<path fill="#ECA452" d="M23.256,74.784c0,0,1.997,2.455,3.995,2.371v-0.457c-1.998,0.042-3.995-2.371-3.995-2.371
		c-0.749,0.748-5.491,1.663-6.073,0.415c-0.083-0.166-0.167-0.373-0.208-0.583c-0.041,0.251,0,0.583,0.208,1.041
		C17.765,76.407,22.507,75.491,23.256,74.784z"/>
</g>
<g>
	<path fill="#FFDD68" d="M81.557,75.324l-2.745,1.955c0,0-1.372-3.826-2.412-6.282c-0.416-0.997-1.749-1.331-2.372-2.745
		c-1.082-2.411,0.208-4.492,1.456-2.995c1.457,1.747,3.62,3.037,4.076,4.036C80.268,70.956,81.557,75.324,81.557,75.324z"/>
	<path fill="#FFDD68" d="M83.762,76.905c0.208,1.332,0.042,3.37-1.123,5.781c0,0-2.371-2.828-2.663-4.159
		c0,0-0.665-4.949-1.372-8.111c-0.291-1.291-1.789-2.037-2.162-3.869c-0.668-3.161,1.33-5.366,2.495-3.244
		c1.331,2.454,3.578,4.533,3.868,5.822C83.304,71.331,83.472,74.991,83.762,76.905z"/>
	<path fill="#ECA452" d="M80.226,74.409c0,0-0.207-1.871-0.915-5.033c-0.291-1.29-1.788-2.039-2.163-3.869
		c-0.25-1.082-0.166-2.08,0.125-2.788c-0.708,0.542-1.289,2.039-0.915,3.869c0.374,1.831,1.912,2.58,2.162,3.869
		c0.209,0.915,0.376,1.831,0.541,2.788l-2.079-0.791C77.022,72.454,80.226,74.409,80.226,74.409z"/>
	<path fill="#FFDD68" d="M82.764,76.406c-2.745-2.496-5.823-4.035-7.821-4.991c-2.953-1.457-2.163,0.54-7.197,1.87
		c-0.665,0.168-1.455,0.666-0.831,1.915c0.582,1.206,5.325,0.29,6.073-0.417c0,0,1.997,2.456,3.994,2.372
		c0,0-0.333,1.623,0.126,2.414c0,0-2.831,1.455-4.037,2.744l-3.327-2.246c-0.25-3.452-0.875-4.493-2.58-4.326
		c-1.581,0.165-1.414,1.665-1.373,2.87c0.042,2.205-0.541,2.58,0,3.453c2.08,3.369,4.659,5.45,9.485,5.45
		c1.788,0,2.954-0.043,4.076-0.583C81.183,85.933,85.801,79.194,82.764,76.406z"/>
	<path fill="#ECA452" d="M83.304,77.072c1.041,3.161-2.662,8.361-4.284,9.152c-1.123,0.54-2.245,0.582-4.077,0.582
		c-4.784,0-7.362-2.038-9.401-5.325c0.041,0.167,0.125,0.375,0.208,0.541c2.079,3.369,4.659,5.449,9.484,5.449
		c1.789,0,2.954-0.041,4.077-0.583C81.016,86.017,85.134,80.15,83.304,77.072z"/>
	<path fill="#ECA452" d="M69.118,80.15c0,0,3.121,1.996,3.869,2.122l-3.286-2.205c0.125-3.495-0.873-4.619-2.579-4.326
		c-0.125,0.041-0.25,0.041-0.375,0.082C68.411,75.616,69.243,76.739,69.118,80.15z"/>
	<path fill="#ECA452" d="M72.945,74.783c0,0,1.997,2.456,3.995,2.372v-0.457c-1.998,0.041-3.995-2.371-3.995-2.371
		c-0.749,0.748-5.491,1.662-6.073,0.414c-0.083-0.166-0.167-0.373-0.208-0.581c-0.041,0.249,0,0.581,0.208,1.04
		C67.454,76.406,72.196,75.49,72.945,74.783z"/>
</g>
<g>
	<path fill="#FFDD68" d="M31.868,25.114l-2.746,1.955c0,0-1.373-3.827-2.412-6.282c-0.417-0.998-1.748-1.331-2.372-2.746
		c-1.081-2.411,0.208-4.491,1.456-2.995c1.457,1.748,3.62,3.038,4.077,4.037C30.578,20.746,31.868,25.114,31.868,25.114z"/>
	<path fill="#FFDD68" d="M34.072,26.695c0.208,1.331,0.042,3.369-1.123,5.781c0,0-2.371-2.828-2.663-4.16
		c0,0-0.666-4.95-1.373-8.112c-0.291-1.29-1.789-2.038-2.163-3.869c-0.666-3.161,1.331-5.366,2.496-3.244
		c1.331,2.454,3.578,4.533,3.869,5.823C33.615,21.12,33.781,24.781,34.072,26.695z"/>
	<path fill="#ECA452" d="M30.536,24.199c0,0-0.207-1.872-0.915-5.034c-0.291-1.29-1.788-2.039-2.163-3.869
		c-0.249-1.083-0.167-2.08,0.125-2.789c-0.708,0.542-1.29,2.039-0.915,3.869c0.374,1.832,1.913,2.58,2.162,3.87
		c0.209,0.915,0.376,1.83,0.542,2.787l-2.081-0.791C27.334,22.243,30.536,24.199,30.536,24.199z"/>
	<path fill="#FFDD68" d="M33.074,26.196c-2.746-2.496-5.823-4.035-7.821-4.992c-2.954-1.458-2.163,0.54-7.197,1.871
		c-0.665,0.167-1.455,0.666-0.831,1.915c0.583,1.206,5.325,0.29,6.073-0.417c0,0,1.998,2.456,3.993,2.372
		c0,0-0.332,1.623,0.126,2.414c0,0-2.83,1.455-4.037,2.744l-3.328-2.246c-0.25-3.452-0.874-4.494-2.579-4.327
		c-1.582,0.166-1.416,1.666-1.373,2.871c0.042,2.205-0.541,2.579,0,3.453c2.08,3.37,4.659,5.45,9.484,5.45
		c1.789,0,2.954-0.043,4.077-0.583C31.493,35.722,36.111,28.983,33.074,26.196z"/>
	<path fill="#ECA452" d="M33.615,26.862c1.04,3.161-2.662,8.361-4.285,9.152c-1.123,0.541-2.246,0.582-4.077,0.582
		c-4.783,0-7.363-2.038-9.401-5.325c0.041,0.167,0.125,0.375,0.208,0.542c2.08,3.369,4.66,5.448,9.485,5.448
		c1.79,0,2.954-0.041,4.077-0.582C31.326,35.806,35.445,29.94,33.615,26.862z"/>
	<path fill="#ECA452" d="M19.429,29.94c0,0,3.121,1.996,3.869,2.122l-3.286-2.205c0.125-3.495-0.875-4.618-2.58-4.327
		c-0.125,0.042-0.249,0.042-0.375,0.083C18.723,25.405,19.554,26.529,19.429,29.94z"/>
	<path fill="#ECA452" d="M23.257,24.573c0,0,1.996,2.456,3.994,2.372v-0.458c-1.998,0.042-3.994-2.371-3.994-2.371
		c-0.75,0.749-5.492,1.664-6.074,0.415c-0.083-0.167-0.167-0.374-0.209-0.583c-0.041,0.25,0,0.583,0.209,1.041
		C17.765,26.196,22.507,25.28,23.257,24.573z"/>
</g>
<g>
	<path fill="#FFDD68" d="M81.558,25.075l-2.746,1.955c0,0-1.372-3.827-2.411-6.282c-0.417-0.998-1.749-1.331-2.373-2.746
		c-1.081-2.412,0.209-4.492,1.457-2.996c1.457,1.748,3.62,3.038,4.076,4.037C80.268,20.707,81.558,25.075,81.558,25.075z"/>
	<path fill="#FFDD68" d="M83.763,26.656c0.208,1.331,0.041,3.369-1.123,5.781c0,0-2.372-2.828-2.663-4.16
		c0,0-0.665-4.95-1.373-8.112c-0.29-1.29-1.788-2.038-2.163-3.869c-0.666-3.161,1.331-5.365,2.497-3.244
		c1.33,2.454,3.578,4.533,3.868,5.823C83.305,21.081,83.471,24.742,83.763,26.656z"/>
	<path fill="#ECA452" d="M80.226,24.16c0,0-0.206-1.872-0.914-5.034c-0.292-1.29-1.789-2.039-2.164-3.869
		c-0.249-1.083-0.167-2.08,0.126-2.788c-0.708,0.542-1.29,2.039-0.915,3.869c0.374,1.832,1.912,2.58,2.162,3.87
		c0.209,0.915,0.376,1.831,0.541,2.787l-2.081-0.791C77.023,22.204,80.226,24.16,80.226,24.16z"/>
	<path fill="#FFDD68" d="M82.764,26.157c-2.744-2.496-5.822-4.035-7.821-4.992c-2.953-1.458-2.163,0.54-7.196,1.872
		c-0.665,0.167-1.455,0.665-0.832,1.914c0.583,1.206,5.325,0.29,6.074-0.417c0,0,1.996,2.456,3.992,2.372
		c0,0-0.332,1.623,0.127,2.414c0,0-2.831,1.455-4.036,2.745l-3.329-2.246c-0.249-3.452-0.873-4.494-2.578-4.327
		c-1.581,0.166-1.415,1.666-1.373,2.872c0.042,2.204-0.541,2.579,0,3.452c2.08,3.37,4.659,5.45,9.484,5.45
		c1.789,0,2.953-0.043,4.077-0.583C81.183,35.683,85.802,28.944,82.764,26.157z"/>
	<path fill="#ECA452" d="M83.305,26.823c1.04,3.161-2.662,8.361-4.285,9.151c-1.123,0.541-2.245,0.582-4.077,0.582
		c-4.783,0-7.363-2.038-9.401-5.325c0.042,0.167,0.125,0.375,0.208,0.542c2.08,3.369,4.659,5.448,9.485,5.448
		c1.789,0,2.954-0.041,4.077-0.582C81.017,35.767,85.134,29.901,83.305,26.823z"/>
	<path fill="#ECA452" d="M69.119,29.901c0,0,3.12,1.996,3.869,2.122l-3.286-2.205c0.125-3.495-0.874-4.618-2.58-4.327
		c-0.125,0.042-0.249,0.042-0.374,0.083C68.412,25.366,69.244,26.49,69.119,29.901z"/>
	<path fill="#ECA452" d="M72.946,24.534c0,0,1.996,2.456,3.995,2.372v-0.457c-1.999,0.041-3.995-2.372-3.995-2.372
		c-0.749,0.749-5.492,1.664-6.073,0.415c-0.084-0.167-0.167-0.374-0.209-0.583c-0.04,0.25,0,0.583,0.209,1.041
		C67.454,26.157,72.197,25.241,72.946,24.534z"/>
</g>
<g>
</g>
<g>
	<path fill="#FFDD68" d="M57.112,0.335l-2.746,1.956c0,0-1.372-3.828-2.413-6.282c-0.415-0.998-1.747-1.332-2.371-2.746
		c-1.082-2.412,0.208-4.492,1.456-2.995c1.456,1.747,3.619,3.037,4.076,4.035C55.822-4.032,57.112,0.335,57.112,0.335z"/>
	<path fill="#FFDD68" d="M59.316,1.917c0.207,1.331,0.041,3.368-1.123,5.781c0,0-2.371-2.828-2.662-4.159
		c0,0-0.667-4.951-1.373-8.112c-0.291-1.29-1.789-2.039-2.163-3.869c-0.666-3.161,1.331-5.366,2.496-3.244
		c1.331,2.454,3.577,4.534,3.869,5.823C58.858-3.658,59.025,0.004,59.316,1.917z"/>
	<path fill="#ECA452" d="M55.779-0.579c0,0-0.207-1.872-0.915-5.034c-0.29-1.29-1.788-2.038-2.163-3.869
		c-0.248-1.082-0.166-2.08,0.125-2.787c-0.707,0.541-1.288,2.039-0.914,3.869c0.373,1.831,1.913,2.58,2.162,3.869
		c0.209,0.915,0.375,1.83,0.542,2.787l-2.081-0.791C52.578-2.535,55.779-0.579,55.779-0.579z"/>
	<path fill="#FFDD68" d="M58.318,1.417c-2.746-2.496-5.824-4.035-7.821-4.992c-2.954-1.457-2.163,0.541-7.197,1.872
		c-0.665,0.167-1.455,0.666-0.831,1.914c0.582,1.207,5.325,0.292,6.073-0.416c0,0,1.998,2.456,3.994,2.373
		c0,0-0.332,1.622,0.126,2.412c0,0-2.83,1.456-4.036,2.745l-3.328-2.246c-0.25-3.452-0.874-4.494-2.579-4.327
		c-1.582,0.167-1.415,1.665-1.373,2.872c0.042,2.203-0.541,2.578,0,3.451c2.08,3.371,4.659,5.45,9.484,5.45
		c1.789,0,2.954-0.041,4.077-0.582C56.737,10.944,61.354,4.206,58.318,1.417z"/>
	<path fill="#ECA452" d="M58.858,2.083c1.04,3.162-2.661,8.362-4.284,9.152c-1.123,0.54-2.246,0.582-4.077,0.582
		c-4.784,0-7.363-2.038-9.401-5.324c0.041,0.166,0.125,0.374,0.208,0.541c2.08,3.369,4.659,5.449,9.485,5.449
		c1.79,0,2.953-0.042,4.076-0.583C56.57,11.029,60.688,5.162,58.858,2.083z"/>
	<path fill="#ECA452" d="M44.673,5.162c0,0,3.121,1.997,3.869,2.122l-3.286-2.205c0.125-3.494-0.874-4.619-2.58-4.327
		c-0.125,0.041-0.25,0.041-0.375,0.083C43.966,0.627,44.798,1.75,44.673,5.162z"/>
	<path fill="#ECA452" d="M48.5-0.205c0,0,1.997,2.456,3.994,2.373V1.709C50.497,1.75,48.5-0.662,48.5-0.662
		c-0.75,0.749-5.491,1.664-6.074,0.416c-0.083-0.166-0.167-0.374-0.208-0.583c-0.041,0.25,0,0.583,0.208,1.04
		C43.009,1.417,47.751,0.503,48.5-0.205z"/>
</g>
<g>
	<path fill="#FFDD68" d="M57.112,100.336l-2.746,1.956c0,0-1.372-3.827-2.413-6.282c-0.415-0.998-1.747-1.332-2.371-2.746
		c-1.082-2.412,0.208-4.492,1.456-2.994c1.456,1.746,3.619,3.037,4.076,4.035C55.822,95.969,57.112,100.336,57.112,100.336z"/>
	<path fill="#FFDD68" d="M59.316,101.918c0.207,1.331,0.041,3.368-1.123,5.781c0,0-2.371-2.828-2.662-4.159
		c0,0-0.667-4.951-1.373-8.112c-0.291-1.29-1.789-2.039-2.163-3.869c-0.666-3.161,1.331-5.366,2.496-3.244
		c1.331,2.454,3.577,4.533,3.869,5.823C58.858,96.343,59.025,100.004,59.316,101.918z"/>
	<path fill="#ECA452" d="M55.779,99.422c0,0-0.207-1.873-0.915-5.034c-0.29-1.29-1.788-2.038-2.163-3.869
		c-0.248-1.081-0.166-2.079,0.125-2.787c-0.707,0.54-1.288,2.038-0.914,3.868c0.373,1.831,1.913,2.58,2.162,3.869
		c0.209,0.915,0.375,1.83,0.542,2.787l-2.081-0.79C52.578,97.466,55.779,99.422,55.779,99.422z"/>
	<path fill="#FFDD68" d="M58.318,101.418c-2.746-2.496-5.824-4.035-7.821-4.992c-2.954-1.456-2.163,0.541-7.197,1.872
		c-0.665,0.167-1.455,0.665-0.831,1.913c0.582,1.207,5.325,0.293,6.073-0.416c0,0,1.998,2.456,3.994,2.373
		c0,0-0.332,1.622,0.126,2.412c0,0-2.83,1.456-4.036,2.745l-3.328-2.246c-0.25-3.452-0.874-4.493-2.579-4.327
		c-1.582,0.168-1.415,1.665-1.373,2.872c0.042,2.203-0.541,2.578,0,3.451c2.08,3.371,4.659,5.45,9.484,5.45
		c1.789,0,2.954-0.041,4.077-0.582C56.737,110.944,61.354,104.206,58.318,101.418z"/>
	<path fill="#ECA452" d="M58.858,102.084c1.04,3.162-2.661,8.362-4.284,9.152c-1.123,0.54-2.246,0.582-4.077,0.582
		c-4.784,0-7.363-2.038-9.401-5.324c0.041,0.166,0.125,0.374,0.208,0.541c2.08,3.369,4.659,5.449,9.485,5.449
		c1.79,0,2.953-0.042,4.076-0.583C56.57,111.029,60.688,105.162,58.858,102.084z"/>
	<path fill="#ECA452" d="M44.673,105.162c0,0,3.121,1.997,3.869,2.122l-3.286-2.205c0.125-3.494-0.874-4.618-2.58-4.327
		c-0.125,0.041-0.25,0.041-0.375,0.084C43.966,100.627,44.798,101.751,44.673,105.162z"/>
	<path fill="#ECA452" d="M48.5,99.795c0,0,1.997,2.456,3.994,2.373v-0.458c-1.997,0.041-3.994-2.372-3.994-2.372
		c-0.75,0.749-5.491,1.664-6.074,0.416c-0.083-0.166-0.167-0.374-0.208-0.582c-0.041,0.25,0,0.582,0.208,1.039
		C43.009,101.418,47.751,100.504,48.5,99.795z"/>
</g>
<g>
	<path fill="#FFDD68" d="M103.517,50.21l-2.746,1.956c0,0-1.372-3.828-2.413-6.282c-0.415-0.998-1.747-1.332-2.371-2.746
		c-1.082-2.412,0.208-4.492,1.456-2.995c1.456,1.747,3.619,3.037,4.076,4.035C102.227,45.842,103.517,50.21,103.517,50.21z"/>
	<path fill="#FFDD68" d="M105.721,51.792c0.207,1.331,0.041,3.368-1.123,5.781c0,0-2.371-2.828-2.662-4.159
		c0,0-0.667-4.951-1.373-8.112c-0.291-1.29-1.789-2.039-2.163-3.869c-0.666-3.161,1.331-5.366,2.496-3.244
		c1.331,2.454,3.577,4.534,3.869,5.823C105.263,46.217,105.43,49.878,105.721,51.792z"/>
	<path fill="#ECA452" d="M102.184,49.295c0,0-0.207-1.872-0.915-5.034c-0.29-1.29-1.788-2.038-2.163-3.869
		c-0.248-1.082-0.166-2.08,0.125-2.787c-0.707,0.541-1.288,2.039-0.914,3.869c0.373,1.831,1.913,2.58,2.162,3.869
		c0.209,0.915,0.375,1.83,0.542,2.787l-2.081-0.791C98.982,47.34,102.184,49.295,102.184,49.295z"/>
	<path fill="#FFDD68" d="M104.723,51.292c-2.746-2.496-5.824-4.035-7.821-4.992c-2.954-1.457-2.163,0.541-7.197,1.872
		c-0.665,0.167-1.455,0.666-0.831,1.914c0.582,1.207,5.324,0.292,6.072-0.416c0,0,1.998,2.456,3.994,2.373
		c0,0-0.332,1.622,0.126,2.412c0,0-2.829,1.456-4.036,2.745l-3.328-2.246c-0.25-3.452-0.873-4.494-2.578-4.327
		c-1.582,0.167-1.415,1.665-1.373,2.872c0.041,2.203-0.541,2.578,0,3.451c2.08,3.371,4.658,5.45,9.484,5.45
		c1.788,0,2.953-0.041,4.076-0.582C103.142,60.818,107.759,54.08,104.723,51.292z"/>
	<path fill="#ECA452" d="M105.263,51.958c1.04,3.162-2.661,8.362-4.284,9.152c-1.123,0.54-2.246,0.582-4.077,0.582
		c-4.784,0-7.363-2.038-9.401-5.324c0.041,0.166,0.125,0.374,0.208,0.541c2.079,3.369,4.659,5.449,9.485,5.449
		c1.789,0,2.952-0.042,4.075-0.583C102.975,60.903,107.093,55.036,105.263,51.958z"/>
	<path fill="#ECA452" d="M91.077,55.036c0,0,3.12,1.997,3.868,2.122l-3.285-2.205c0.125-3.494-0.874-4.619-2.58-4.327
		c-0.124,0.041-0.249,0.041-0.374,0.083C90.371,50.501,91.202,51.625,91.077,55.036z"/>
	<path fill="#ECA452" d="M94.904,49.669c0,0,1.997,2.456,3.994,2.373v-0.458c-1.997,0.041-3.994-2.372-3.994-2.372
		c-0.749,0.749-5.49,1.664-6.073,0.416c-0.083-0.166-0.167-0.374-0.208-0.583c-0.041,0.25,0,0.583,0.208,1.04
		C89.414,51.292,94.155,50.377,94.904,49.669z"/>
</g>
<g>
	<path fill="#FFDD68" d="M3.517,50.21l-2.746,1.956c0,0-1.372-3.828-2.413-6.282c-0.415-0.998-1.747-1.332-2.371-2.746
		c-1.082-2.412,0.208-4.492,1.456-2.995c1.456,1.747,3.619,3.037,4.076,4.035C2.227,45.842,3.517,50.21,3.517,50.21z"/>
	<path fill="#FFDD68" d="M5.721,51.792c0.207,1.331,0.041,3.368-1.123,5.781c0,0-2.371-2.828-2.662-4.159
		c0,0-0.667-4.951-1.373-8.112c-0.291-1.29-1.789-2.039-2.163-3.869c-0.666-3.161,1.331-5.366,2.496-3.244
		c1.331,2.454,3.577,4.534,3.869,5.823C5.263,46.217,5.43,49.878,5.721,51.792z"/>
	<path fill="#ECA452" d="M2.184,49.295c0,0-0.207-1.872-0.915-5.034c-0.29-1.29-1.788-2.038-2.163-3.869
		c-0.248-1.082-0.166-2.08,0.125-2.787c-0.707,0.541-1.288,2.039-0.914,3.869c0.373,1.831,1.913,2.58,2.162,3.869
		c0.209,0.915,0.375,1.83,0.542,2.787l-2.081-0.791C-1.018,47.34,2.184,49.295,2.184,49.295z"/>
	<path fill="#FFDD68" d="M4.723,51.292c-2.746-2.496-5.824-4.035-7.821-4.992c-2.954-1.457-2.163,0.541-7.197,1.872
		c-0.665,0.167-1.455,0.666-0.831,1.914c0.582,1.207,5.324,0.292,6.072-0.416c0,0,1.998,2.456,3.994,2.373
		c0,0-0.332,1.622,0.126,2.412c0,0-2.829,1.456-4.036,2.745l-3.328-2.246c-0.25-3.452-0.873-4.494-2.578-4.327
		c-1.582,0.167-1.415,1.665-1.373,2.872c0.041,2.203-0.541,2.578,0,3.451c2.08,3.371,4.658,5.45,9.484,5.45
		c1.788,0,2.953-0.041,4.076-0.582C3.142,60.818,7.759,54.08,4.723,51.292z"/>
	<path fill="#ECA452" d="M5.263,51.958c1.04,3.162-2.661,8.362-4.284,9.152c-1.123,0.54-2.246,0.582-4.077,0.582
		c-4.784,0-7.363-2.038-9.401-5.324c0.041,0.166,0.125,0.374,0.208,0.541c2.079,3.369,4.659,5.449,9.485,5.449
		c1.789,0,2.952-0.042,4.075-0.583C2.975,60.903,7.093,55.036,5.263,51.958z"/>
	<path fill="#ECA452" d="M-8.923,55.036c0,0,3.12,1.997,3.868,2.122l-3.285-2.205c0.125-3.494-0.874-4.619-2.58-4.327
		c-0.124,0.041-0.249,0.041-0.374,0.083C-9.629,50.501-8.798,51.625-8.923,55.036z"/>
	<path fill="#ECA452" d="M-5.096,49.669c0,0,1.997,2.456,3.994,2.373v-0.458c-1.997,0.041-3.994-2.372-3.994-2.372
		c-0.749,0.749-5.49,1.664-6.073,0.416c-0.083-0.166-0.167-0.374-0.208-0.583c-0.041,0.25,0,0.583,0.208,1.04
		C-10.586,51.292-5.845,50.377-5.096,49.669z"/>
</g>
</svg>
