<?xml version="1.0" encoding="utf-8"?>
<!-- Generator: Adobe Illustrator 16.0.0, SVG Export Plug-In . SVG Version: 6.00 Build 0)  -->
<!DOCTYPE svg PUBLIC "-//W3C//DTD SVG 1.1//EN" "http://www.w3.org/Graphics/SVG/1.1/DTD/svg11.dtd">
<svg version="1.1" id="Layer_1" xmlns="http://www.w3.org/2000/svg" xmlns:xlink="http://www.w3.org/1999/xlink" x="0px" y="0px"
	 width="100px" height="100px" viewBox="0 0 100 100" enable-background="new 0 0 100 100" xml:space="preserve">
<g>
	<path fill="#FFDD68" d="M68.479,50.904l-7.388,5.262c0,0-3.694-10.299-6.492-16.903c-1.119-2.687-4.702-3.582-6.381-7.388
		c-2.911-6.493,0.56-12.089,3.918-8.06c3.918,4.701,9.738,8.171,10.97,10.858C65.009,39.151,68.479,50.904,68.479,50.904z"/>
	<path fill="#FFDD68" d="M74.412,55.158c0.56,3.582,0.111,9.067-3.022,15.56c0,0-6.381-7.611-7.164-11.193
		c0,0-1.792-13.321-3.694-21.829c-0.784-3.47-4.813-5.485-5.821-10.41c-1.791-8.508,3.582-14.44,6.717-8.731
		c3.582,6.604,9.627,12.201,10.41,15.671C73.18,40.159,73.628,50.009,74.412,55.158z"/>
	<path fill="#ECA452" d="M64.896,48.442c0,0-0.56-5.037-2.463-13.545c-0.783-3.47-4.812-5.485-5.82-10.411
		c-0.672-2.91-0.447-5.597,0.336-7.5c-1.903,1.456-3.47,5.485-2.463,10.411c1.008,4.925,5.149,6.94,5.821,10.41
		c0.56,2.463,1.008,4.926,1.455,7.5l-5.597-2.127C56.277,43.181,64.896,48.442,64.896,48.442z"/>
	<path fill="#FFDD68" d="M71.726,53.815c-7.389-6.717-15.672-10.858-21.045-13.433c-7.948-3.918-5.821,1.456-19.366,5.038
		c-1.791,0.447-3.918,1.791-2.239,5.149c1.567,3.246,14.329,0.783,16.343-1.12c0,0,5.374,6.604,10.747,6.381
		c0,0-0.896,4.365,0.336,6.492c0,0-7.613,3.918-10.859,7.389l-8.955-6.045c-0.672-9.291-2.351-12.09-6.94-11.642
		c-4.254,0.447-3.806,4.478-3.694,7.724c0.112,5.933-1.456,6.94,0,9.291c5.597,9.067,12.537,14.664,25.522,14.664
		c4.813,0,7.947-0.111,10.97-1.567C67.471,79.449,79.896,61.315,71.726,53.815z"/>
	<path fill="#ECA452" d="M73.18,55.606c2.799,8.508-7.164,22.5-11.529,24.627c-3.022,1.455-6.045,1.566-10.97,1.566
		c-12.873,0-19.813-5.484-25.298-14.328c0.112,0.448,0.336,1.008,0.56,1.455c5.597,9.067,12.538,14.665,25.522,14.665
		c4.813,0,7.948-0.112,10.97-1.568C67.023,79.673,78.105,63.89,73.18,55.606z"/>
	<path fill="#ECA452" d="M35.009,63.89c0,0,8.396,5.373,10.41,5.709l-8.843-5.933c0.336-9.403-2.351-12.426-6.94-11.642
		c-0.336,0.111-0.672,0.111-1.008,0.224C33.105,51.688,35.344,54.711,35.009,63.89z"/>
	<path fill="#ECA452" d="M45.307,49.449c0,0,5.373,6.604,10.747,6.381v-1.231c-5.374,0.112-10.747-6.38-10.747-6.38
		c-2.015,2.015-14.776,4.477-16.343,1.119c-0.224-0.448-0.448-1.008-0.56-1.567c-0.112,0.672,0,1.567,0.56,2.799
		C30.531,53.815,43.292,51.353,45.307,49.449z"/>
</g>
</svg>
