<?xml version="1.0" encoding="utf-8"?>
<!-- Generator: Adobe Illustrator 16.0.0, SVG Export Plug-In . SVG Version: 6.00 Build 0)  -->
<!DOCTYPE svg PUBLIC "-//W3C//DTD SVG 1.1//EN" "http://www.w3.org/Graphics/SVG/1.1/DTD/svg11.dtd">
<svg version="1.1" id="Camada_1" xmlns="http://www.w3.org/2000/svg" xmlns:xlink="http://www.w3.org/1999/xlink" x="0px" y="0px"
	 width="284.849px" height="389.973px" viewBox="163.576 201.014 284.849 389.973"
	 enable-background="new 163.576 201.014 284.849 389.973" xml:space="preserve">
<g>
	<path fill="#FFDD67" d="M412.909,401.234l-42.743,30.438c0,0-21.371-59.58-37.562-97.789c-6.476-15.543-27.2-20.725-36.914-42.743
		c-16.838-37.562,3.238-69.943,22.667-46.629c22.666,27.2,56.342,47.276,63.467,62.819
		C392.833,333.234,412.909,401.234,412.909,401.234z"/>
	<path fill="#FFDD67" d="M447.233,425.844c3.238,20.725,0.647,52.457-17.486,90.02c0,0-36.914-44.039-41.447-64.762
		c0,0-10.362-77.066-21.372-126.286c-4.533-20.076-27.848-31.733-33.676-60.229c-10.361-49.219,20.725-83.543,38.857-50.515
		c20.724,38.21,55.695,70.591,60.229,90.667C440.109,339.063,442.699,396.053,447.233,425.844z"/>
	<path fill="#EBA352" d="M392.186,386.987c0,0-3.238-29.142-14.248-78.362c-4.533-20.076-27.848-31.733-33.676-60.229
		c-3.886-16.838-2.59-32.381,1.943-43.391c-11.01,8.42-20.076,31.733-14.248,60.229c5.828,28.496,29.791,40.152,33.676,60.229
		c3.238,14.248,5.829,28.496,8.42,43.391l-32.381-12.305C342.318,356.549,392.186,386.987,392.186,386.987z"/>
	<path fill="#FFDD67" d="M431.69,418.072c-42.743-38.857-90.667-62.818-121.753-77.714c-45.98-22.667-33.676,8.419-112.038,29.143
		c-10.362,2.591-22.667,10.363-12.952,29.79c9.066,18.781,82.896,4.533,94.552-6.476c0,0,31.086,38.21,62.171,36.916
		c0,0-5.181,25.256,1.943,37.561c0,0-44.038,22.668-62.819,42.744l-51.81-34.973c-3.886-53.752-13.6-69.941-40.152-67.352
		c-24.609,2.59-22.019,25.904-21.371,44.686c0.647,34.324-8.419,40.152,0,53.752c32.381,52.457,72.533,84.838,147.657,84.838
		c27.848,0,45.98-0.646,63.467-9.066C407.08,566.377,478.967,461.463,431.69,418.072z"/>
	<path fill="#EBA352" d="M440.109,428.434c16.19,49.221-41.447,130.172-66.705,142.477c-17.485,8.42-34.971,9.066-63.467,9.066
		c-74.476,0-114.628-31.732-146.362-82.895c0.648,2.59,1.943,5.828,3.238,8.418c32.381,52.459,72.533,84.84,147.657,84.84
		c27.848,0,45.981-0.648,63.467-9.068C404.49,567.672,468.604,476.357,440.109,428.434z"/>
	<path fill="#EBA352" d="M219.271,476.357c0,0,48.572,31.086,60.229,33.029l-51.162-34.324c1.943-54.4-13.6-71.885-40.152-67.352
		c-1.943,0.646-3.886,0.646-5.829,1.295C208.262,405.768,221.214,423.254,219.271,476.357z"/>
	<path fill="#EBA352" d="M278.852,392.815c0,0,31.085,38.21,62.171,36.916v-7.125c-31.086,0.648-62.171-36.914-62.171-36.914
		c-11.657,11.656-85.486,25.904-94.552,6.477c-1.295-2.59-2.591-5.828-3.238-9.066c-0.647,3.885,0,9.066,3.238,16.189
		C193.366,418.072,267.195,403.824,278.852,392.815z"/>
</g>
</svg>
