<?xml version="1.0" encoding="utf-8"?>
<!-- Generator: Adobe Illustrator 19.1.0, SVG Export Plug-In . SVG Version: 6.00 Build 0)  -->
<svg version="1.1" id="Camada_1" xmlns="http://www.w3.org/2000/svg" xmlns:xlink="http://www.w3.org/1999/xlink" x="0px" y="0px"
	 viewBox="-232.2 203.8 94.5 94.5" style="enable-background:new -232.2 203.8 94.5 94.5;" xml:space="preserve">
<style type="text/css">
	.st0{fill:#FFDD67;}
	.st1{fill:#EBA352;}
</style>
<path class="st0" d="M-150.2,263.8l-6.6,4.7c0,0-3.3-9.2-5.8-15.1c-1-2.4-4.2-3.2-5.7-6.6c-2.6-5.8,0.5-10.8,3.5-7.2
	c3.5,4.2,8.7,7.3,9.8,9.7C-153.3,253.3-150.2,263.8-150.2,263.8z"/>
<path class="st0" d="M-144.9,267.6c0.5,3.2,0.1,8.1-2.7,13.9c0,0-5.7-6.8-6.4-10c0,0-1.6-11.9-3.3-19.5c-0.7-3.1-4.3-4.9-5.2-9.3
	c-1.6-7.6,3.2-12.9,6-7.8c3.2,5.9,8.6,10.9,9.3,14C-146,254.2-145.6,263-144.9,267.6z"/>
<path class="st1" d="M-153.4,261.6c0,0-0.5-4.5-2.2-12.1c-0.7-3.1-4.3-4.9-5.2-9.3c-0.6-2.6-0.4-5,0.3-6.7c-1.7,1.3-3.1,4.9-2.2,9.3
	c0.9,4.4,4.6,6.2,5.2,9.3c0.5,2.2,0.9,4.4,1.3,6.7l-5-1.9C-161.1,256.9-153.4,261.6-153.4,261.6z"/>
<path class="st0" d="M-147.3,266.4c-6.6-6-14-9.7-18.8-12c-7.1-3.5-5.2,1.3-17.3,4.5c-1.6,0.4-3.5,1.6-2,4.6
	c1.4,2.9,12.8,0.7,14.6-1c0,0,4.8,5.9,9.6,5.7c0,0-0.8,3.9,0.3,5.8c0,0-6.8,3.5-9.7,6.6l-8-5.4c-0.6-8.3-2.1-10.8-6.2-10.4
	c-3.8,0.4-3.4,4-3.3,6.9c0.1,5.3-1.3,6.2,0,8.3c5,8.1,11.2,13.1,22.8,13.1c4.3,0,7.1-0.1,9.8-1.4
	C-151.1,289.3-140,273.1-147.3,266.4z"/>
<path class="st1" d="M-146,268c2.5,7.6-6.4,20.1-10.3,22c-2.7,1.3-5.4,1.4-9.8,1.4c-11.5,0-17.7-4.9-22.6-12.8
	c0.1,0.4,0.3,0.9,0.5,1.3c5,8.1,11.2,13.1,22.8,13.1c4.3,0,7.1-0.1,9.8-1.4C-151.5,289.5-141.6,275.4-146,268z"/>
<path class="st1" d="M-180.1,275.4c0,0,7.5,4.8,9.3,5.1l-7.9-5.3c0.3-8.4-2.1-11.1-6.2-10.4c-0.3,0.1-0.6,0.1-0.9,0.2
	C-181.8,264.5-179.8,267.2-180.1,275.4z"/>
<path class="st1" d="M-170.9,262.5c0,0,4.8,5.9,9.6,5.7v-1.1c-4.8,0.1-9.6-5.7-9.6-5.7c-1.8,1.8-13.2,4-14.6,1
	c-0.2-0.4-0.4-0.9-0.5-1.4c-0.1,0.6,0,1.4,0.5,2.5C-184.1,266.4-172.7,264.2-170.9,262.5z"/>
</svg>
